%TF.GenerationSoftware,KiCad,Pcbnew,(6.0.9-0)*%
%TF.CreationDate,2023-01-28T22:02:16-06:00*%
%TF.ProjectId,ps2usb,70733275-7362-42e6-9b69-6361645f7063,rev?*%
%TF.SameCoordinates,Original*%
%TF.FileFunction,Legend,Top*%
%TF.FilePolarity,Positive*%
%FSLAX46Y46*%
G04 Gerber Fmt 4.6, Leading zero omitted, Abs format (unit mm)*
G04 Created by KiCad (PCBNEW (6.0.9-0)) date 2023-01-28 22:02:16*
%MOMM*%
%LPD*%
G01*
G04 APERTURE LIST*
%ADD10C,0.150000*%
%ADD11C,0.120000*%
%ADD12C,0.310000*%
G04 APERTURE END LIST*
D10*
%TO.C,C9*%
X111333333Y-81357142D02*
X111285714Y-81404761D01*
X111142857Y-81452380D01*
X111047619Y-81452380D01*
X110904761Y-81404761D01*
X110809523Y-81309523D01*
X110761904Y-81214285D01*
X110714285Y-81023809D01*
X110714285Y-80880952D01*
X110761904Y-80690476D01*
X110809523Y-80595238D01*
X110904761Y-80500000D01*
X111047619Y-80452380D01*
X111142857Y-80452380D01*
X111285714Y-80500000D01*
X111333333Y-80547619D01*
X111809523Y-81452380D02*
X112000000Y-81452380D01*
X112095238Y-81404761D01*
X112142857Y-81357142D01*
X112238095Y-81214285D01*
X112285714Y-81023809D01*
X112285714Y-80642857D01*
X112238095Y-80547619D01*
X112190476Y-80500000D01*
X112095238Y-80452380D01*
X111904761Y-80452380D01*
X111809523Y-80500000D01*
X111761904Y-80547619D01*
X111714285Y-80642857D01*
X111714285Y-80880952D01*
X111761904Y-80976190D01*
X111809523Y-81023809D01*
X111904761Y-81071428D01*
X112095238Y-81071428D01*
X112190476Y-81023809D01*
X112238095Y-80976190D01*
X112285714Y-80880952D01*
%TO.C,EXT*%
X104178571Y-75921428D02*
X104178571Y-75588095D01*
X104702380Y-75445238D02*
X104702380Y-75921428D01*
X103702380Y-75921428D01*
X103702380Y-75445238D01*
X103702380Y-75111904D02*
X104702380Y-74445238D01*
X103702380Y-74445238D02*
X104702380Y-75111904D01*
X103702380Y-74207142D02*
X103702380Y-73635714D01*
X104702380Y-73921428D02*
X103702380Y-73921428D01*
%TO.C,*%
%TO.C,C4*%
X125033333Y-98490142D02*
X124985714Y-98537761D01*
X124842857Y-98585380D01*
X124747619Y-98585380D01*
X124604761Y-98537761D01*
X124509523Y-98442523D01*
X124461904Y-98347285D01*
X124414285Y-98156809D01*
X124414285Y-98013952D01*
X124461904Y-97823476D01*
X124509523Y-97728238D01*
X124604761Y-97633000D01*
X124747619Y-97585380D01*
X124842857Y-97585380D01*
X124985714Y-97633000D01*
X125033333Y-97680619D01*
X125890476Y-97918714D02*
X125890476Y-98585380D01*
X125652380Y-97537761D02*
X125414285Y-98252047D01*
X126033333Y-98252047D01*
%TO.C,C7*%
X120433333Y-70607142D02*
X120385714Y-70654761D01*
X120242857Y-70702380D01*
X120147619Y-70702380D01*
X120004761Y-70654761D01*
X119909523Y-70559523D01*
X119861904Y-70464285D01*
X119814285Y-70273809D01*
X119814285Y-70130952D01*
X119861904Y-69940476D01*
X119909523Y-69845238D01*
X120004761Y-69750000D01*
X120147619Y-69702380D01*
X120242857Y-69702380D01*
X120385714Y-69750000D01*
X120433333Y-69797619D01*
X120766666Y-69702380D02*
X121433333Y-69702380D01*
X121004761Y-70702380D01*
%TO.C,Keyboard*%
X132702380Y-100290476D02*
X131702380Y-100290476D01*
X132702380Y-99719047D02*
X132130952Y-100147619D01*
X131702380Y-99719047D02*
X132273809Y-100290476D01*
X132654761Y-98909523D02*
X132702380Y-99004761D01*
X132702380Y-99195238D01*
X132654761Y-99290476D01*
X132559523Y-99338095D01*
X132178571Y-99338095D01*
X132083333Y-99290476D01*
X132035714Y-99195238D01*
X132035714Y-99004761D01*
X132083333Y-98909523D01*
X132178571Y-98861904D01*
X132273809Y-98861904D01*
X132369047Y-99338095D01*
X132035714Y-98528571D02*
X132702380Y-98290476D01*
X132035714Y-98052380D02*
X132702380Y-98290476D01*
X132940476Y-98385714D01*
X132988095Y-98433333D01*
X133035714Y-98528571D01*
X132702380Y-97671428D02*
X131702380Y-97671428D01*
X132083333Y-97671428D02*
X132035714Y-97576190D01*
X132035714Y-97385714D01*
X132083333Y-97290476D01*
X132130952Y-97242857D01*
X132226190Y-97195238D01*
X132511904Y-97195238D01*
X132607142Y-97242857D01*
X132654761Y-97290476D01*
X132702380Y-97385714D01*
X132702380Y-97576190D01*
X132654761Y-97671428D01*
X132702380Y-96623809D02*
X132654761Y-96719047D01*
X132607142Y-96766666D01*
X132511904Y-96814285D01*
X132226190Y-96814285D01*
X132130952Y-96766666D01*
X132083333Y-96719047D01*
X132035714Y-96623809D01*
X132035714Y-96480952D01*
X132083333Y-96385714D01*
X132130952Y-96338095D01*
X132226190Y-96290476D01*
X132511904Y-96290476D01*
X132607142Y-96338095D01*
X132654761Y-96385714D01*
X132702380Y-96480952D01*
X132702380Y-96623809D01*
X132702380Y-95433333D02*
X132178571Y-95433333D01*
X132083333Y-95480952D01*
X132035714Y-95576190D01*
X132035714Y-95766666D01*
X132083333Y-95861904D01*
X132654761Y-95433333D02*
X132702380Y-95528571D01*
X132702380Y-95766666D01*
X132654761Y-95861904D01*
X132559523Y-95909523D01*
X132464285Y-95909523D01*
X132369047Y-95861904D01*
X132321428Y-95766666D01*
X132321428Y-95528571D01*
X132273809Y-95433333D01*
X132702380Y-94957142D02*
X132035714Y-94957142D01*
X132226190Y-94957142D02*
X132130952Y-94909523D01*
X132083333Y-94861904D01*
X132035714Y-94766666D01*
X132035714Y-94671428D01*
X132702380Y-93909523D02*
X131702380Y-93909523D01*
X132654761Y-93909523D02*
X132702380Y-94004761D01*
X132702380Y-94195238D01*
X132654761Y-94290476D01*
X132607142Y-94338095D01*
X132511904Y-94385714D01*
X132226190Y-94385714D01*
X132130952Y-94338095D01*
X132083333Y-94290476D01*
X132035714Y-94195238D01*
X132035714Y-94004761D01*
X132083333Y-93909523D01*
%TO.C,D1*%
X100290904Y-92902380D02*
X100290904Y-91902380D01*
X100529000Y-91902380D01*
X100671857Y-91950000D01*
X100767095Y-92045238D01*
X100814714Y-92140476D01*
X100862333Y-92330952D01*
X100862333Y-92473809D01*
X100814714Y-92664285D01*
X100767095Y-92759523D01*
X100671857Y-92854761D01*
X100529000Y-92902380D01*
X100290904Y-92902380D01*
X101814714Y-92902380D02*
X101243285Y-92902380D01*
X101529000Y-92902380D02*
X101529000Y-91902380D01*
X101433761Y-92045238D01*
X101338523Y-92140476D01*
X101243285Y-92188095D01*
%TO.C,RN3*%
X106977523Y-92274380D02*
X106644190Y-91798190D01*
X106406095Y-92274380D02*
X106406095Y-91274380D01*
X106787047Y-91274380D01*
X106882285Y-91322000D01*
X106929904Y-91369619D01*
X106977523Y-91464857D01*
X106977523Y-91607714D01*
X106929904Y-91702952D01*
X106882285Y-91750571D01*
X106787047Y-91798190D01*
X106406095Y-91798190D01*
X107406095Y-92274380D02*
X107406095Y-91274380D01*
X107977523Y-92274380D01*
X107977523Y-91274380D01*
X108358476Y-91274380D02*
X108977523Y-91274380D01*
X108644190Y-91655333D01*
X108787047Y-91655333D01*
X108882285Y-91702952D01*
X108929904Y-91750571D01*
X108977523Y-91845809D01*
X108977523Y-92083904D01*
X108929904Y-92179142D01*
X108882285Y-92226761D01*
X108787047Y-92274380D01*
X108501333Y-92274380D01*
X108406095Y-92226761D01*
X108358476Y-92179142D01*
%TO.C,C1*%
X117689333Y-118213142D02*
X117641714Y-118260761D01*
X117498857Y-118308380D01*
X117403619Y-118308380D01*
X117260761Y-118260761D01*
X117165523Y-118165523D01*
X117117904Y-118070285D01*
X117070285Y-117879809D01*
X117070285Y-117736952D01*
X117117904Y-117546476D01*
X117165523Y-117451238D01*
X117260761Y-117356000D01*
X117403619Y-117308380D01*
X117498857Y-117308380D01*
X117641714Y-117356000D01*
X117689333Y-117403619D01*
X118641714Y-118308380D02*
X118070285Y-118308380D01*
X118356000Y-118308380D02*
X118356000Y-117308380D01*
X118260761Y-117451238D01*
X118165523Y-117546476D01*
X118070285Y-117594095D01*
%TO.C,USB*%
X109933095Y-102422380D02*
X109933095Y-103231904D01*
X109980714Y-103327142D01*
X110028333Y-103374761D01*
X110123571Y-103422380D01*
X110314047Y-103422380D01*
X110409285Y-103374761D01*
X110456904Y-103327142D01*
X110504523Y-103231904D01*
X110504523Y-102422380D01*
X110933095Y-103374761D02*
X111075952Y-103422380D01*
X111314047Y-103422380D01*
X111409285Y-103374761D01*
X111456904Y-103327142D01*
X111504523Y-103231904D01*
X111504523Y-103136666D01*
X111456904Y-103041428D01*
X111409285Y-102993809D01*
X111314047Y-102946190D01*
X111123571Y-102898571D01*
X111028333Y-102850952D01*
X110980714Y-102803333D01*
X110933095Y-102708095D01*
X110933095Y-102612857D01*
X110980714Y-102517619D01*
X111028333Y-102470000D01*
X111123571Y-102422380D01*
X111361666Y-102422380D01*
X111504523Y-102470000D01*
X112266428Y-102898571D02*
X112409285Y-102946190D01*
X112456904Y-102993809D01*
X112504523Y-103089047D01*
X112504523Y-103231904D01*
X112456904Y-103327142D01*
X112409285Y-103374761D01*
X112314047Y-103422380D01*
X111933095Y-103422380D01*
X111933095Y-102422380D01*
X112266428Y-102422380D01*
X112361666Y-102470000D01*
X112409285Y-102517619D01*
X112456904Y-102612857D01*
X112456904Y-102708095D01*
X112409285Y-102803333D01*
X112361666Y-102850952D01*
X112266428Y-102898571D01*
X111933095Y-102898571D01*
%TO.C,Power*%
X129233809Y-109328780D02*
X129233809Y-108328780D01*
X129614761Y-108328780D01*
X129710000Y-108376400D01*
X129757619Y-108424019D01*
X129805238Y-108519257D01*
X129805238Y-108662114D01*
X129757619Y-108757352D01*
X129710000Y-108804971D01*
X129614761Y-108852590D01*
X129233809Y-108852590D01*
X130376666Y-109328780D02*
X130281428Y-109281161D01*
X130233809Y-109233542D01*
X130186190Y-109138304D01*
X130186190Y-108852590D01*
X130233809Y-108757352D01*
X130281428Y-108709733D01*
X130376666Y-108662114D01*
X130519523Y-108662114D01*
X130614761Y-108709733D01*
X130662380Y-108757352D01*
X130710000Y-108852590D01*
X130710000Y-109138304D01*
X130662380Y-109233542D01*
X130614761Y-109281161D01*
X130519523Y-109328780D01*
X130376666Y-109328780D01*
X131043333Y-108662114D02*
X131233809Y-109328780D01*
X131424285Y-108852590D01*
X131614761Y-109328780D01*
X131805238Y-108662114D01*
X132567142Y-109281161D02*
X132471904Y-109328780D01*
X132281428Y-109328780D01*
X132186190Y-109281161D01*
X132138571Y-109185923D01*
X132138571Y-108804971D01*
X132186190Y-108709733D01*
X132281428Y-108662114D01*
X132471904Y-108662114D01*
X132567142Y-108709733D01*
X132614761Y-108804971D01*
X132614761Y-108900209D01*
X132138571Y-108995447D01*
X133043333Y-109328780D02*
X133043333Y-108662114D01*
X133043333Y-108852590D02*
X133090952Y-108757352D01*
X133138571Y-108709733D01*
X133233809Y-108662114D01*
X133329047Y-108662114D01*
X127460000Y-105788780D02*
X127460000Y-106026876D01*
X127221904Y-105931638D02*
X127460000Y-106026876D01*
X127698095Y-105931638D01*
X127317142Y-106217352D02*
X127460000Y-106026876D01*
X127602857Y-106217352D01*
X134809523Y-104252380D02*
X134333333Y-104252380D01*
X134285714Y-104728571D01*
X134333333Y-104680952D01*
X134428571Y-104633333D01*
X134666666Y-104633333D01*
X134761904Y-104680952D01*
X134809523Y-104728571D01*
X134857142Y-104823809D01*
X134857142Y-105061904D01*
X134809523Y-105157142D01*
X134761904Y-105204761D01*
X134666666Y-105252380D01*
X134428571Y-105252380D01*
X134333333Y-105204761D01*
X134285714Y-105157142D01*
X135142857Y-104252380D02*
X135476190Y-105252380D01*
X135809523Y-104252380D01*
X126930952Y-105252380D02*
X126359523Y-105252380D01*
X126645238Y-105252380D02*
X126645238Y-104252380D01*
X126550000Y-104395238D01*
X126454761Y-104490476D01*
X126359523Y-104538095D01*
X127311904Y-104347619D02*
X127359523Y-104300000D01*
X127454761Y-104252380D01*
X127692857Y-104252380D01*
X127788095Y-104300000D01*
X127835714Y-104347619D01*
X127883333Y-104442857D01*
X127883333Y-104538095D01*
X127835714Y-104680952D01*
X127264285Y-105252380D01*
X127883333Y-105252380D01*
X128169047Y-104252380D02*
X128502380Y-105252380D01*
X128835714Y-104252380D01*
%TO.C,J1*%
X121352380Y-87533333D02*
X122066666Y-87533333D01*
X122209523Y-87580952D01*
X122304761Y-87676190D01*
X122352380Y-87819047D01*
X122352380Y-87914285D01*
X122352380Y-86533333D02*
X122352380Y-87104761D01*
X122352380Y-86819047D02*
X121352380Y-86819047D01*
X121495238Y-86914285D01*
X121590476Y-87009523D01*
X121638095Y-87104761D01*
X124152380Y-89514285D02*
X124152380Y-90085714D01*
X124152380Y-89800000D02*
X123152380Y-89800000D01*
X123295238Y-89895238D01*
X123390476Y-89990476D01*
X123438095Y-90085714D01*
X123152380Y-84933333D02*
X123152380Y-84314285D01*
X123533333Y-84647619D01*
X123533333Y-84504761D01*
X123580952Y-84409523D01*
X123628571Y-84361904D01*
X123723809Y-84314285D01*
X123961904Y-84314285D01*
X124057142Y-84361904D01*
X124104761Y-84409523D01*
X124152380Y-84504761D01*
X124152380Y-84790476D01*
X124104761Y-84885714D01*
X124057142Y-84933333D01*
%TO.C,U1*%
X118364095Y-88098380D02*
X118364095Y-88907904D01*
X118411714Y-89003142D01*
X118459333Y-89050761D01*
X118554571Y-89098380D01*
X118745047Y-89098380D01*
X118840285Y-89050761D01*
X118887904Y-89003142D01*
X118935523Y-88907904D01*
X118935523Y-88098380D01*
X119935523Y-89098380D02*
X119364095Y-89098380D01*
X119649809Y-89098380D02*
X119649809Y-88098380D01*
X119554571Y-88241238D01*
X119459333Y-88336476D01*
X119364095Y-88384095D01*
%TO.C,RN2*%
X120467523Y-104520380D02*
X120134190Y-104044190D01*
X119896095Y-104520380D02*
X119896095Y-103520380D01*
X120277047Y-103520380D01*
X120372285Y-103568000D01*
X120419904Y-103615619D01*
X120467523Y-103710857D01*
X120467523Y-103853714D01*
X120419904Y-103948952D01*
X120372285Y-103996571D01*
X120277047Y-104044190D01*
X119896095Y-104044190D01*
X120896095Y-104520380D02*
X120896095Y-103520380D01*
X121467523Y-104520380D01*
X121467523Y-103520380D01*
X121896095Y-103615619D02*
X121943714Y-103568000D01*
X122038952Y-103520380D01*
X122277047Y-103520380D01*
X122372285Y-103568000D01*
X122419904Y-103615619D01*
X122467523Y-103710857D01*
X122467523Y-103806095D01*
X122419904Y-103948952D01*
X121848476Y-104520380D01*
X122467523Y-104520380D01*
%TO.C,U2*%
X117988095Y-83752380D02*
X117988095Y-84561904D01*
X118035714Y-84657142D01*
X118083333Y-84704761D01*
X118178571Y-84752380D01*
X118369047Y-84752380D01*
X118464285Y-84704761D01*
X118511904Y-84657142D01*
X118559523Y-84561904D01*
X118559523Y-83752380D01*
X118988095Y-83847619D02*
X119035714Y-83800000D01*
X119130952Y-83752380D01*
X119369047Y-83752380D01*
X119464285Y-83800000D01*
X119511904Y-83847619D01*
X119559523Y-83942857D01*
X119559523Y-84038095D01*
X119511904Y-84180952D01*
X118940476Y-84752380D01*
X119559523Y-84752380D01*
%TO.C,*%
%TO.C,C6*%
X111333333Y-74357142D02*
X111285714Y-74404761D01*
X111142857Y-74452380D01*
X111047619Y-74452380D01*
X110904761Y-74404761D01*
X110809523Y-74309523D01*
X110761904Y-74214285D01*
X110714285Y-74023809D01*
X110714285Y-73880952D01*
X110761904Y-73690476D01*
X110809523Y-73595238D01*
X110904761Y-73500000D01*
X111047619Y-73452380D01*
X111142857Y-73452380D01*
X111285714Y-73500000D01*
X111333333Y-73547619D01*
X112190476Y-73452380D02*
X112000000Y-73452380D01*
X111904761Y-73500000D01*
X111857142Y-73547619D01*
X111761904Y-73690476D01*
X111714285Y-73880952D01*
X111714285Y-74261904D01*
X111761904Y-74357142D01*
X111809523Y-74404761D01*
X111904761Y-74452380D01*
X112095238Y-74452380D01*
X112190476Y-74404761D01*
X112238095Y-74357142D01*
X112285714Y-74261904D01*
X112285714Y-74023809D01*
X112238095Y-73928571D01*
X112190476Y-73880952D01*
X112095238Y-73833333D01*
X111904761Y-73833333D01*
X111809523Y-73880952D01*
X111761904Y-73928571D01*
X111714285Y-74023809D01*
%TO.C,PS2 Mouse*%
X106052380Y-84004761D02*
X105052380Y-84004761D01*
X105052380Y-83623809D01*
X105100000Y-83528571D01*
X105147619Y-83480952D01*
X105242857Y-83433333D01*
X105385714Y-83433333D01*
X105480952Y-83480952D01*
X105528571Y-83528571D01*
X105576190Y-83623809D01*
X105576190Y-84004761D01*
X106004761Y-83052380D02*
X106052380Y-82909523D01*
X106052380Y-82671428D01*
X106004761Y-82576190D01*
X105957142Y-82528571D01*
X105861904Y-82480952D01*
X105766666Y-82480952D01*
X105671428Y-82528571D01*
X105623809Y-82576190D01*
X105576190Y-82671428D01*
X105528571Y-82861904D01*
X105480952Y-82957142D01*
X105433333Y-83004761D01*
X105338095Y-83052380D01*
X105242857Y-83052380D01*
X105147619Y-83004761D01*
X105100000Y-82957142D01*
X105052380Y-82861904D01*
X105052380Y-82623809D01*
X105100000Y-82480952D01*
X105147619Y-82099999D02*
X105100000Y-82052380D01*
X105052380Y-81957142D01*
X105052380Y-81719047D01*
X105100000Y-81623809D01*
X105147619Y-81576190D01*
X105242857Y-81528571D01*
X105338095Y-81528571D01*
X105480952Y-81576190D01*
X106052380Y-82147619D01*
X106052380Y-81528571D01*
X106052380Y-80338095D02*
X105052380Y-80338095D01*
X105766666Y-80004761D01*
X105052380Y-79671428D01*
X106052380Y-79671428D01*
X106052380Y-79052380D02*
X106004761Y-79147619D01*
X105957142Y-79195238D01*
X105861904Y-79242857D01*
X105576190Y-79242857D01*
X105480952Y-79195238D01*
X105433333Y-79147619D01*
X105385714Y-79052380D01*
X105385714Y-78909523D01*
X105433333Y-78814285D01*
X105480952Y-78766666D01*
X105576190Y-78719047D01*
X105861904Y-78719047D01*
X105957142Y-78766666D01*
X106004761Y-78814285D01*
X106052380Y-78909523D01*
X106052380Y-79052380D01*
X105385714Y-77861904D02*
X106052380Y-77861904D01*
X105385714Y-78290476D02*
X105909523Y-78290476D01*
X106004761Y-78242857D01*
X106052380Y-78147619D01*
X106052380Y-78004761D01*
X106004761Y-77909523D01*
X105957142Y-77861904D01*
X106004761Y-77433333D02*
X106052380Y-77338095D01*
X106052380Y-77147619D01*
X106004761Y-77052380D01*
X105909523Y-77004761D01*
X105861904Y-77004761D01*
X105766666Y-77052380D01*
X105719047Y-77147619D01*
X105719047Y-77290476D01*
X105671428Y-77385714D01*
X105576190Y-77433333D01*
X105528571Y-77433333D01*
X105433333Y-77385714D01*
X105385714Y-77290476D01*
X105385714Y-77147619D01*
X105433333Y-77052380D01*
X106004761Y-76195238D02*
X106052380Y-76290476D01*
X106052380Y-76480952D01*
X106004761Y-76576190D01*
X105909523Y-76623809D01*
X105528571Y-76623809D01*
X105433333Y-76576190D01*
X105385714Y-76480952D01*
X105385714Y-76290476D01*
X105433333Y-76195238D01*
X105528571Y-76147619D01*
X105623809Y-76147619D01*
X105719047Y-76623809D01*
%TO.C,C10*%
X115357142Y-70657142D02*
X115309523Y-70704761D01*
X115166666Y-70752380D01*
X115071428Y-70752380D01*
X114928571Y-70704761D01*
X114833333Y-70609523D01*
X114785714Y-70514285D01*
X114738095Y-70323809D01*
X114738095Y-70180952D01*
X114785714Y-69990476D01*
X114833333Y-69895238D01*
X114928571Y-69800000D01*
X115071428Y-69752380D01*
X115166666Y-69752380D01*
X115309523Y-69800000D01*
X115357142Y-69847619D01*
X116309523Y-70752380D02*
X115738095Y-70752380D01*
X116023809Y-70752380D02*
X116023809Y-69752380D01*
X115928571Y-69895238D01*
X115833333Y-69990476D01*
X115738095Y-70038095D01*
X116928571Y-69752380D02*
X117023809Y-69752380D01*
X117119047Y-69800000D01*
X117166666Y-69847619D01*
X117214285Y-69942857D01*
X117261904Y-70133333D01*
X117261904Y-70371428D01*
X117214285Y-70561904D01*
X117166666Y-70657142D01*
X117119047Y-70704761D01*
X117023809Y-70752380D01*
X116928571Y-70752380D01*
X116833333Y-70704761D01*
X116785714Y-70657142D01*
X116738095Y-70561904D01*
X116690476Y-70371428D01*
X116690476Y-70133333D01*
X116738095Y-69942857D01*
X116785714Y-69847619D01*
X116833333Y-69800000D01*
X116928571Y-69752380D01*
%TO.C,C2*%
X117689333Y-112879142D02*
X117641714Y-112926761D01*
X117498857Y-112974380D01*
X117403619Y-112974380D01*
X117260761Y-112926761D01*
X117165523Y-112831523D01*
X117117904Y-112736285D01*
X117070285Y-112545809D01*
X117070285Y-112402952D01*
X117117904Y-112212476D01*
X117165523Y-112117238D01*
X117260761Y-112022000D01*
X117403619Y-111974380D01*
X117498857Y-111974380D01*
X117641714Y-112022000D01*
X117689333Y-112069619D01*
X118070285Y-112069619D02*
X118117904Y-112022000D01*
X118213142Y-111974380D01*
X118451238Y-111974380D01*
X118546476Y-112022000D01*
X118594095Y-112069619D01*
X118641714Y-112164857D01*
X118641714Y-112260095D01*
X118594095Y-112402952D01*
X118022666Y-112974380D01*
X118641714Y-112974380D01*
%TO.C,Serial Mouse*%
X132904761Y-88766666D02*
X132952380Y-88623809D01*
X132952380Y-88385714D01*
X132904761Y-88290476D01*
X132857142Y-88242857D01*
X132761904Y-88195238D01*
X132666666Y-88195238D01*
X132571428Y-88242857D01*
X132523809Y-88290476D01*
X132476190Y-88385714D01*
X132428571Y-88576190D01*
X132380952Y-88671428D01*
X132333333Y-88719047D01*
X132238095Y-88766666D01*
X132142857Y-88766666D01*
X132047619Y-88719047D01*
X132000000Y-88671428D01*
X131952380Y-88576190D01*
X131952380Y-88338095D01*
X132000000Y-88195238D01*
X132904761Y-87385714D02*
X132952380Y-87480952D01*
X132952380Y-87671428D01*
X132904761Y-87766666D01*
X132809523Y-87814285D01*
X132428571Y-87814285D01*
X132333333Y-87766666D01*
X132285714Y-87671428D01*
X132285714Y-87480952D01*
X132333333Y-87385714D01*
X132428571Y-87338095D01*
X132523809Y-87338095D01*
X132619047Y-87814285D01*
X132952380Y-86909523D02*
X132285714Y-86909523D01*
X132476190Y-86909523D02*
X132380952Y-86861904D01*
X132333333Y-86814285D01*
X132285714Y-86719047D01*
X132285714Y-86623809D01*
X132952380Y-86290476D02*
X132285714Y-86290476D01*
X131952380Y-86290476D02*
X132000000Y-86338095D01*
X132047619Y-86290476D01*
X132000000Y-86242857D01*
X131952380Y-86290476D01*
X132047619Y-86290476D01*
X132952380Y-85385714D02*
X132428571Y-85385714D01*
X132333333Y-85433333D01*
X132285714Y-85528571D01*
X132285714Y-85719047D01*
X132333333Y-85814285D01*
X132904761Y-85385714D02*
X132952380Y-85480952D01*
X132952380Y-85719047D01*
X132904761Y-85814285D01*
X132809523Y-85861904D01*
X132714285Y-85861904D01*
X132619047Y-85814285D01*
X132571428Y-85719047D01*
X132571428Y-85480952D01*
X132523809Y-85385714D01*
X132952380Y-84766666D02*
X132904761Y-84861904D01*
X132809523Y-84909523D01*
X131952380Y-84909523D01*
X132952380Y-83623809D02*
X131952380Y-83623809D01*
X132666666Y-83290476D01*
X131952380Y-82957142D01*
X132952380Y-82957142D01*
X132952380Y-82338095D02*
X132904761Y-82433333D01*
X132857142Y-82480952D01*
X132761904Y-82528571D01*
X132476190Y-82528571D01*
X132380952Y-82480952D01*
X132333333Y-82433333D01*
X132285714Y-82338095D01*
X132285714Y-82195238D01*
X132333333Y-82100000D01*
X132380952Y-82052380D01*
X132476190Y-82004761D01*
X132761904Y-82004761D01*
X132857142Y-82052380D01*
X132904761Y-82100000D01*
X132952380Y-82195238D01*
X132952380Y-82338095D01*
X132285714Y-81147619D02*
X132952380Y-81147619D01*
X132285714Y-81576190D02*
X132809523Y-81576190D01*
X132904761Y-81528571D01*
X132952380Y-81433333D01*
X132952380Y-81290476D01*
X132904761Y-81195238D01*
X132857142Y-81147619D01*
X132904761Y-80719047D02*
X132952380Y-80623809D01*
X132952380Y-80433333D01*
X132904761Y-80338095D01*
X132809523Y-80290476D01*
X132761904Y-80290476D01*
X132666666Y-80338095D01*
X132619047Y-80433333D01*
X132619047Y-80576190D01*
X132571428Y-80671428D01*
X132476190Y-80719047D01*
X132428571Y-80719047D01*
X132333333Y-80671428D01*
X132285714Y-80576190D01*
X132285714Y-80433333D01*
X132333333Y-80338095D01*
X132904761Y-79480952D02*
X132952380Y-79576190D01*
X132952380Y-79766666D01*
X132904761Y-79861904D01*
X132809523Y-79909523D01*
X132428571Y-79909523D01*
X132333333Y-79861904D01*
X132285714Y-79766666D01*
X132285714Y-79576190D01*
X132333333Y-79480952D01*
X132428571Y-79433333D01*
X132523809Y-79433333D01*
X132619047Y-79909523D01*
%TO.C,C3*%
X122233333Y-101589142D02*
X122185714Y-101636761D01*
X122042857Y-101684380D01*
X121947619Y-101684380D01*
X121804761Y-101636761D01*
X121709523Y-101541523D01*
X121661904Y-101446285D01*
X121614285Y-101255809D01*
X121614285Y-101112952D01*
X121661904Y-100922476D01*
X121709523Y-100827238D01*
X121804761Y-100732000D01*
X121947619Y-100684380D01*
X122042857Y-100684380D01*
X122185714Y-100732000D01*
X122233333Y-100779619D01*
X122566666Y-100684380D02*
X123185714Y-100684380D01*
X122852380Y-101065333D01*
X122995238Y-101065333D01*
X123090476Y-101112952D01*
X123138095Y-101160571D01*
X123185714Y-101255809D01*
X123185714Y-101493904D01*
X123138095Y-101589142D01*
X123090476Y-101636761D01*
X122995238Y-101684380D01*
X122709523Y-101684380D01*
X122614285Y-101636761D01*
X122566666Y-101589142D01*
%TO.C,RN1*%
X112852380Y-88690476D02*
X112376190Y-89023809D01*
X112852380Y-89261904D02*
X111852380Y-89261904D01*
X111852380Y-88880952D01*
X111900000Y-88785714D01*
X111947619Y-88738095D01*
X112042857Y-88690476D01*
X112185714Y-88690476D01*
X112280952Y-88738095D01*
X112328571Y-88785714D01*
X112376190Y-88880952D01*
X112376190Y-89261904D01*
X112852380Y-88261904D02*
X111852380Y-88261904D01*
X112852380Y-87690476D01*
X111852380Y-87690476D01*
X112852380Y-86690476D02*
X112852380Y-87261904D01*
X112852380Y-86976190D02*
X111852380Y-86976190D01*
X111995238Y-87071428D01*
X112090476Y-87166666D01*
X112138095Y-87261904D01*
%TO.C,C8*%
X111333333Y-77857142D02*
X111285714Y-77904761D01*
X111142857Y-77952380D01*
X111047619Y-77952380D01*
X110904761Y-77904761D01*
X110809523Y-77809523D01*
X110761904Y-77714285D01*
X110714285Y-77523809D01*
X110714285Y-77380952D01*
X110761904Y-77190476D01*
X110809523Y-77095238D01*
X110904761Y-77000000D01*
X111047619Y-76952380D01*
X111142857Y-76952380D01*
X111285714Y-77000000D01*
X111333333Y-77047619D01*
X111904761Y-77380952D02*
X111809523Y-77333333D01*
X111761904Y-77285714D01*
X111714285Y-77190476D01*
X111714285Y-77142857D01*
X111761904Y-77047619D01*
X111809523Y-77000000D01*
X111904761Y-76952380D01*
X112095238Y-76952380D01*
X112190476Y-77000000D01*
X112238095Y-77047619D01*
X112285714Y-77142857D01*
X112285714Y-77190476D01*
X112238095Y-77285714D01*
X112190476Y-77333333D01*
X112095238Y-77380952D01*
X111904761Y-77380952D01*
X111809523Y-77428571D01*
X111761904Y-77476190D01*
X111714285Y-77571428D01*
X111714285Y-77761904D01*
X111761904Y-77857142D01*
X111809523Y-77904761D01*
X111904761Y-77952380D01*
X112095238Y-77952380D01*
X112190476Y-77904761D01*
X112238095Y-77857142D01*
X112285714Y-77761904D01*
X112285714Y-77571428D01*
X112238095Y-77476190D01*
X112190476Y-77428571D01*
X112095238Y-77380952D01*
%TO.C,F1*%
X123716666Y-116078571D02*
X123383333Y-116078571D01*
X123383333Y-116602380D02*
X123383333Y-115602380D01*
X123859523Y-115602380D01*
X124764285Y-116602380D02*
X124192857Y-116602380D01*
X124478571Y-116602380D02*
X124478571Y-115602380D01*
X124383333Y-115745238D01*
X124288095Y-115840476D01*
X124192857Y-115888095D01*
%TO.C,Switch*%
X97885714Y-101884761D02*
X98028571Y-101932380D01*
X98266666Y-101932380D01*
X98361904Y-101884761D01*
X98409523Y-101837142D01*
X98457142Y-101741904D01*
X98457142Y-101646666D01*
X98409523Y-101551428D01*
X98361904Y-101503809D01*
X98266666Y-101456190D01*
X98076190Y-101408571D01*
X97980952Y-101360952D01*
X97933333Y-101313333D01*
X97885714Y-101218095D01*
X97885714Y-101122857D01*
X97933333Y-101027619D01*
X97980952Y-100980000D01*
X98076190Y-100932380D01*
X98314285Y-100932380D01*
X98457142Y-100980000D01*
X98790476Y-101265714D02*
X98980952Y-101932380D01*
X99171428Y-101456190D01*
X99361904Y-101932380D01*
X99552380Y-101265714D01*
X99933333Y-101932380D02*
X99933333Y-101265714D01*
X99933333Y-100932380D02*
X99885714Y-100980000D01*
X99933333Y-101027619D01*
X99980952Y-100980000D01*
X99933333Y-100932380D01*
X99933333Y-101027619D01*
X100266666Y-101265714D02*
X100647619Y-101265714D01*
X100409523Y-100932380D02*
X100409523Y-101789523D01*
X100457142Y-101884761D01*
X100552380Y-101932380D01*
X100647619Y-101932380D01*
X101409523Y-101884761D02*
X101314285Y-101932380D01*
X101123809Y-101932380D01*
X101028571Y-101884761D01*
X100980952Y-101837142D01*
X100933333Y-101741904D01*
X100933333Y-101456190D01*
X100980952Y-101360952D01*
X101028571Y-101313333D01*
X101123809Y-101265714D01*
X101314285Y-101265714D01*
X101409523Y-101313333D01*
X101838095Y-101932380D02*
X101838095Y-100932380D01*
X102266666Y-101932380D02*
X102266666Y-101408571D01*
X102219047Y-101313333D01*
X102123809Y-101265714D01*
X101980952Y-101265714D01*
X101885714Y-101313333D01*
X101838095Y-101360952D01*
D11*
%TO.C,C9*%
X113766000Y-80795420D02*
X113766000Y-81076580D01*
X112746000Y-80795420D02*
X112746000Y-81076580D01*
%TO.C,EXT*%
X103245000Y-72370000D02*
X103245000Y-87730000D01*
X100645000Y-74970000D02*
X100645000Y-72370000D01*
X98045000Y-73700000D02*
X98045000Y-72370000D01*
X98045000Y-74970000D02*
X98045000Y-87730000D01*
X98045000Y-74970000D02*
X100645000Y-74970000D01*
X98045000Y-72370000D02*
X99375000Y-72370000D01*
X100645000Y-72370000D02*
X103245000Y-72370000D01*
X98045000Y-87730000D02*
X103245000Y-87730000D01*
%TO.C,C4*%
X124690000Y-95865580D02*
X124690000Y-95584420D01*
X125710000Y-95865580D02*
X125710000Y-95584420D01*
%TO.C,C7*%
X120359420Y-71190000D02*
X120640580Y-71190000D01*
X120359420Y-72210000D02*
X120640580Y-72210000D01*
%TO.C,Keyboard*%
X133320000Y-91675000D02*
X133320000Y-90345000D01*
X133320000Y-92945000D02*
X135980000Y-92945000D01*
X133320000Y-90345000D02*
X134650000Y-90345000D01*
X133320000Y-92945000D02*
X133320000Y-103165000D01*
X133320000Y-103165000D02*
X135980000Y-103165000D01*
X135980000Y-92945000D02*
X135980000Y-103165000D01*
%TO.C,D1*%
X98550000Y-93450000D02*
X98550000Y-91450000D01*
X98550000Y-91450000D02*
G75*
G03*
X98550000Y-93450000I0J-1000000D01*
G01*
%TO.C,RN3*%
X108718000Y-97992000D02*
X106618000Y-97992000D01*
X108718000Y-92652000D02*
X106618000Y-92652000D01*
%TO.C,C1*%
X118731420Y-116842000D02*
X119012580Y-116842000D01*
X118731420Y-115822000D02*
X119012580Y-115822000D01*
%TO.C,USB*%
X108595000Y-103970000D02*
X109925000Y-103970000D01*
X111195000Y-106570000D02*
X111195000Y-103970000D01*
X111195000Y-103970000D02*
X113795000Y-103970000D01*
X108595000Y-106570000D02*
X108595000Y-114250000D01*
X108595000Y-114250000D02*
X113795000Y-114250000D01*
X113795000Y-103970000D02*
X113795000Y-114250000D01*
X108595000Y-105300000D02*
X108595000Y-103970000D01*
X108595000Y-106570000D02*
X111195000Y-106570000D01*
%TO.C,Power*%
X136340800Y-117766400D02*
X136340800Y-103999600D01*
X136340800Y-103999600D02*
X126079200Y-103999600D01*
X126079200Y-103999600D02*
X126079200Y-117766400D01*
X126079200Y-117766400D02*
X136340800Y-117766400D01*
X127841000Y-108241400D02*
G75*
G03*
X127841000Y-108241400I-381000J0D01*
G01*
%TO.C,J1*%
X124700000Y-89250000D02*
X122700000Y-89250000D01*
X124700000Y-85150000D02*
X124700000Y-89250000D01*
X122700000Y-85150000D02*
X124700000Y-85150000D01*
X122700000Y-89250000D02*
X122700000Y-85150000D01*
%TO.C,U1*%
X120602000Y-92435000D02*
X120602000Y-97435000D01*
X114602000Y-91435000D02*
X119602000Y-91435000D01*
X120602000Y-97435000D02*
X114602000Y-97435000D01*
X119602000Y-91435000D02*
X120602000Y-92435000D01*
X114602000Y-97435000D02*
X114602000Y-91435000D01*
D12*
X120507000Y-88935000D02*
G75*
G03*
X120507000Y-88935000I-155000J0D01*
G01*
D11*
%TO.C,RN2*%
X120080000Y-110620000D02*
X122180000Y-110620000D01*
X120080000Y-105280000D02*
X122180000Y-105280000D01*
%TO.C,U2*%
X118750000Y-73173800D02*
X120700000Y-73173800D01*
X118750000Y-73173800D02*
X115300000Y-73173800D01*
X118750000Y-83293800D02*
X120700000Y-83293800D01*
X118750000Y-83293800D02*
X116800000Y-83293800D01*
%TO.C,C6*%
X113760000Y-73964580D02*
X113760000Y-73683420D01*
X112740000Y-73964580D02*
X112740000Y-73683420D01*
%TO.C,PS2 Mouse*%
X109230000Y-73070000D02*
X109230000Y-83290000D01*
X106570000Y-83290000D02*
X109230000Y-83290000D01*
X106570000Y-70470000D02*
X107900000Y-70470000D01*
X106570000Y-73070000D02*
X109230000Y-73070000D01*
X106570000Y-73070000D02*
X106570000Y-83290000D01*
X106570000Y-71800000D02*
X106570000Y-70470000D01*
%TO.C,C10*%
X115909420Y-72225800D02*
X116190580Y-72225800D01*
X115909420Y-71205800D02*
X116190580Y-71205800D01*
%TO.C,C2*%
X118731420Y-113536000D02*
X119012580Y-113536000D01*
X118731420Y-114556000D02*
X119012580Y-114556000D01*
%TO.C,Serial Mouse*%
X128305000Y-92355000D02*
X125705000Y-92355000D01*
X130905000Y-89755000D02*
X128305000Y-89755000D01*
X130905000Y-92355000D02*
X129575000Y-92355000D01*
X130905000Y-89755000D02*
X130905000Y-79535000D01*
X125705000Y-92355000D02*
X125705000Y-79535000D01*
X130905000Y-79535000D02*
X125705000Y-79535000D01*
X128305000Y-89755000D02*
X128305000Y-92355000D01*
X130905000Y-91025000D02*
X130905000Y-92355000D01*
%TO.C,C3*%
X121890000Y-99340580D02*
X121890000Y-99059420D01*
X122910000Y-99340580D02*
X122910000Y-99059420D01*
%TO.C,RN1*%
X111570000Y-89050000D02*
X111570000Y-86950000D01*
X106230000Y-89050000D02*
X106230000Y-86950000D01*
%TO.C,C8*%
X112740000Y-77520580D02*
X112740000Y-77239420D01*
X113760000Y-77520580D02*
X113760000Y-77239420D01*
%TO.C,F1*%
X121010000Y-115983936D02*
X121010000Y-117188064D01*
X122830000Y-115983936D02*
X122830000Y-117188064D01*
%TO.C,Switch*%
X101430000Y-95280000D02*
X98770000Y-95280000D01*
X101430000Y-97880000D02*
X98770000Y-97880000D01*
X101430000Y-99150000D02*
X101430000Y-100480000D01*
X98770000Y-97880000D02*
X98770000Y-95280000D01*
X101430000Y-97880000D02*
X101430000Y-95280000D01*
X101430000Y-100480000D02*
X100100000Y-100480000D01*
%TD*%
M02*
