M48
; DRILL file {KiCad (6.0.9-0)} date Saturday, January 28, 2023 at 10:02:21 PM
; FORMAT={-:-/ absolute / metric / decimal}
; #@! TF.CreationDate,2023-01-28T22:02:21-06:00
; #@! TF.GenerationSoftware,Kicad,Pcbnew,(6.0.9-0)
; #@! TF.FileFunction,Plated,1,2,PTH
FMAT,2
METRIC
; #@! TA.AperFunction,Plated,PTH,ViaDrill
T1C0.400
; #@! TA.AperFunction,Plated,PTH,ComponentDrill
T2C1.000
; #@! TA.AperFunction,Plated,PTH,ComponentDrill
T3C1.016
; #@! TA.AperFunction,Plated,PTH,ComponentDrill
T4C2.200
%
G90
G05
T1
X97.8Y-71.85
X100.1Y-110.05
X102.45Y-99.15
X103.35Y-96.6
X103.5Y-87.45
X103.6Y-83.3
X104.65Y-75.7
X104.913Y-80.2
X104.913Y-81.196
X104.913Y-82.148
X104.913Y-83.1
X105.182Y-78.618
X105.384Y-85.037
X105.877Y-84.223
X105.95Y-91.35
X106.223Y-85.54
X109.95Y-76.9
X110.2Y-91.4
X110.7Y-95.85
X111.76Y-94.234
X111.811Y-81.711
X111.9Y-100.6
X112.014Y-90.424
X113.764Y-71.716
X114.046Y-90.424
X114.4Y-112.3
X114.8Y-108.1
X115.3Y-92.4
X116.6Y-96.0
X116.84Y-88.76
X116.84Y-92.202
X117.0Y-68.25
X117.4Y-86.95
X117.45Y-94.5
X118.11Y-115.15
X118.306Y-71.728
X118.4Y-91.6
X118.75Y-101.75
X119.454Y-76.948
X119.504Y-78.269
X119.634Y-102.616
X119.634Y-103.632
X119.7Y-88.4
X120.05Y-120.2
X120.1Y-93.3
X120.396Y-94.488
X120.4Y-88.9
X122.4Y-90.8
X122.892Y-76.92
X123.0Y-80.0
X123.1Y-101.287
X123.19Y-102.616
X123.19Y-103.632
X123.2Y-91.2
X123.4Y-92.9
X123.4Y-93.8
X123.6Y-92.0
X123.95Y-78.35
X124.6Y-113.5
X125.25Y-84.05
X125.3Y-98.1
X125.35Y-78.1
X128.45Y-70.25
X128.45Y-99.2
X130.85Y-84.8
X131.196Y-107.6
X131.3Y-101.25
X133.1Y-97.95
X133.85Y-75.1
T2
X99.375Y-73.7
X99.375Y-76.24
X99.375Y-78.78
X99.375Y-81.32
X99.375Y-83.86
X99.375Y-86.4
X100.1Y-96.61
X100.1Y-99.15
X101.915Y-73.7
X101.915Y-76.24
X101.915Y-78.78
X101.915Y-81.32
X101.915Y-83.86
X101.915Y-86.4
X107.9Y-71.8
X107.9Y-74.34
X107.9Y-76.88
X107.9Y-79.42
X107.9Y-81.96
X109.925Y-105.3
X109.925Y-107.84
X109.925Y-110.38
X109.925Y-112.92
X112.465Y-105.3
X112.465Y-107.84
X112.465Y-110.38
X112.465Y-112.92
X127.035Y-80.865
X127.035Y-83.405
X127.035Y-85.945
X127.035Y-88.485
X127.035Y-91.025
X129.575Y-80.865
X129.575Y-83.405
X129.575Y-85.945
X129.575Y-88.485
X129.575Y-91.025
X134.65Y-91.675
X134.65Y-94.215
X134.65Y-96.755
X134.65Y-99.295
X134.65Y-101.835
T3
X127.46Y-106.336
X129.96Y-106.336
X132.46Y-106.336
X134.96Y-106.336
T4
X99.35Y-120.2
X99.7Y-69.95
X134.6Y-69.85
X134.75Y-120.1
T0
M30
