%TF.GenerationSoftware,KiCad,Pcbnew,(6.0.9-0)*%
%TF.CreationDate,2023-01-28T22:02:16-06:00*%
%TF.ProjectId,ps2usb,70733275-7362-42e6-9b69-6361645f7063,rev?*%
%TF.SameCoordinates,Original*%
%TF.FileFunction,Copper,L2,Bot*%
%TF.FilePolarity,Positive*%
%FSLAX46Y46*%
G04 Gerber Fmt 4.6, Leading zero omitted, Abs format (unit mm)*
G04 Created by KiCad (PCBNEW (6.0.9-0)) date 2023-01-28 22:02:16*
%MOMM*%
%LPD*%
G01*
G04 APERTURE LIST*
%TA.AperFunction,ComponentPad*%
%ADD10C,2.600000*%
%TD*%
%TA.AperFunction,ComponentPad*%
%ADD11R,1.700000X1.700000*%
%TD*%
%TA.AperFunction,ComponentPad*%
%ADD12O,1.700000X1.700000*%
%TD*%
%TA.AperFunction,ComponentPad*%
%ADD13C,1.524000*%
%TD*%
%TA.AperFunction,ViaPad*%
%ADD14C,0.800000*%
%TD*%
%TA.AperFunction,Conductor*%
%ADD15C,0.254000*%
%TD*%
%TA.AperFunction,Conductor*%
%ADD16C,0.250000*%
%TD*%
%TA.AperFunction,Conductor*%
%ADD17C,0.152400*%
%TD*%
%TA.AperFunction,Conductor*%
%ADD18C,0.889000*%
%TD*%
G04 APERTURE END LIST*
D10*
%TO.P,REF\u002A\u002A,1*%
%TO.N,N/C*%
X134750000Y-120100000D03*
%TD*%
D11*
%TO.P,EXT,1,Pin_1*%
%TO.N,GND*%
X99375000Y-73700000D03*
D12*
%TO.P,EXT,2,Pin_2*%
%TO.N,+5V*%
X101915000Y-73700000D03*
%TO.P,EXT,3,Pin_3*%
%TO.N,/EXT1*%
X99375000Y-76240000D03*
%TO.P,EXT,4,Pin_4*%
%TO.N,/EXT2*%
X101915000Y-76240000D03*
%TO.P,EXT,5,Pin_5*%
%TO.N,/EXT3*%
X99375000Y-78780000D03*
%TO.P,EXT,6,Pin_6*%
%TO.N,/EXT4*%
X101915000Y-78780000D03*
%TO.P,EXT,7,Pin_7*%
%TO.N,/EXT5*%
X99375000Y-81320000D03*
%TO.P,EXT,8,Pin_8*%
%TO.N,/EXT6*%
X101915000Y-81320000D03*
%TO.P,EXT,9,Pin_9*%
%TO.N,/EXT7*%
X99375000Y-83860000D03*
%TO.P,EXT,10,Pin_10*%
%TO.N,/EXT8*%
X101915000Y-83860000D03*
%TO.P,EXT,11,Pin_11*%
%TO.N,+3.3V*%
X99375000Y-86400000D03*
%TO.P,EXT,12,Pin_12*%
%TO.N,GND*%
X101915000Y-86400000D03*
%TD*%
%TO.P,Keyboard,5*%
%TO.N,/DIN2-8*%
X134650000Y-101835000D03*
%TO.P,Keyboard,4,4*%
%TO.N,/DIN2-2*%
X134650000Y-99295000D03*
%TO.P,Keyboard,3,3*%
%TO.N,GND*%
X134650000Y-96755000D03*
%TO.P,Keyboard,2,2*%
%TO.N,/DIN2-6*%
X134650000Y-94215000D03*
D11*
%TO.P,Keyboard,1,1*%
%TO.N,/DIN2-1*%
X134650000Y-91675000D03*
%TD*%
D10*
%TO.P,REF\u002A\u002A,1*%
%TO.N,N/C*%
X99350000Y-120200000D03*
%TD*%
D11*
%TO.P,USB,1*%
%TO.N,+5V*%
X109925000Y-105300000D03*
D12*
%TO.P,USB,2*%
X112465000Y-105300000D03*
%TO.P,USB,3*%
%TO.N,Net-(J2-Pad2B)*%
X109925000Y-107840000D03*
%TO.P,USB,4*%
%TO.N,Net-(J2-Pad2A)*%
X112465000Y-107840000D03*
%TO.P,USB,5*%
%TO.N,Net-(J2-Pad3B)*%
X109925000Y-110380000D03*
%TO.P,USB,6*%
%TO.N,Net-(J2-Pad3A)*%
X112465000Y-110380000D03*
%TO.P,USB,7*%
%TO.N,GND*%
X109925000Y-112920000D03*
%TO.P,USB,8*%
X112465000Y-112920000D03*
%TD*%
D10*
%TO.P,REF\u002A\u002A,1*%
%TO.N,N/C*%
X99700000Y-69950000D03*
%TD*%
D13*
%TO.P,Power,1*%
%TO.N,N/C*%
X127460000Y-106336400D03*
%TO.P,Power,2*%
%TO.N,GND*%
X129960000Y-106336400D03*
%TO.P,Power,3*%
X132460000Y-106336400D03*
%TO.P,Power,4*%
%TO.N,Net-(F1-Pad2)*%
X134960000Y-106336400D03*
%TD*%
D11*
%TO.P,PS2 Mouse,1,1*%
%TO.N,/DIN1-1*%
X107900000Y-71800000D03*
D12*
%TO.P,PS2 Mouse,2,2*%
%TO.N,/DIN1-6*%
X107900000Y-74340000D03*
%TO.P,PS2 Mouse,3,3*%
%TO.N,GND*%
X107900000Y-76880000D03*
%TO.P,PS2 Mouse,4,4*%
%TO.N,/DIN1-2*%
X107900000Y-79420000D03*
%TO.P,PS2 Mouse,5*%
%TO.N,/DIN1-8*%
X107900000Y-81960000D03*
%TD*%
%TO.P,Serial Mouse,10*%
%TO.N,N/C*%
X127035000Y-80865000D03*
%TO.P,Serial Mouse,9,9*%
%TO.N,unconnected-(J4-Pad9)*%
X129575000Y-80865000D03*
%TO.P,Serial Mouse,8,8*%
%TO.N,/CTS_232*%
X127035000Y-83405000D03*
%TO.P,Serial Mouse,7,7*%
%TO.N,/RTS_232*%
X129575000Y-83405000D03*
%TO.P,Serial Mouse,6,6*%
%TO.N,unconnected-(J4-Pad6)*%
X127035000Y-85945000D03*
%TO.P,Serial Mouse,5,5*%
%TO.N,GND*%
X129575000Y-85945000D03*
%TO.P,Serial Mouse,4,4*%
%TO.N,/DTR_232*%
X127035000Y-88485000D03*
%TO.P,Serial Mouse,3,3*%
%TO.N,unconnected-(J4-Pad3)*%
X129575000Y-88485000D03*
%TO.P,Serial Mouse,2,2*%
%TO.N,/RXD_232*%
X127035000Y-91025000D03*
D11*
%TO.P,Serial Mouse,1,1*%
%TO.N,unconnected-(J4-Pad1)*%
X129575000Y-91025000D03*
%TD*%
D10*
%TO.P,REF\u002A\u002A,1*%
%TO.N,N/C*%
X134600000Y-69850000D03*
%TD*%
D11*
%TO.P,Switch,1*%
%TO.N,GND*%
X100100000Y-99150000D03*
D12*
%TO.P,Switch,2*%
%TO.N,Net-(S1-Pad2)*%
X100100000Y-96610000D03*
%TD*%
D14*
%TO.N,/RTS_232*%
X122891973Y-76919900D03*
X119453600Y-76948200D03*
%TO.N,GND*%
X97800000Y-71850000D03*
X102450000Y-99150000D03*
X109950000Y-76900000D03*
X130850000Y-84800000D03*
X133100000Y-97950000D03*
X128450000Y-70250000D03*
X133850000Y-75100000D03*
X100100000Y-110050000D03*
X128450000Y-99200000D03*
%TO.N,/EXT2*%
X105877279Y-84222721D03*
%TO.N,GND*%
X103600000Y-83300000D03*
%TO.N,/EXT7*%
X106223100Y-85539669D03*
%TO.N,/EXT8*%
X105383964Y-85036819D03*
%TO.N,/EXT5*%
X104913500Y-82148097D03*
%TO.N,GND*%
X118306327Y-71728484D03*
X111900000Y-100600000D03*
X117000000Y-68250000D03*
X110200000Y-91400000D03*
X123000000Y-80000000D03*
X123100000Y-101286854D03*
X118110000Y-115150000D03*
X105950000Y-91350000D03*
X115300000Y-92400000D03*
X104650000Y-75700000D03*
X116600000Y-96000000D03*
X124600000Y-113500000D03*
X118400000Y-91600000D03*
X131300000Y-101250000D03*
X111811000Y-81711000D03*
X131196400Y-107600000D03*
X117400000Y-86950000D03*
X125250000Y-84050000D03*
X120050000Y-120200000D03*
X103500000Y-87450000D03*
X111760000Y-94234000D03*
X114400000Y-112300000D03*
X114800000Y-108100000D03*
X125350000Y-78100000D03*
X113764000Y-71715800D03*
X118750000Y-101750000D03*
X125300000Y-98100000D03*
%TO.N,+5V*%
X119634000Y-102616000D03*
X123190000Y-102616000D03*
X119634000Y-103632000D03*
X123190000Y-103632000D03*
%TO.N,Net-(S1-Pad2)*%
X110700000Y-95850000D03*
X103350000Y-96600000D03*
%TO.N,/CTS_232*%
X123950000Y-78350000D03*
X119504400Y-78269000D03*
%TO.N,+3.3V*%
X120396000Y-94488000D03*
X112014000Y-90424000D03*
X117450000Y-94500000D03*
X114046000Y-90424000D03*
%TO.N,/DTR_MCU*%
X116840000Y-92202000D03*
X116840000Y-88760000D03*
%TO.N,/EXT1*%
X105181634Y-78618366D03*
X123400000Y-93800000D03*
%TO.N,/EXT2*%
X120100000Y-93300000D03*
%TO.N,/EXT3*%
X123400000Y-92900000D03*
X104913500Y-80200000D03*
%TO.N,/EXT4*%
X123600000Y-92000000D03*
X104913500Y-81196194D03*
%TO.N,/EXT5*%
X123200000Y-91200000D03*
%TO.N,/EXT6*%
X104913500Y-83100000D03*
X122400000Y-90800000D03*
%TO.N,/EXT7*%
X120400000Y-88900000D03*
%TO.N,/EXT8*%
X119700000Y-88400000D03*
%TD*%
D15*
%TO.N,Net-(S1-Pad2)*%
X103350000Y-96600000D02*
X103400000Y-96650000D01*
X108620000Y-95850000D02*
X110700000Y-95850000D01*
X103400000Y-96650000D02*
X107820000Y-96650000D01*
X107820000Y-96650000D02*
X108620000Y-95850000D01*
%TO.N,/RTS_232*%
X122863673Y-76948200D02*
X119453600Y-76948200D01*
X122891973Y-76919900D02*
X122863673Y-76948200D01*
D16*
%TO.N,+3.3V*%
X117450000Y-94500000D02*
X117462000Y-94488000D01*
X117462000Y-94488000D02*
X120396000Y-94488000D01*
D15*
%TO.N,/CTS_232*%
X123950000Y-78350000D02*
X123818200Y-78218200D01*
X123818200Y-78218200D02*
X119555200Y-78218200D01*
X119555200Y-78218200D02*
X119504400Y-78269000D01*
D17*
%TO.N,/EXT1*%
X105846900Y-81267490D02*
X105846900Y-79283632D01*
X105846900Y-79283632D02*
X105181634Y-78618366D01*
X123400000Y-93800000D02*
X123671400Y-93528600D01*
X123671400Y-93528600D02*
X123660375Y-93528600D01*
X123660375Y-93528600D02*
X124533400Y-92655575D01*
X124533400Y-92655575D02*
X124533400Y-90751269D01*
X124533400Y-90751269D02*
X122569200Y-88787069D01*
X122569200Y-88787069D02*
X122569200Y-87851836D01*
X122569200Y-87851836D02*
X118733764Y-84016400D01*
X118733764Y-84016400D02*
X114400000Y-84016400D01*
X114400000Y-84016400D02*
X113800000Y-83416400D01*
X113800000Y-83416400D02*
X107684141Y-83416400D01*
X107684141Y-83416400D02*
X106459600Y-82191859D01*
X106459600Y-82191859D02*
X106459600Y-81880190D01*
X106459600Y-81880190D02*
X105846900Y-81267490D01*
%TO.N,/EXT6*%
X104913500Y-83100000D02*
X105631052Y-83100000D01*
X105631052Y-83100000D02*
X106125173Y-83594121D01*
X106137654Y-83594121D02*
X107179133Y-84635600D01*
X107179133Y-84635600D02*
X113235600Y-84635600D01*
X106125173Y-83594121D02*
X106137654Y-83594121D01*
X113235600Y-84635600D02*
X113835600Y-85235600D01*
X113835600Y-85235600D02*
X118228756Y-85235600D01*
X118228756Y-85235600D02*
X121350000Y-88356844D01*
X121350000Y-88356844D02*
X121350000Y-89750000D01*
X121350000Y-89750000D02*
X122400000Y-90800000D01*
%TO.N,/EXT3*%
X105542100Y-80828600D02*
X105542100Y-81393742D01*
X105542100Y-81393742D02*
X106154800Y-82006442D01*
X104913500Y-80200000D02*
X105542100Y-80828600D01*
X106154800Y-82330592D02*
X106169408Y-82345200D01*
X106154800Y-82006442D02*
X106154800Y-82330592D01*
X106169408Y-82345200D02*
X106181889Y-82345200D01*
X113614356Y-83721200D02*
X114143156Y-84250000D01*
X106181889Y-82345200D02*
X107557889Y-83721200D01*
X107557889Y-83721200D02*
X113614356Y-83721200D01*
%TO.N,/EXT4*%
X106055637Y-82650000D02*
X107431637Y-84026000D01*
X105850000Y-82132694D02*
X105850000Y-82456844D01*
X105850000Y-82456844D02*
X106043156Y-82650000D01*
X104913500Y-81196194D02*
X105850000Y-82132694D01*
X113488104Y-84026000D02*
X114088104Y-84626000D01*
X114088104Y-84626000D02*
X118481260Y-84626000D01*
X118481260Y-84626000D02*
X121959600Y-88104340D01*
X121959600Y-88104340D02*
X121959600Y-89039573D01*
X107431637Y-84026000D02*
X113488104Y-84026000D01*
X121959600Y-89039573D02*
X123828600Y-90908573D01*
X106043156Y-82650000D02*
X106055637Y-82650000D01*
X123828600Y-90908573D02*
X123828600Y-91771400D01*
X123828600Y-91771400D02*
X123600000Y-92000000D01*
%TO.N,/EXT5*%
X104913500Y-82148097D02*
X105110201Y-82148097D01*
X106251425Y-83289321D02*
X106263906Y-83289321D01*
X106263906Y-83289321D02*
X107305385Y-84330800D01*
X105110201Y-82148097D02*
X106251425Y-83289321D01*
X107305385Y-84330800D02*
X113361852Y-84330800D01*
X113361852Y-84330800D02*
X113961852Y-84930800D01*
X121654800Y-88230592D02*
X121654800Y-89165825D01*
X113961852Y-84930800D02*
X118355008Y-84930800D01*
X118355008Y-84930800D02*
X121654800Y-88230592D01*
X121654800Y-89165825D02*
X123200000Y-90711025D01*
X123200000Y-90711025D02*
X123200000Y-91200000D01*
%TO.N,/EXT3*%
X123400000Y-92900000D02*
X123671400Y-92628600D01*
X123860375Y-92628600D02*
X124228600Y-92260375D01*
X124228600Y-92260375D02*
X124228600Y-90877521D01*
X123671400Y-92628600D02*
X123860375Y-92628600D01*
X122264400Y-88913321D02*
X122264400Y-87978088D01*
X124228600Y-90877521D02*
X122264400Y-88913321D01*
X122264400Y-87978088D02*
X118607512Y-84321200D01*
X118607512Y-84321200D02*
X114214356Y-84321200D01*
X114214356Y-84321200D02*
X114150000Y-84256844D01*
%TO.N,/EXT2*%
X106609727Y-84606269D02*
X106943858Y-84940400D01*
X113709348Y-85540400D02*
X118102504Y-85540400D01*
X121028600Y-89160375D02*
X120150000Y-90038975D01*
X118102504Y-85540400D02*
X121028600Y-88466496D01*
X106260827Y-84606269D02*
X106609727Y-84606269D01*
X106943858Y-84940400D02*
X113109348Y-84940400D01*
X105877279Y-84222721D02*
X106260827Y-84606269D01*
X113109348Y-84940400D02*
X113709348Y-85540400D01*
X121028600Y-88466496D02*
X121028600Y-89160375D01*
X120150000Y-90038975D02*
X120150000Y-93250000D01*
X120150000Y-93250000D02*
X120100000Y-93300000D01*
%TO.N,/EXT8*%
X105509714Y-84911069D02*
X106483475Y-84911069D01*
X106483475Y-84911069D02*
X106817606Y-85245200D01*
X113583096Y-85845200D02*
X117976252Y-85845200D01*
X106817606Y-85245200D02*
X112983096Y-85245200D01*
X112983096Y-85245200D02*
X113583096Y-85845200D01*
X105383964Y-85036819D02*
X105509714Y-84911069D01*
X117976252Y-85845200D02*
X119700000Y-87568948D01*
X119700000Y-87568948D02*
X119700000Y-88400000D01*
%TO.N,/EXT7*%
X106223100Y-85539669D02*
X106233431Y-85550000D01*
X106233431Y-85550000D02*
X112856844Y-85550000D01*
X113456844Y-86150000D02*
X117850000Y-86150000D01*
X112856844Y-85550000D02*
X113456844Y-86150000D01*
X117850000Y-86150000D02*
X118950000Y-87250000D01*
X118950000Y-87250000D02*
X118950000Y-88700000D01*
X118950000Y-88700000D02*
X119278600Y-89028600D01*
X119278600Y-89028600D02*
X119960375Y-89028600D01*
X119960375Y-89028600D02*
X120088975Y-88900000D01*
X120088975Y-88900000D02*
X120400000Y-88900000D01*
D18*
%TO.N,+5V*%
X122936000Y-102870000D02*
X123190000Y-102616000D01*
X119634000Y-103632000D02*
X123190000Y-103632000D01*
X119634000Y-102616000D02*
X119888000Y-102870000D01*
X119888000Y-102870000D02*
X122936000Y-102870000D01*
D16*
%TO.N,+3.3V*%
X112014000Y-90424000D02*
X114046000Y-90424000D01*
%TO.N,/DTR_MCU*%
X116840000Y-91694000D02*
X116840000Y-92202000D01*
D15*
X116840000Y-91694000D02*
X116840000Y-88760000D01*
D17*
%TO.N,/EXT1*%
X100070000Y-76230000D02*
X99425000Y-76230000D01*
%TO.N,/EXT2*%
X101160000Y-76240000D02*
X101660200Y-76240000D01*
%TO.N,/EXT3*%
X99670000Y-78780000D02*
X99375000Y-78780000D01*
%TO.N,/EXT4*%
X102170000Y-78770000D02*
X101965000Y-78770000D01*
%TD*%
%TA.AperFunction,Conductor*%
%TO.N,GND*%
G36*
X136736821Y-67775302D02*
G01*
X136783314Y-67828958D01*
X136794700Y-67881300D01*
X136794700Y-122018700D01*
X136774698Y-122086821D01*
X136721042Y-122133314D01*
X136668700Y-122144700D01*
X97531300Y-122144700D01*
X97463179Y-122124698D01*
X97416686Y-122071042D01*
X97405300Y-122018700D01*
X97405300Y-120200000D01*
X97739736Y-120200000D01*
X97759561Y-120451901D01*
X97760715Y-120456708D01*
X97760716Y-120456714D01*
X97793385Y-120592787D01*
X97818548Y-120697599D01*
X97915244Y-120931045D01*
X98047269Y-121146489D01*
X98211371Y-121338629D01*
X98403511Y-121502731D01*
X98618955Y-121634756D01*
X98623525Y-121636649D01*
X98623527Y-121636650D01*
X98801248Y-121710264D01*
X98852401Y-121731452D01*
X98938115Y-121752030D01*
X99093286Y-121789284D01*
X99093292Y-121789285D01*
X99098099Y-121790439D01*
X99350000Y-121810264D01*
X99601901Y-121790439D01*
X99606708Y-121789285D01*
X99606714Y-121789284D01*
X99761885Y-121752030D01*
X99847599Y-121731452D01*
X99898752Y-121710264D01*
X100076473Y-121636650D01*
X100076475Y-121636649D01*
X100081045Y-121634756D01*
X100296489Y-121502731D01*
X100488629Y-121338629D01*
X100652731Y-121146489D01*
X100784756Y-120931045D01*
X100881452Y-120697599D01*
X100906615Y-120592787D01*
X100939284Y-120456714D01*
X100939285Y-120456708D01*
X100940439Y-120451901D01*
X100960264Y-120200000D01*
X100952394Y-120100000D01*
X133139736Y-120100000D01*
X133159561Y-120351901D01*
X133160715Y-120356708D01*
X133160716Y-120356714D01*
X133182384Y-120446967D01*
X133218548Y-120597599D01*
X133315244Y-120831045D01*
X133447269Y-121046489D01*
X133450486Y-121050256D01*
X133450487Y-121050257D01*
X133535895Y-121150257D01*
X133611371Y-121238629D01*
X133803511Y-121402731D01*
X134018955Y-121534756D01*
X134023525Y-121536649D01*
X134023527Y-121536650D01*
X134247828Y-121629558D01*
X134252401Y-121631452D01*
X134338115Y-121652030D01*
X134493286Y-121689284D01*
X134493292Y-121689285D01*
X134498099Y-121690439D01*
X134750000Y-121710264D01*
X135001901Y-121690439D01*
X135006708Y-121689285D01*
X135006714Y-121689284D01*
X135161885Y-121652030D01*
X135247599Y-121631452D01*
X135252172Y-121629558D01*
X135476473Y-121536650D01*
X135476475Y-121536649D01*
X135481045Y-121534756D01*
X135696489Y-121402731D01*
X135888629Y-121238629D01*
X135964105Y-121150257D01*
X136049513Y-121050257D01*
X136049514Y-121050256D01*
X136052731Y-121046489D01*
X136184756Y-120831045D01*
X136281452Y-120597599D01*
X136317616Y-120446967D01*
X136339284Y-120356714D01*
X136339285Y-120356708D01*
X136340439Y-120351901D01*
X136360264Y-120100000D01*
X136340439Y-119848099D01*
X136339285Y-119843292D01*
X136339284Y-119843286D01*
X136282607Y-119607213D01*
X136281452Y-119602401D01*
X136184756Y-119368955D01*
X136052731Y-119153511D01*
X135888629Y-118961371D01*
X135696489Y-118797269D01*
X135481045Y-118665244D01*
X135476475Y-118663351D01*
X135476473Y-118663350D01*
X135252172Y-118570442D01*
X135252170Y-118570441D01*
X135247599Y-118568548D01*
X135161885Y-118547970D01*
X135006714Y-118510716D01*
X135006708Y-118510715D01*
X135001901Y-118509561D01*
X134750000Y-118489736D01*
X134498099Y-118509561D01*
X134493292Y-118510715D01*
X134493286Y-118510716D01*
X134338115Y-118547970D01*
X134252401Y-118568548D01*
X134247830Y-118570441D01*
X134247828Y-118570442D01*
X134023527Y-118663350D01*
X134023525Y-118663351D01*
X134018955Y-118665244D01*
X133803511Y-118797269D01*
X133611371Y-118961371D01*
X133447269Y-119153511D01*
X133315244Y-119368955D01*
X133218548Y-119602401D01*
X133217393Y-119607213D01*
X133160716Y-119843286D01*
X133160715Y-119843292D01*
X133159561Y-119848099D01*
X133139736Y-120100000D01*
X100952394Y-120100000D01*
X100940439Y-119948099D01*
X100939285Y-119943292D01*
X100939284Y-119943286D01*
X100882607Y-119707213D01*
X100881452Y-119702401D01*
X100784756Y-119468955D01*
X100652731Y-119253511D01*
X100567324Y-119153511D01*
X100491842Y-119065133D01*
X100488629Y-119061371D01*
X100296489Y-118897269D01*
X100081045Y-118765244D01*
X100076475Y-118763351D01*
X100076473Y-118763350D01*
X99852172Y-118670442D01*
X99852170Y-118670441D01*
X99847599Y-118668548D01*
X99761885Y-118647970D01*
X99606714Y-118610716D01*
X99606708Y-118610715D01*
X99601901Y-118609561D01*
X99350000Y-118589736D01*
X99098099Y-118609561D01*
X99093292Y-118610715D01*
X99093286Y-118610716D01*
X98938115Y-118647970D01*
X98852401Y-118668548D01*
X98847830Y-118670441D01*
X98847828Y-118670442D01*
X98623527Y-118763350D01*
X98623525Y-118763351D01*
X98618955Y-118765244D01*
X98403511Y-118897269D01*
X98211371Y-119061371D01*
X98208158Y-119065133D01*
X98132677Y-119153511D01*
X98047269Y-119253511D01*
X97915244Y-119468955D01*
X97818548Y-119702401D01*
X97817393Y-119707213D01*
X97760716Y-119943286D01*
X97760715Y-119943292D01*
X97759561Y-119948099D01*
X97739736Y-120200000D01*
X97405300Y-120200000D01*
X97405300Y-113187966D01*
X108593257Y-113187966D01*
X108623565Y-113322446D01*
X108626645Y-113332275D01*
X108706770Y-113529603D01*
X108711413Y-113538794D01*
X108822694Y-113720388D01*
X108828777Y-113728699D01*
X108968213Y-113889667D01*
X108975580Y-113896883D01*
X109139434Y-114032916D01*
X109147881Y-114038831D01*
X109331756Y-114146279D01*
X109341042Y-114150729D01*
X109540001Y-114226703D01*
X109549899Y-114229579D01*
X109653250Y-114250606D01*
X109667299Y-114249410D01*
X109671000Y-114239065D01*
X109671000Y-114238517D01*
X110179000Y-114238517D01*
X110183064Y-114252359D01*
X110196478Y-114254393D01*
X110203184Y-114253534D01*
X110213262Y-114251392D01*
X110417255Y-114190191D01*
X110426842Y-114186433D01*
X110618095Y-114092739D01*
X110626945Y-114087464D01*
X110800328Y-113963792D01*
X110808200Y-113957139D01*
X110959052Y-113806812D01*
X110965730Y-113798965D01*
X111093022Y-113621819D01*
X111094147Y-113622627D01*
X111141669Y-113578876D01*
X111211607Y-113566661D01*
X111277046Y-113594197D01*
X111304870Y-113626028D01*
X111362690Y-113720383D01*
X111368777Y-113728699D01*
X111508213Y-113889667D01*
X111515580Y-113896883D01*
X111679434Y-114032916D01*
X111687881Y-114038831D01*
X111871756Y-114146279D01*
X111881042Y-114150729D01*
X112080001Y-114226703D01*
X112089899Y-114229579D01*
X112193250Y-114250606D01*
X112207299Y-114249410D01*
X112211000Y-114239065D01*
X112211000Y-114238517D01*
X112719000Y-114238517D01*
X112723064Y-114252359D01*
X112736478Y-114254393D01*
X112743184Y-114253534D01*
X112753262Y-114251392D01*
X112957255Y-114190191D01*
X112966842Y-114186433D01*
X113158095Y-114092739D01*
X113166945Y-114087464D01*
X113340328Y-113963792D01*
X113348200Y-113957139D01*
X113499052Y-113806812D01*
X113505730Y-113798965D01*
X113630003Y-113626020D01*
X113635313Y-113617183D01*
X113729670Y-113426267D01*
X113733469Y-113416672D01*
X113795377Y-113212910D01*
X113797555Y-113202837D01*
X113798986Y-113191962D01*
X113796775Y-113177778D01*
X113783617Y-113174000D01*
X112737115Y-113174000D01*
X112721876Y-113178475D01*
X112720671Y-113179865D01*
X112719000Y-113187548D01*
X112719000Y-114238517D01*
X112211000Y-114238517D01*
X112211000Y-113192115D01*
X112206525Y-113176876D01*
X112205135Y-113175671D01*
X112197452Y-113174000D01*
X110197115Y-113174000D01*
X110181876Y-113178475D01*
X110180671Y-113179865D01*
X110179000Y-113187548D01*
X110179000Y-114238517D01*
X109671000Y-114238517D01*
X109671000Y-113192115D01*
X109666525Y-113176876D01*
X109665135Y-113175671D01*
X109657452Y-113174000D01*
X108608225Y-113174000D01*
X108594694Y-113177973D01*
X108593257Y-113187966D01*
X97405300Y-113187966D01*
X97405300Y-112654183D01*
X108589389Y-112654183D01*
X108590912Y-112662607D01*
X108603292Y-112666000D01*
X113783344Y-112666000D01*
X113796875Y-112662027D01*
X113798180Y-112652947D01*
X113756214Y-112485875D01*
X113752894Y-112476124D01*
X113667972Y-112280814D01*
X113663105Y-112271739D01*
X113547426Y-112092926D01*
X113541136Y-112084757D01*
X113397806Y-111927240D01*
X113390273Y-111920215D01*
X113223139Y-111788222D01*
X113214552Y-111782517D01*
X113028117Y-111679599D01*
X113018704Y-111675368D01*
X112973197Y-111659253D01*
X112915660Y-111617658D01*
X112889745Y-111551560D01*
X112903679Y-111481945D01*
X112953690Y-111430546D01*
X113122172Y-111336192D01*
X113285420Y-111200420D01*
X113421192Y-111037172D01*
X113524940Y-110851916D01*
X113593191Y-110650855D01*
X113594019Y-110645146D01*
X113594020Y-110645141D01*
X113623126Y-110444397D01*
X113623659Y-110440723D01*
X113625249Y-110380000D01*
X113605821Y-110168561D01*
X113548186Y-109964204D01*
X113454275Y-109773772D01*
X113327233Y-109603642D01*
X113171315Y-109459513D01*
X112991742Y-109346211D01*
X112958068Y-109332776D01*
X112931096Y-109322015D01*
X112794529Y-109267530D01*
X112788861Y-109266403D01*
X112788859Y-109266402D01*
X112618567Y-109232529D01*
X112555657Y-109199622D01*
X112520525Y-109137927D01*
X112524325Y-109067032D01*
X112565851Y-109009446D01*
X112625066Y-108984255D01*
X112735855Y-108968191D01*
X112741319Y-108966336D01*
X112741324Y-108966335D01*
X112931448Y-108901796D01*
X112936916Y-108899940D01*
X113122172Y-108796192D01*
X113285420Y-108660420D01*
X113421192Y-108497172D01*
X113524940Y-108311916D01*
X113593191Y-108110855D01*
X113594019Y-108105146D01*
X113594020Y-108105141D01*
X113623126Y-107904397D01*
X113623659Y-107900723D01*
X113625249Y-107840000D01*
X113605821Y-107628561D01*
X113548186Y-107424204D01*
X113454275Y-107233772D01*
X113327233Y-107063642D01*
X113171315Y-106919513D01*
X112991742Y-106806211D01*
X112958068Y-106792776D01*
X112817478Y-106736686D01*
X112794529Y-106727530D01*
X112788861Y-106726403D01*
X112788859Y-106726402D01*
X112618567Y-106692529D01*
X112555657Y-106659622D01*
X112520525Y-106597927D01*
X112524325Y-106527032D01*
X112565851Y-106469446D01*
X112625066Y-106444255D01*
X112735855Y-106428191D01*
X112741319Y-106426336D01*
X112741324Y-106426335D01*
X112918047Y-106366345D01*
X112936916Y-106359940D01*
X113005688Y-106321426D01*
X126387641Y-106321426D01*
X126388157Y-106327570D01*
X126398925Y-106455802D01*
X126405155Y-106530000D01*
X126462848Y-106731200D01*
X126465666Y-106736682D01*
X126465667Y-106736686D01*
X126555703Y-106911877D01*
X126555706Y-106911881D01*
X126558523Y-106917363D01*
X126688534Y-107081396D01*
X126847930Y-107217053D01*
X127030640Y-107319166D01*
X127229704Y-107383846D01*
X127437540Y-107408629D01*
X127443675Y-107408157D01*
X127443677Y-107408157D01*
X127612369Y-107395177D01*
X129265777Y-107395177D01*
X129275074Y-107407193D01*
X129318069Y-107437298D01*
X129327555Y-107442776D01*
X129518993Y-107532045D01*
X129529285Y-107535791D01*
X129733309Y-107590459D01*
X129744104Y-107592362D01*
X129954525Y-107610772D01*
X129965475Y-107610772D01*
X130175896Y-107592362D01*
X130186691Y-107590459D01*
X130390715Y-107535791D01*
X130401007Y-107532045D01*
X130592445Y-107442776D01*
X130601931Y-107437298D01*
X130645764Y-107406607D01*
X130654139Y-107396129D01*
X130653639Y-107395177D01*
X131765777Y-107395177D01*
X131775074Y-107407193D01*
X131818069Y-107437298D01*
X131827555Y-107442776D01*
X132018993Y-107532045D01*
X132029285Y-107535791D01*
X132233309Y-107590459D01*
X132244104Y-107592362D01*
X132454525Y-107610772D01*
X132465475Y-107610772D01*
X132675896Y-107592362D01*
X132686691Y-107590459D01*
X132890715Y-107535791D01*
X132901007Y-107532045D01*
X133092445Y-107442776D01*
X133101931Y-107437298D01*
X133145764Y-107406607D01*
X133154139Y-107396129D01*
X133147071Y-107382681D01*
X132472812Y-106708422D01*
X132458868Y-106700808D01*
X132457035Y-106700939D01*
X132450420Y-106705190D01*
X131772207Y-107383403D01*
X131765777Y-107395177D01*
X130653639Y-107395177D01*
X130647071Y-107382681D01*
X129972812Y-106708422D01*
X129958868Y-106700808D01*
X129957035Y-106700939D01*
X129950420Y-106705190D01*
X129272207Y-107383403D01*
X129265777Y-107395177D01*
X127612369Y-107395177D01*
X127640090Y-107393044D01*
X127640095Y-107393043D01*
X127646231Y-107392571D01*
X127652161Y-107390915D01*
X127652163Y-107390915D01*
X127841901Y-107337939D01*
X127841900Y-107337939D01*
X127847829Y-107336284D01*
X127877948Y-107321070D01*
X127935734Y-107291880D01*
X128034655Y-107241911D01*
X128045073Y-107233772D01*
X128194736Y-107116842D01*
X128199592Y-107113048D01*
X128264776Y-107037532D01*
X128332329Y-106959271D01*
X128332330Y-106959269D01*
X128336358Y-106954603D01*
X128439745Y-106772610D01*
X128463630Y-106700808D01*
X128485711Y-106634432D01*
X128526193Y-106576108D01*
X128591781Y-106548928D01*
X128661651Y-106561523D01*
X128713621Y-106609893D01*
X128726976Y-106641593D01*
X128760609Y-106767115D01*
X128764355Y-106777407D01*
X128853623Y-106968841D01*
X128859103Y-106978332D01*
X128889794Y-107022165D01*
X128900271Y-107030540D01*
X128913718Y-107023472D01*
X129587978Y-106349212D01*
X129594356Y-106337532D01*
X130324408Y-106337532D01*
X130324539Y-106339365D01*
X130328790Y-106345980D01*
X131007003Y-107024193D01*
X131018777Y-107030623D01*
X131030793Y-107021326D01*
X131060897Y-106978332D01*
X131066377Y-106968841D01*
X131095805Y-106905733D01*
X131142723Y-106852448D01*
X131211000Y-106832987D01*
X131278960Y-106853529D01*
X131324195Y-106905733D01*
X131353623Y-106968841D01*
X131359103Y-106978332D01*
X131389794Y-107022165D01*
X131400271Y-107030540D01*
X131413718Y-107023472D01*
X132087978Y-106349212D01*
X132094356Y-106337532D01*
X132824408Y-106337532D01*
X132824539Y-106339365D01*
X132828790Y-106345980D01*
X133507003Y-107024193D01*
X133518777Y-107030623D01*
X133530793Y-107021326D01*
X133560897Y-106978332D01*
X133566377Y-106968841D01*
X133655645Y-106777407D01*
X133659391Y-106767115D01*
X133693360Y-106640339D01*
X133730312Y-106579716D01*
X133794172Y-106548695D01*
X133864667Y-106557123D01*
X133919414Y-106602326D01*
X133936186Y-106638219D01*
X133962848Y-106731200D01*
X133965666Y-106736682D01*
X133965667Y-106736686D01*
X134055703Y-106911877D01*
X134055706Y-106911881D01*
X134058523Y-106917363D01*
X134188534Y-107081396D01*
X134347930Y-107217053D01*
X134530640Y-107319166D01*
X134729704Y-107383846D01*
X134937540Y-107408629D01*
X134943675Y-107408157D01*
X134943677Y-107408157D01*
X135140090Y-107393044D01*
X135140095Y-107393043D01*
X135146231Y-107392571D01*
X135152161Y-107390915D01*
X135152163Y-107390915D01*
X135341901Y-107337939D01*
X135341900Y-107337939D01*
X135347829Y-107336284D01*
X135377948Y-107321070D01*
X135435734Y-107291880D01*
X135534655Y-107241911D01*
X135545073Y-107233772D01*
X135694736Y-107116842D01*
X135699592Y-107113048D01*
X135764776Y-107037532D01*
X135832329Y-106959271D01*
X135832330Y-106959269D01*
X135836358Y-106954603D01*
X135939745Y-106772610D01*
X136005813Y-106574003D01*
X136032046Y-106366345D01*
X136032464Y-106336400D01*
X136012039Y-106128091D01*
X135951542Y-105927716D01*
X135853278Y-105742907D01*
X135771192Y-105642260D01*
X135724884Y-105585480D01*
X135724881Y-105585477D01*
X135720989Y-105580705D01*
X135716240Y-105576776D01*
X135564464Y-105451216D01*
X135564461Y-105451214D01*
X135559714Y-105447287D01*
X135375597Y-105347735D01*
X135275623Y-105316788D01*
X135181536Y-105287663D01*
X135181533Y-105287662D01*
X135175649Y-105285841D01*
X135169524Y-105285197D01*
X135169523Y-105285197D01*
X134973615Y-105264606D01*
X134973614Y-105264606D01*
X134967487Y-105263962D01*
X134837837Y-105275761D01*
X134765181Y-105282373D01*
X134765180Y-105282373D01*
X134759040Y-105282932D01*
X134753126Y-105284673D01*
X134753124Y-105284673D01*
X134617875Y-105324480D01*
X134558248Y-105342029D01*
X134552783Y-105344886D01*
X134380666Y-105434866D01*
X134372758Y-105439000D01*
X134209636Y-105570154D01*
X134075095Y-105730493D01*
X134072125Y-105735896D01*
X134072124Y-105735897D01*
X134014996Y-105839813D01*
X133974260Y-105913911D01*
X133972397Y-105919784D01*
X133935052Y-106037511D01*
X133895389Y-106096396D01*
X133830187Y-106124488D01*
X133760147Y-106112871D01*
X133707507Y-106065231D01*
X133693243Y-106032024D01*
X133659391Y-105905685D01*
X133655645Y-105895393D01*
X133566377Y-105703959D01*
X133560897Y-105694468D01*
X133530206Y-105650635D01*
X133519729Y-105642260D01*
X133506282Y-105649328D01*
X132832022Y-106323588D01*
X132824408Y-106337532D01*
X132094356Y-106337532D01*
X132095592Y-106335268D01*
X132095461Y-106333435D01*
X132091210Y-106326820D01*
X131412997Y-105648607D01*
X131401223Y-105642177D01*
X131389207Y-105651474D01*
X131359103Y-105694468D01*
X131353623Y-105703959D01*
X131324195Y-105767067D01*
X131277277Y-105820352D01*
X131209000Y-105839813D01*
X131141040Y-105819271D01*
X131095805Y-105767067D01*
X131066377Y-105703959D01*
X131060897Y-105694468D01*
X131030206Y-105650635D01*
X131019729Y-105642260D01*
X131006282Y-105649328D01*
X130332022Y-106323588D01*
X130324408Y-106337532D01*
X129594356Y-106337532D01*
X129595592Y-106335268D01*
X129595461Y-106333435D01*
X129591210Y-106326820D01*
X128912997Y-105648607D01*
X128901223Y-105642177D01*
X128889207Y-105651474D01*
X128859103Y-105694468D01*
X128853623Y-105703959D01*
X128764355Y-105895393D01*
X128760609Y-105905685D01*
X128726642Y-106032452D01*
X128689690Y-106093075D01*
X128625830Y-106124096D01*
X128555335Y-106115668D01*
X128500588Y-106070465D01*
X128484313Y-106036259D01*
X128483164Y-106032452D01*
X128451542Y-105927716D01*
X128353278Y-105742907D01*
X128271192Y-105642260D01*
X128224884Y-105585480D01*
X128224881Y-105585477D01*
X128220989Y-105580705D01*
X128216240Y-105576776D01*
X128064464Y-105451216D01*
X128064461Y-105451214D01*
X128059714Y-105447287D01*
X127875597Y-105347735D01*
X127775623Y-105316788D01*
X127681536Y-105287663D01*
X127681533Y-105287662D01*
X127675649Y-105285841D01*
X127669524Y-105285197D01*
X127669523Y-105285197D01*
X127588404Y-105276671D01*
X129265860Y-105276671D01*
X129272928Y-105290118D01*
X129947188Y-105964378D01*
X129961132Y-105971992D01*
X129962965Y-105971861D01*
X129969580Y-105967610D01*
X130647793Y-105289397D01*
X130654223Y-105277623D01*
X130653486Y-105276671D01*
X131765860Y-105276671D01*
X131772928Y-105290118D01*
X132447188Y-105964378D01*
X132461132Y-105971992D01*
X132462965Y-105971861D01*
X132469580Y-105967610D01*
X133147793Y-105289397D01*
X133154223Y-105277623D01*
X133144926Y-105265607D01*
X133101931Y-105235502D01*
X133092445Y-105230024D01*
X132901007Y-105140755D01*
X132890715Y-105137009D01*
X132686691Y-105082341D01*
X132675896Y-105080438D01*
X132465475Y-105062028D01*
X132454525Y-105062028D01*
X132244104Y-105080438D01*
X132233309Y-105082341D01*
X132029285Y-105137009D01*
X132018993Y-105140755D01*
X131827559Y-105230023D01*
X131818068Y-105235503D01*
X131774235Y-105266194D01*
X131765860Y-105276671D01*
X130653486Y-105276671D01*
X130644926Y-105265607D01*
X130601931Y-105235502D01*
X130592445Y-105230024D01*
X130401007Y-105140755D01*
X130390715Y-105137009D01*
X130186691Y-105082341D01*
X130175896Y-105080438D01*
X129965475Y-105062028D01*
X129954525Y-105062028D01*
X129744104Y-105080438D01*
X129733309Y-105082341D01*
X129529285Y-105137009D01*
X129518993Y-105140755D01*
X129327559Y-105230023D01*
X129318068Y-105235503D01*
X129274235Y-105266194D01*
X129265860Y-105276671D01*
X127588404Y-105276671D01*
X127473615Y-105264606D01*
X127473614Y-105264606D01*
X127467487Y-105263962D01*
X127337837Y-105275761D01*
X127265181Y-105282373D01*
X127265180Y-105282373D01*
X127259040Y-105282932D01*
X127253126Y-105284673D01*
X127253124Y-105284673D01*
X127117875Y-105324480D01*
X127058248Y-105342029D01*
X127052783Y-105344886D01*
X126880666Y-105434866D01*
X126872758Y-105439000D01*
X126709636Y-105570154D01*
X126575095Y-105730493D01*
X126572125Y-105735896D01*
X126572124Y-105735897D01*
X126514996Y-105839813D01*
X126474260Y-105913911D01*
X126410972Y-106113422D01*
X126410286Y-106119539D01*
X126410285Y-106119543D01*
X126395372Y-106252501D01*
X126387641Y-106321426D01*
X113005688Y-106321426D01*
X113122172Y-106256192D01*
X113163944Y-106221451D01*
X113280982Y-106124111D01*
X113285420Y-106120420D01*
X113421192Y-105957172D01*
X113524940Y-105771916D01*
X113565825Y-105651474D01*
X113591335Y-105576324D01*
X113591336Y-105576319D01*
X113593191Y-105570855D01*
X113594019Y-105565146D01*
X113594020Y-105565141D01*
X113623126Y-105364397D01*
X113623659Y-105360723D01*
X113625249Y-105300000D01*
X113610273Y-105137009D01*
X113606350Y-105094315D01*
X113606349Y-105094312D01*
X113605821Y-105088561D01*
X113548186Y-104884204D01*
X113454275Y-104693772D01*
X113327233Y-104523642D01*
X113202462Y-104408305D01*
X113175555Y-104383432D01*
X113175552Y-104383430D01*
X113171315Y-104379513D01*
X112991742Y-104266211D01*
X112958068Y-104252776D01*
X112853697Y-104211136D01*
X112794529Y-104187530D01*
X112788861Y-104186403D01*
X112788859Y-104186402D01*
X112591946Y-104147234D01*
X112591944Y-104147234D01*
X112586279Y-104146107D01*
X112580504Y-104146031D01*
X112580500Y-104146031D01*
X112474283Y-104144641D01*
X112373968Y-104143328D01*
X112368271Y-104144307D01*
X112368270Y-104144307D01*
X112170395Y-104178308D01*
X112170392Y-104178309D01*
X112164705Y-104179286D01*
X111965500Y-104252776D01*
X111836024Y-104329807D01*
X111825226Y-104336231D01*
X111783023Y-104361339D01*
X111623385Y-104501337D01*
X111619818Y-104505862D01*
X111619813Y-104505867D01*
X111495507Y-104663549D01*
X111491933Y-104668083D01*
X111489245Y-104673192D01*
X111395759Y-104850880D01*
X111395757Y-104850885D01*
X111393070Y-104855992D01*
X111330105Y-105058771D01*
X111329478Y-105064072D01*
X111295815Y-105126417D01*
X111233664Y-105160736D01*
X111162825Y-105156005D01*
X111105789Y-105113727D01*
X111080665Y-105047325D01*
X111080300Y-105037743D01*
X111080300Y-104404642D01*
X111079004Y-104393748D01*
X111078250Y-104387407D01*
X111078249Y-104387404D01*
X111077133Y-104378022D01*
X111030964Y-104274081D01*
X110967909Y-104211136D01*
X110958705Y-104201948D01*
X110958703Y-104201947D01*
X110950472Y-104193730D01*
X110846451Y-104147742D01*
X110820358Y-104144700D01*
X109029642Y-104144700D01*
X109018748Y-104145996D01*
X109012407Y-104146750D01*
X109012404Y-104146751D01*
X109003022Y-104147867D01*
X108934490Y-104178308D01*
X108916268Y-104186402D01*
X108899081Y-104194036D01*
X108887314Y-104205824D01*
X108826948Y-104266295D01*
X108826947Y-104266297D01*
X108818730Y-104274528D01*
X108772742Y-104378549D01*
X108769700Y-104404642D01*
X108769700Y-106195358D01*
X108770834Y-106204890D01*
X108771685Y-106212040D01*
X108772867Y-106221978D01*
X108819036Y-106325919D01*
X108842370Y-106349212D01*
X108891295Y-106398052D01*
X108891297Y-106398053D01*
X108899528Y-106406270D01*
X109003549Y-106452258D01*
X109029642Y-106455300D01*
X109683713Y-106455300D01*
X109751834Y-106475302D01*
X109798327Y-106528958D01*
X109808431Y-106599232D01*
X109778937Y-106663812D01*
X109719211Y-106702196D01*
X109705051Y-106705480D01*
X109630395Y-106718308D01*
X109630392Y-106718309D01*
X109624705Y-106719286D01*
X109425500Y-106792776D01*
X109243023Y-106901339D01*
X109083385Y-107041337D01*
X109079818Y-107045862D01*
X109079813Y-107045867D01*
X108955507Y-107203549D01*
X108951933Y-107208083D01*
X108949245Y-107213192D01*
X108855759Y-107390880D01*
X108855757Y-107390885D01*
X108853070Y-107395992D01*
X108790105Y-107598771D01*
X108765149Y-107809628D01*
X108779036Y-108021503D01*
X108831301Y-108227299D01*
X108920195Y-108420124D01*
X109042740Y-108593521D01*
X109194832Y-108741683D01*
X109199628Y-108744888D01*
X109199631Y-108744890D01*
X109270886Y-108792501D01*
X109371377Y-108859647D01*
X109376685Y-108861928D01*
X109376686Y-108861928D01*
X109561160Y-108941184D01*
X109561163Y-108941185D01*
X109566463Y-108943462D01*
X109572092Y-108944736D01*
X109572093Y-108944736D01*
X109767087Y-108988859D01*
X109829114Y-109023402D01*
X109862618Y-109085996D01*
X109856964Y-109156767D01*
X109813945Y-109213246D01*
X109760617Y-109235932D01*
X109630395Y-109258308D01*
X109630392Y-109258309D01*
X109624705Y-109259286D01*
X109425500Y-109332776D01*
X109243023Y-109441339D01*
X109083385Y-109581337D01*
X109079818Y-109585862D01*
X109079813Y-109585867D01*
X108955507Y-109743549D01*
X108951933Y-109748083D01*
X108949245Y-109753192D01*
X108855759Y-109930880D01*
X108855757Y-109930885D01*
X108853070Y-109935992D01*
X108790105Y-110138771D01*
X108765149Y-110349628D01*
X108779036Y-110561503D01*
X108831301Y-110767299D01*
X108920195Y-110960124D01*
X109042740Y-111133521D01*
X109194832Y-111281683D01*
X109199628Y-111284888D01*
X109199631Y-111284890D01*
X109270886Y-111332501D01*
X109371377Y-111399647D01*
X109376680Y-111401926D01*
X109376685Y-111401928D01*
X109404293Y-111413789D01*
X109424862Y-111422626D01*
X109479554Y-111467892D01*
X109501092Y-111535543D01*
X109482635Y-111604099D01*
X109430045Y-111651794D01*
X109414271Y-111658157D01*
X109401873Y-111662210D01*
X109392359Y-111666209D01*
X109203463Y-111764542D01*
X109194738Y-111770036D01*
X109024433Y-111897905D01*
X109016726Y-111904748D01*
X108869590Y-112058717D01*
X108863104Y-112066727D01*
X108743098Y-112242649D01*
X108738000Y-112251623D01*
X108648338Y-112444783D01*
X108644775Y-112454470D01*
X108589389Y-112654183D01*
X97405300Y-112654183D01*
X97405300Y-102589654D01*
X118879556Y-102589654D01*
X118893731Y-102763920D01*
X118895985Y-102770879D01*
X118895986Y-102770882D01*
X118936175Y-102894940D01*
X118947614Y-102930252D01*
X118951410Y-102936507D01*
X118951411Y-102936510D01*
X119024712Y-103057304D01*
X119042951Y-103125918D01*
X119025947Y-103185955D01*
X118941708Y-103330983D01*
X118891027Y-103498318D01*
X118880201Y-103672824D01*
X118909810Y-103845141D01*
X118978267Y-104006024D01*
X119081898Y-104146843D01*
X119215146Y-104260045D01*
X119370862Y-104339558D01*
X119377967Y-104341297D01*
X119377971Y-104341298D01*
X119447802Y-104358385D01*
X119540693Y-104381115D01*
X119546295Y-104381463D01*
X119546298Y-104381463D01*
X119549795Y-104381680D01*
X119549805Y-104381680D01*
X119551734Y-104381800D01*
X123233779Y-104381800D01*
X123325182Y-104371144D01*
X123356393Y-104367505D01*
X123356395Y-104367505D01*
X123363665Y-104366657D01*
X123370543Y-104364161D01*
X123370545Y-104364160D01*
X123521136Y-104309498D01*
X123528015Y-104307001D01*
X123674233Y-104211136D01*
X123794475Y-104084205D01*
X123798150Y-104077878D01*
X123798153Y-104077874D01*
X123878615Y-103939347D01*
X123882292Y-103933017D01*
X123932973Y-103765682D01*
X123943799Y-103591176D01*
X123914190Y-103418859D01*
X123845733Y-103257976D01*
X123841395Y-103252081D01*
X123802721Y-103199528D01*
X123778456Y-103132807D01*
X123794114Y-103063559D01*
X123805390Y-103046669D01*
X123827740Y-103018419D01*
X123832280Y-103012681D01*
X123841171Y-102993659D01*
X123862325Y-102948396D01*
X123906310Y-102854285D01*
X123941915Y-102683107D01*
X123937185Y-102508329D01*
X123892375Y-102339327D01*
X123809889Y-102185166D01*
X123805043Y-102179680D01*
X123805041Y-102179676D01*
X123698997Y-102059606D01*
X123698996Y-102059605D01*
X123694149Y-102054117D01*
X123648854Y-102022105D01*
X123607182Y-101992654D01*
X123551366Y-101953207D01*
X123487224Y-101927357D01*
X123395992Y-101890590D01*
X123389198Y-101887852D01*
X123305625Y-101875138D01*
X123223580Y-101862656D01*
X123223576Y-101862656D01*
X123216346Y-101861556D01*
X123209054Y-101862149D01*
X123209051Y-101862149D01*
X123127116Y-101868814D01*
X123042079Y-101875731D01*
X123035120Y-101877985D01*
X123035117Y-101877986D01*
X122882713Y-101927357D01*
X122882710Y-101927358D01*
X122875747Y-101929614D01*
X122726274Y-102020318D01*
X122722075Y-102024026D01*
X122722070Y-102024030D01*
X122719447Y-102026347D01*
X122717982Y-102027641D01*
X122662328Y-102083295D01*
X122600016Y-102117321D01*
X122573233Y-102120200D01*
X120250767Y-102120200D01*
X120182646Y-102100198D01*
X120161672Y-102083295D01*
X120133232Y-102054855D01*
X120130363Y-102052585D01*
X120130355Y-102052578D01*
X120036423Y-101978262D01*
X120030681Y-101973719D01*
X120024050Y-101970620D01*
X120024047Y-101970618D01*
X119878917Y-101902789D01*
X119878913Y-101902788D01*
X119872285Y-101899690D01*
X119701107Y-101864085D01*
X119585479Y-101867214D01*
X119533645Y-101868616D01*
X119526329Y-101868814D01*
X119357327Y-101913624D01*
X119350870Y-101917079D01*
X119209626Y-101992654D01*
X119209623Y-101992656D01*
X119203166Y-101996111D01*
X119072117Y-102111851D01*
X118971207Y-102254634D01*
X118968471Y-102261424D01*
X118968470Y-102261425D01*
X118950137Y-102306916D01*
X118905852Y-102416802D01*
X118904751Y-102424042D01*
X118880656Y-102582420D01*
X118880656Y-102582424D01*
X118879556Y-102589654D01*
X97405300Y-102589654D01*
X97405300Y-100044669D01*
X98742001Y-100044669D01*
X98742371Y-100051490D01*
X98747895Y-100102352D01*
X98751521Y-100117604D01*
X98796676Y-100238054D01*
X98805214Y-100253649D01*
X98881715Y-100355724D01*
X98894276Y-100368285D01*
X98996351Y-100444786D01*
X99011946Y-100453324D01*
X99132394Y-100498478D01*
X99147649Y-100502105D01*
X99198514Y-100507631D01*
X99205328Y-100508000D01*
X99827885Y-100508000D01*
X99843124Y-100503525D01*
X99844329Y-100502135D01*
X99846000Y-100494452D01*
X99846000Y-100489884D01*
X100354000Y-100489884D01*
X100358475Y-100505123D01*
X100359865Y-100506328D01*
X100367548Y-100507999D01*
X100994669Y-100507999D01*
X101001490Y-100507629D01*
X101052352Y-100502105D01*
X101067604Y-100498479D01*
X101188054Y-100453324D01*
X101203649Y-100444786D01*
X101305724Y-100368285D01*
X101318285Y-100355724D01*
X101394786Y-100253649D01*
X101403324Y-100238054D01*
X101448478Y-100117606D01*
X101452105Y-100102351D01*
X101457631Y-100051486D01*
X101458000Y-100044672D01*
X101458000Y-99422115D01*
X101453525Y-99406876D01*
X101452135Y-99405671D01*
X101444452Y-99404000D01*
X100372115Y-99404000D01*
X100356876Y-99408475D01*
X100355671Y-99409865D01*
X100354000Y-99417548D01*
X100354000Y-100489884D01*
X99846000Y-100489884D01*
X99846000Y-99422115D01*
X99841525Y-99406876D01*
X99840135Y-99405671D01*
X99832452Y-99404000D01*
X98760116Y-99404000D01*
X98744877Y-99408475D01*
X98743672Y-99409865D01*
X98742001Y-99417548D01*
X98742001Y-100044669D01*
X97405300Y-100044669D01*
X97405300Y-98877885D01*
X98742000Y-98877885D01*
X98746475Y-98893124D01*
X98747865Y-98894329D01*
X98755548Y-98896000D01*
X101439884Y-98896000D01*
X101455123Y-98891525D01*
X101456328Y-98890135D01*
X101457999Y-98882452D01*
X101457999Y-98255331D01*
X101457629Y-98248510D01*
X101452105Y-98197648D01*
X101448479Y-98182396D01*
X101403324Y-98061946D01*
X101394786Y-98046351D01*
X101318285Y-97944276D01*
X101305724Y-97931715D01*
X101203649Y-97855214D01*
X101188054Y-97846676D01*
X101067606Y-97801522D01*
X101052351Y-97797895D01*
X101001486Y-97792369D01*
X100994672Y-97792000D01*
X100833472Y-97792000D01*
X100765351Y-97771998D01*
X100718858Y-97718342D01*
X100708754Y-97648068D01*
X100738248Y-97583488D01*
X100757352Y-97566409D01*
X100757172Y-97566192D01*
X100827554Y-97507656D01*
X100920420Y-97430420D01*
X101056192Y-97267172D01*
X101159940Y-97081916D01*
X101211597Y-96929739D01*
X101226335Y-96886324D01*
X101226336Y-96886319D01*
X101228191Y-96880855D01*
X101229019Y-96875146D01*
X101229020Y-96875141D01*
X101258126Y-96674397D01*
X101258659Y-96670723D01*
X101260249Y-96610000D01*
X101258647Y-96592560D01*
X102639559Y-96592560D01*
X102658292Y-96762239D01*
X102660901Y-96769370D01*
X102660902Y-96769372D01*
X102703701Y-96886324D01*
X102716958Y-96922551D01*
X102812170Y-97064242D01*
X102817782Y-97069349D01*
X102817785Y-97069352D01*
X102932811Y-97174018D01*
X102932815Y-97174021D01*
X102938432Y-97179132D01*
X102945109Y-97182757D01*
X102945110Y-97182758D01*
X102967362Y-97194840D01*
X103088455Y-97260588D01*
X103253577Y-97303907D01*
X103340592Y-97305274D01*
X103416666Y-97306469D01*
X103416669Y-97306469D01*
X103424265Y-97306588D01*
X103431669Y-97304892D01*
X103431671Y-97304892D01*
X103493992Y-97290619D01*
X103590667Y-97268477D01*
X103743174Y-97191774D01*
X103836005Y-97112489D01*
X103900794Y-97083458D01*
X103917835Y-97082300D01*
X107786868Y-97082300D01*
X107801677Y-97083173D01*
X107833733Y-97086967D01*
X107889069Y-97076861D01*
X107892922Y-97076220D01*
X107948549Y-97067856D01*
X107954795Y-97064857D01*
X107961611Y-97063612D01*
X108011533Y-97037680D01*
X108015035Y-97035931D01*
X108042034Y-97022966D01*
X133318257Y-97022966D01*
X133348565Y-97157446D01*
X133351645Y-97167275D01*
X133431770Y-97364603D01*
X133436413Y-97373794D01*
X133547694Y-97555388D01*
X133553777Y-97563699D01*
X133693213Y-97724667D01*
X133700580Y-97731883D01*
X133864434Y-97867916D01*
X133872881Y-97873831D01*
X134056756Y-97981279D01*
X134066042Y-97985729D01*
X134144111Y-98015540D01*
X134200614Y-98058527D01*
X134224907Y-98125238D01*
X134209277Y-98194493D01*
X134153883Y-98246528D01*
X134150500Y-98247776D01*
X133968023Y-98356339D01*
X133808385Y-98496337D01*
X133804818Y-98500862D01*
X133804813Y-98500867D01*
X133680507Y-98658549D01*
X133676933Y-98663083D01*
X133674245Y-98668192D01*
X133580759Y-98845880D01*
X133580757Y-98845885D01*
X133578070Y-98850992D01*
X133515105Y-99053771D01*
X133490149Y-99264628D01*
X133504036Y-99476503D01*
X133556301Y-99682299D01*
X133645195Y-99875124D01*
X133767740Y-100048521D01*
X133919832Y-100196683D01*
X133924628Y-100199888D01*
X133924631Y-100199890D01*
X133981748Y-100238054D01*
X134096377Y-100314647D01*
X134101685Y-100316928D01*
X134101686Y-100316928D01*
X134286160Y-100396184D01*
X134286163Y-100396185D01*
X134291463Y-100398462D01*
X134297092Y-100399736D01*
X134297093Y-100399736D01*
X134492087Y-100443859D01*
X134554114Y-100478402D01*
X134587618Y-100540996D01*
X134581964Y-100611767D01*
X134538945Y-100668246D01*
X134485617Y-100690932D01*
X134355395Y-100713308D01*
X134355392Y-100713309D01*
X134349705Y-100714286D01*
X134150500Y-100787776D01*
X133968023Y-100896339D01*
X133808385Y-101036337D01*
X133804818Y-101040862D01*
X133804813Y-101040867D01*
X133680507Y-101198549D01*
X133676933Y-101203083D01*
X133674245Y-101208192D01*
X133580759Y-101385880D01*
X133580757Y-101385885D01*
X133578070Y-101390992D01*
X133515105Y-101593771D01*
X133490149Y-101804628D01*
X133504036Y-102016503D01*
X133556301Y-102222299D01*
X133645195Y-102415124D01*
X133767740Y-102588521D01*
X133919832Y-102736683D01*
X133924628Y-102739888D01*
X133924631Y-102739890D01*
X133971014Y-102770882D01*
X134096377Y-102854647D01*
X134101685Y-102856928D01*
X134101686Y-102856928D01*
X134286160Y-102936184D01*
X134286163Y-102936185D01*
X134291463Y-102938462D01*
X134297092Y-102939736D01*
X134297093Y-102939736D01*
X134492921Y-102984048D01*
X134492924Y-102984048D01*
X134498557Y-102985323D01*
X134504328Y-102985550D01*
X134504330Y-102985550D01*
X134569086Y-102988094D01*
X134710723Y-102993659D01*
X134815789Y-102978425D01*
X134915141Y-102964020D01*
X134915146Y-102964019D01*
X134920855Y-102963191D01*
X134926319Y-102961336D01*
X134926324Y-102961335D01*
X135116448Y-102896796D01*
X135121916Y-102894940D01*
X135307172Y-102791192D01*
X135470420Y-102655420D01*
X135606192Y-102492172D01*
X135709940Y-102306916D01*
X135773322Y-102120200D01*
X135776335Y-102111324D01*
X135776336Y-102111319D01*
X135778191Y-102105855D01*
X135779019Y-102100146D01*
X135779020Y-102100141D01*
X135808126Y-101899397D01*
X135808659Y-101895723D01*
X135810249Y-101835000D01*
X135790821Y-101623561D01*
X135733186Y-101419204D01*
X135639275Y-101228772D01*
X135512233Y-101058642D01*
X135356315Y-100914513D01*
X135176742Y-100801211D01*
X135143068Y-100787776D01*
X135116096Y-100777015D01*
X134979529Y-100722530D01*
X134973861Y-100721403D01*
X134973859Y-100721402D01*
X134803567Y-100687529D01*
X134740657Y-100654622D01*
X134705525Y-100592927D01*
X134709325Y-100522032D01*
X134750851Y-100464446D01*
X134810066Y-100439255D01*
X134920855Y-100423191D01*
X134926319Y-100421336D01*
X134926324Y-100421335D01*
X135116448Y-100356796D01*
X135121916Y-100354940D01*
X135307172Y-100251192D01*
X135470420Y-100115420D01*
X135606192Y-99952172D01*
X135709940Y-99766916D01*
X135778191Y-99565855D01*
X135779019Y-99560146D01*
X135779020Y-99560141D01*
X135797457Y-99432984D01*
X135808659Y-99355723D01*
X135810249Y-99295000D01*
X135790821Y-99083561D01*
X135733186Y-98879204D01*
X135639275Y-98688772D01*
X135512233Y-98518642D01*
X135356315Y-98374513D01*
X135176742Y-98261211D01*
X135157040Y-98253351D01*
X135101182Y-98209532D01*
X135077881Y-98142468D01*
X135094536Y-98073452D01*
X135148298Y-98023170D01*
X135343095Y-97927739D01*
X135351945Y-97922464D01*
X135525328Y-97798792D01*
X135533200Y-97792139D01*
X135684052Y-97641812D01*
X135690730Y-97633965D01*
X135815003Y-97461020D01*
X135820313Y-97452183D01*
X135914670Y-97261267D01*
X135918469Y-97251672D01*
X135980377Y-97047910D01*
X135982555Y-97037837D01*
X135983986Y-97026962D01*
X135981775Y-97012778D01*
X135968617Y-97009000D01*
X133333225Y-97009000D01*
X133319694Y-97012973D01*
X133318257Y-97022966D01*
X108042034Y-97022966D01*
X108057238Y-97015665D01*
X108065733Y-97011586D01*
X108070822Y-97006881D01*
X108076970Y-97003688D01*
X108081807Y-96999558D01*
X108117495Y-96963870D01*
X108121061Y-96960441D01*
X108154274Y-96929739D01*
X108161191Y-96923345D01*
X108164765Y-96917192D01*
X108169850Y-96911515D01*
X108762160Y-96319205D01*
X108824472Y-96285179D01*
X108851255Y-96282300D01*
X110078321Y-96282300D01*
X110146442Y-96302302D01*
X110163119Y-96315105D01*
X110288432Y-96429132D01*
X110295109Y-96432757D01*
X110295110Y-96432758D01*
X110318000Y-96445186D01*
X110438455Y-96510588D01*
X110603577Y-96553907D01*
X110690592Y-96555274D01*
X110766666Y-96556469D01*
X110766669Y-96556469D01*
X110774265Y-96556588D01*
X110781669Y-96554892D01*
X110781671Y-96554892D01*
X110843992Y-96540619D01*
X110940667Y-96518477D01*
X110998912Y-96489183D01*
X133314389Y-96489183D01*
X133315912Y-96497607D01*
X133328292Y-96501000D01*
X135968344Y-96501000D01*
X135981875Y-96497027D01*
X135983180Y-96487947D01*
X135941214Y-96320875D01*
X135937894Y-96311124D01*
X135852972Y-96115814D01*
X135848105Y-96106739D01*
X135732426Y-95927926D01*
X135726136Y-95919757D01*
X135582806Y-95762240D01*
X135575273Y-95755215D01*
X135408139Y-95623222D01*
X135399552Y-95617517D01*
X135213117Y-95514599D01*
X135203704Y-95510368D01*
X135158197Y-95494253D01*
X135100660Y-95452658D01*
X135074745Y-95386560D01*
X135088679Y-95316945D01*
X135138690Y-95265546D01*
X135307172Y-95171192D01*
X135339592Y-95144229D01*
X135465982Y-95039111D01*
X135470420Y-95035420D01*
X135606192Y-94872172D01*
X135709940Y-94686916D01*
X135740565Y-94596699D01*
X135776335Y-94491324D01*
X135776336Y-94491319D01*
X135778191Y-94485855D01*
X135779019Y-94480146D01*
X135779020Y-94480141D01*
X135802453Y-94318527D01*
X135808659Y-94275723D01*
X135810249Y-94215000D01*
X135793149Y-94028899D01*
X135791350Y-94009315D01*
X135791349Y-94009312D01*
X135790821Y-94003561D01*
X135783150Y-93976360D01*
X135734754Y-93804764D01*
X135733186Y-93799204D01*
X135639275Y-93608772D01*
X135512233Y-93438642D01*
X135378347Y-93314879D01*
X135360555Y-93298432D01*
X135360552Y-93298430D01*
X135356315Y-93294513D01*
X135176742Y-93181211D01*
X135143068Y-93167776D01*
X135116096Y-93157015D01*
X134979529Y-93102530D01*
X134973861Y-93101403D01*
X134973859Y-93101402D01*
X134865653Y-93079879D01*
X134802743Y-93046972D01*
X134767611Y-92985277D01*
X134771411Y-92914382D01*
X134812936Y-92856796D01*
X134879003Y-92830802D01*
X134890234Y-92830300D01*
X135545358Y-92830300D01*
X135556252Y-92829004D01*
X135562593Y-92828250D01*
X135562596Y-92828249D01*
X135571978Y-92827133D01*
X135675919Y-92780964D01*
X135739404Y-92717368D01*
X135748052Y-92708705D01*
X135748053Y-92708703D01*
X135756270Y-92700472D01*
X135802258Y-92596451D01*
X135805300Y-92570358D01*
X135805300Y-90779642D01*
X135803710Y-90766276D01*
X135803250Y-90762407D01*
X135803249Y-90762404D01*
X135802133Y-90753022D01*
X135755964Y-90649081D01*
X135707158Y-90600360D01*
X135683705Y-90576948D01*
X135683703Y-90576947D01*
X135675472Y-90568730D01*
X135571451Y-90522742D01*
X135545358Y-90519700D01*
X133754642Y-90519700D01*
X133743748Y-90520996D01*
X133737407Y-90521750D01*
X133737404Y-90521751D01*
X133728022Y-90522867D01*
X133624081Y-90569036D01*
X133606635Y-90586513D01*
X133551948Y-90641295D01*
X133551947Y-90641297D01*
X133543730Y-90649528D01*
X133497742Y-90753549D01*
X133494700Y-90779642D01*
X133494700Y-92570358D01*
X133495996Y-92581252D01*
X133496685Y-92587040D01*
X133497867Y-92596978D01*
X133544036Y-92700919D01*
X133572716Y-92729549D01*
X133616295Y-92773052D01*
X133616297Y-92773053D01*
X133624528Y-92781270D01*
X133728549Y-92827258D01*
X133754642Y-92830300D01*
X134408713Y-92830300D01*
X134476834Y-92850302D01*
X134523327Y-92903958D01*
X134533431Y-92974232D01*
X134503937Y-93038812D01*
X134444211Y-93077196D01*
X134430051Y-93080480D01*
X134355395Y-93093308D01*
X134355392Y-93093309D01*
X134349705Y-93094286D01*
X134150500Y-93167776D01*
X133968023Y-93276339D01*
X133808385Y-93416337D01*
X133804818Y-93420862D01*
X133804813Y-93420867D01*
X133680507Y-93578549D01*
X133676933Y-93583083D01*
X133674245Y-93588192D01*
X133580759Y-93765880D01*
X133580757Y-93765885D01*
X133578070Y-93770992D01*
X133515105Y-93973771D01*
X133490149Y-94184628D01*
X133504036Y-94396503D01*
X133556301Y-94602299D01*
X133645195Y-94795124D01*
X133767740Y-94968521D01*
X133919832Y-95116683D01*
X133924628Y-95119888D01*
X133924631Y-95119890D01*
X134036425Y-95194588D01*
X134096377Y-95234647D01*
X134101680Y-95236926D01*
X134101685Y-95236928D01*
X134129293Y-95248789D01*
X134149862Y-95257626D01*
X134204554Y-95302892D01*
X134226092Y-95370543D01*
X134207635Y-95439099D01*
X134155045Y-95486794D01*
X134139271Y-95493157D01*
X134126873Y-95497210D01*
X134117359Y-95501209D01*
X133928463Y-95599542D01*
X133919738Y-95605036D01*
X133749433Y-95732905D01*
X133741726Y-95739748D01*
X133594590Y-95893717D01*
X133588104Y-95901727D01*
X133468098Y-96077649D01*
X133463000Y-96086623D01*
X133373338Y-96279783D01*
X133369775Y-96289470D01*
X133314389Y-96489183D01*
X110998912Y-96489183D01*
X111093174Y-96441774D01*
X111098945Y-96436845D01*
X111098948Y-96436843D01*
X111217210Y-96335837D01*
X111217211Y-96335836D01*
X111222982Y-96330907D01*
X111322598Y-96192276D01*
X111335219Y-96160880D01*
X111383436Y-96040939D01*
X111383437Y-96040937D01*
X111386271Y-96033886D01*
X111410324Y-95864879D01*
X111410480Y-95850000D01*
X111399860Y-95762240D01*
X111390884Y-95688070D01*
X111390884Y-95688069D01*
X111389971Y-95680527D01*
X111344722Y-95560777D01*
X111332315Y-95527942D01*
X111332314Y-95527940D01*
X111329630Y-95520837D01*
X111325331Y-95514582D01*
X111325329Y-95514578D01*
X111237241Y-95386410D01*
X111237240Y-95386408D01*
X111232939Y-95380151D01*
X111226705Y-95374596D01*
X111146225Y-95302892D01*
X111105481Y-95266590D01*
X111097523Y-95262376D01*
X110961322Y-95190262D01*
X110961321Y-95190261D01*
X110954613Y-95186710D01*
X110789047Y-95145122D01*
X110781449Y-95145082D01*
X110781447Y-95145082D01*
X110707658Y-95144696D01*
X110618339Y-95144229D01*
X110610960Y-95146001D01*
X110610956Y-95146001D01*
X110459726Y-95182308D01*
X110459722Y-95182309D01*
X110452347Y-95184080D01*
X110300651Y-95262376D01*
X110294929Y-95267368D01*
X110294927Y-95267369D01*
X110254206Y-95302892D01*
X110172010Y-95374596D01*
X110170291Y-95377042D01*
X110111516Y-95413251D01*
X110078328Y-95417700D01*
X108653132Y-95417700D01*
X108638323Y-95416827D01*
X108636973Y-95416667D01*
X108606267Y-95413033D01*
X108550931Y-95423139D01*
X108547078Y-95423780D01*
X108491451Y-95432144D01*
X108485205Y-95435143D01*
X108478389Y-95436388D01*
X108428481Y-95462313D01*
X108424952Y-95464076D01*
X108382759Y-95484336D01*
X108382757Y-95484337D01*
X108374267Y-95488414D01*
X108369180Y-95493116D01*
X108363030Y-95496311D01*
X108358193Y-95500442D01*
X108322505Y-95536130D01*
X108318939Y-95539559D01*
X108278809Y-95576655D01*
X108275235Y-95582808D01*
X108270150Y-95588485D01*
X107677840Y-96180795D01*
X107615528Y-96214821D01*
X107588745Y-96217700D01*
X104009402Y-96217700D01*
X103941281Y-96197698D01*
X103905563Y-96163068D01*
X103887243Y-96136412D01*
X103887239Y-96136407D01*
X103882939Y-96130151D01*
X103876705Y-96124596D01*
X103819210Y-96073370D01*
X103755481Y-96016590D01*
X103747523Y-96012376D01*
X103611322Y-95940262D01*
X103611321Y-95940261D01*
X103604613Y-95936710D01*
X103439047Y-95895122D01*
X103431449Y-95895082D01*
X103431447Y-95895082D01*
X103357658Y-95894696D01*
X103268339Y-95894229D01*
X103260960Y-95896001D01*
X103260956Y-95896001D01*
X103109726Y-95932308D01*
X103109722Y-95932309D01*
X103102347Y-95934080D01*
X103095602Y-95937561D01*
X103095603Y-95937561D01*
X102976288Y-95999144D01*
X102950651Y-96012376D01*
X102944929Y-96017368D01*
X102944927Y-96017369D01*
X102842480Y-96106739D01*
X102822010Y-96124596D01*
X102723852Y-96264262D01*
X102721093Y-96271337D01*
X102721092Y-96271340D01*
X102671491Y-96398561D01*
X102661841Y-96423311D01*
X102660849Y-96430844D01*
X102660849Y-96430845D01*
X102641262Y-96579628D01*
X102639559Y-96592560D01*
X101258647Y-96592560D01*
X101243963Y-96432758D01*
X101241350Y-96404315D01*
X101241349Y-96404312D01*
X101240821Y-96398561D01*
X101221741Y-96330907D01*
X101204941Y-96271340D01*
X101183186Y-96194204D01*
X101089275Y-96003772D01*
X100985559Y-95864879D01*
X100965686Y-95838266D01*
X100965685Y-95838265D01*
X100962233Y-95833642D01*
X100806315Y-95689513D01*
X100626742Y-95576211D01*
X100611829Y-95570261D01*
X100505756Y-95527942D01*
X100429529Y-95497530D01*
X100423861Y-95496403D01*
X100423859Y-95496402D01*
X100226946Y-95457234D01*
X100226944Y-95457234D01*
X100221279Y-95456107D01*
X100215504Y-95456031D01*
X100215500Y-95456031D01*
X100109283Y-95454641D01*
X100008968Y-95453328D01*
X100003271Y-95454307D01*
X100003270Y-95454307D01*
X99805395Y-95488308D01*
X99805392Y-95488309D01*
X99799705Y-95489286D01*
X99600500Y-95562776D01*
X99418023Y-95671339D01*
X99258385Y-95811337D01*
X99254818Y-95815862D01*
X99254813Y-95815867D01*
X99130507Y-95973549D01*
X99126933Y-95978083D01*
X99124245Y-95983192D01*
X99030759Y-96160880D01*
X99030757Y-96160885D01*
X99028070Y-96165992D01*
X98965105Y-96368771D01*
X98940149Y-96579628D01*
X98954036Y-96791503D01*
X99006301Y-96997299D01*
X99095195Y-97190124D01*
X99217740Y-97363521D01*
X99369832Y-97511683D01*
X99374628Y-97514888D01*
X99374631Y-97514890D01*
X99443993Y-97561236D01*
X99489521Y-97615713D01*
X99498369Y-97686156D01*
X99467727Y-97750200D01*
X99407326Y-97787512D01*
X99373991Y-97792001D01*
X99205331Y-97792001D01*
X99198510Y-97792371D01*
X99147648Y-97797895D01*
X99132396Y-97801521D01*
X99011946Y-97846676D01*
X98996351Y-97855214D01*
X98894276Y-97931715D01*
X98881715Y-97944276D01*
X98805214Y-98046351D01*
X98796676Y-98061946D01*
X98751522Y-98182394D01*
X98747895Y-98197649D01*
X98742369Y-98248514D01*
X98742000Y-98255328D01*
X98742000Y-98877885D01*
X97405300Y-98877885D01*
X97405300Y-92194560D01*
X116129559Y-92194560D01*
X116138926Y-92279400D01*
X116143690Y-92322551D01*
X116148292Y-92364239D01*
X116150901Y-92371370D01*
X116150902Y-92371372D01*
X116170380Y-92424596D01*
X116206958Y-92524551D01*
X116302170Y-92666242D01*
X116307782Y-92671349D01*
X116307785Y-92671352D01*
X116422811Y-92776018D01*
X116422815Y-92776021D01*
X116428432Y-92781132D01*
X116435109Y-92784757D01*
X116435110Y-92784758D01*
X116458000Y-92797186D01*
X116578455Y-92862588D01*
X116743577Y-92905907D01*
X116830592Y-92907274D01*
X116906666Y-92908469D01*
X116906669Y-92908469D01*
X116914265Y-92908588D01*
X116921669Y-92906892D01*
X116921671Y-92906892D01*
X116984247Y-92892560D01*
X117080667Y-92870477D01*
X117233174Y-92793774D01*
X117238945Y-92788845D01*
X117238948Y-92788843D01*
X117357210Y-92687837D01*
X117357211Y-92687836D01*
X117362982Y-92682907D01*
X117462598Y-92544276D01*
X117467993Y-92530855D01*
X117523436Y-92392939D01*
X117523437Y-92392937D01*
X117526271Y-92385886D01*
X117550324Y-92216879D01*
X117550480Y-92202000D01*
X117541921Y-92131270D01*
X117530884Y-92040070D01*
X117530884Y-92040069D01*
X117529971Y-92032527D01*
X117491188Y-91929890D01*
X117472315Y-91879942D01*
X117472314Y-91879940D01*
X117469630Y-91872837D01*
X117465331Y-91866582D01*
X117465329Y-91866578D01*
X117377241Y-91738410D01*
X117377240Y-91738408D01*
X117372939Y-91732151D01*
X117314479Y-91680065D01*
X117276925Y-91619817D01*
X117272300Y-91585991D01*
X117272300Y-89376444D01*
X117292302Y-89308323D01*
X117316469Y-89280633D01*
X117357210Y-89245837D01*
X117357211Y-89245836D01*
X117362982Y-89240907D01*
X117462598Y-89102276D01*
X117467993Y-89088855D01*
X117523436Y-88950939D01*
X117523437Y-88950937D01*
X117526271Y-88943886D01*
X117545134Y-88811346D01*
X117549743Y-88778962D01*
X117549743Y-88778961D01*
X117550324Y-88774879D01*
X117550480Y-88760000D01*
X117536668Y-88645865D01*
X117530884Y-88598070D01*
X117530884Y-88598069D01*
X117529971Y-88590527D01*
X117478620Y-88454628D01*
X117472315Y-88437942D01*
X117472314Y-88437940D01*
X117469630Y-88430837D01*
X117465331Y-88424582D01*
X117465329Y-88424578D01*
X117377241Y-88296410D01*
X117377240Y-88296408D01*
X117372939Y-88290151D01*
X117366705Y-88284596D01*
X117251152Y-88181643D01*
X117245481Y-88176590D01*
X117237523Y-88172376D01*
X117101322Y-88100262D01*
X117101321Y-88100261D01*
X117094613Y-88096710D01*
X116929047Y-88055122D01*
X116921449Y-88055082D01*
X116921447Y-88055082D01*
X116847658Y-88054696D01*
X116758339Y-88054229D01*
X116750960Y-88056001D01*
X116750956Y-88056001D01*
X116599726Y-88092308D01*
X116599722Y-88092309D01*
X116592347Y-88094080D01*
X116440651Y-88172376D01*
X116312010Y-88284596D01*
X116213852Y-88424262D01*
X116211093Y-88431337D01*
X116211092Y-88431340D01*
X116165064Y-88549397D01*
X116151841Y-88583311D01*
X116150849Y-88590844D01*
X116150849Y-88590845D01*
X116131631Y-88736824D01*
X116129559Y-88752560D01*
X116136049Y-88811346D01*
X116143358Y-88877545D01*
X116148292Y-88922239D01*
X116150901Y-88929370D01*
X116150902Y-88929372D01*
X116200581Y-89065124D01*
X116206958Y-89082551D01*
X116302170Y-89224242D01*
X116307782Y-89229349D01*
X116307785Y-89229352D01*
X116366500Y-89282778D01*
X116403422Y-89343418D01*
X116407700Y-89375971D01*
X116407700Y-91585832D01*
X116387698Y-91653953D01*
X116364529Y-91680781D01*
X116357847Y-91686610D01*
X116312010Y-91726596D01*
X116213852Y-91866262D01*
X116211093Y-91873337D01*
X116211092Y-91873340D01*
X116161667Y-92000110D01*
X116151841Y-92025311D01*
X116150849Y-92032844D01*
X116150849Y-92032845D01*
X116131837Y-92177258D01*
X116129559Y-92194560D01*
X97405300Y-92194560D01*
X97405300Y-90416560D01*
X111303559Y-90416560D01*
X111304393Y-90424110D01*
X111321302Y-90577271D01*
X111322292Y-90586239D01*
X111324901Y-90593370D01*
X111324902Y-90593372D01*
X111377071Y-90735928D01*
X111380958Y-90746551D01*
X111476170Y-90888242D01*
X111481782Y-90893349D01*
X111481785Y-90893352D01*
X111596811Y-90998018D01*
X111596815Y-90998021D01*
X111602432Y-91003132D01*
X111609109Y-91006757D01*
X111609110Y-91006758D01*
X111632000Y-91019186D01*
X111752455Y-91084588D01*
X111917577Y-91127907D01*
X112004592Y-91129274D01*
X112080666Y-91130469D01*
X112080669Y-91130469D01*
X112088265Y-91130588D01*
X112095669Y-91128892D01*
X112095671Y-91128892D01*
X112157992Y-91114619D01*
X112254667Y-91092477D01*
X112407174Y-91015774D01*
X112412945Y-91010845D01*
X112412948Y-91010843D01*
X112531208Y-90909839D01*
X112531210Y-90909837D01*
X112536982Y-90904907D01*
X112541415Y-90898737D01*
X112544836Y-90895017D01*
X112605667Y-90858410D01*
X112637587Y-90854300D01*
X113422390Y-90854300D01*
X113490511Y-90874302D01*
X113507464Y-90889018D01*
X113508170Y-90888242D01*
X113628811Y-90998018D01*
X113628815Y-90998021D01*
X113634432Y-91003132D01*
X113641109Y-91006757D01*
X113641110Y-91006758D01*
X113664000Y-91019186D01*
X113784455Y-91084588D01*
X113949577Y-91127907D01*
X114036592Y-91129274D01*
X114112666Y-91130469D01*
X114112669Y-91130469D01*
X114120265Y-91130588D01*
X114127669Y-91128892D01*
X114127671Y-91128892D01*
X114189992Y-91114619D01*
X114286667Y-91092477D01*
X114439174Y-91015774D01*
X114444945Y-91010845D01*
X114444948Y-91010843D01*
X114563210Y-90909837D01*
X114563211Y-90909836D01*
X114568982Y-90904907D01*
X114668598Y-90766276D01*
X114673993Y-90752855D01*
X114729436Y-90614939D01*
X114729437Y-90614937D01*
X114732271Y-90607886D01*
X114756324Y-90438879D01*
X114756480Y-90424000D01*
X114735971Y-90254527D01*
X114700288Y-90160093D01*
X114678315Y-90101942D01*
X114678314Y-90101940D01*
X114675630Y-90094837D01*
X114671331Y-90088582D01*
X114671329Y-90088578D01*
X114583241Y-89960410D01*
X114583240Y-89960408D01*
X114578939Y-89954151D01*
X114573265Y-89949095D01*
X114515210Y-89897370D01*
X114451481Y-89840590D01*
X114443523Y-89836376D01*
X114307322Y-89764262D01*
X114307321Y-89764261D01*
X114300613Y-89760710D01*
X114135047Y-89719122D01*
X114127449Y-89719082D01*
X114127447Y-89719082D01*
X114053658Y-89718696D01*
X113964339Y-89718229D01*
X113956960Y-89720001D01*
X113956956Y-89720001D01*
X113805726Y-89756308D01*
X113805722Y-89756309D01*
X113798347Y-89758080D01*
X113646651Y-89836376D01*
X113640929Y-89841368D01*
X113640927Y-89841369D01*
X113523734Y-89943602D01*
X113523731Y-89943605D01*
X113518010Y-89948596D01*
X113515187Y-89952613D01*
X113455714Y-89989251D01*
X113422527Y-89993700D01*
X112637480Y-89993700D01*
X112569359Y-89973698D01*
X112547420Y-89954851D01*
X112546939Y-89954151D01*
X112541268Y-89949098D01*
X112541265Y-89949095D01*
X112459867Y-89876573D01*
X112419481Y-89840590D01*
X112411523Y-89836376D01*
X112275322Y-89764262D01*
X112275321Y-89764261D01*
X112268613Y-89760710D01*
X112103047Y-89719122D01*
X112095449Y-89719082D01*
X112095447Y-89719082D01*
X112021658Y-89718696D01*
X111932339Y-89718229D01*
X111924960Y-89720001D01*
X111924956Y-89720001D01*
X111773726Y-89756308D01*
X111773722Y-89756309D01*
X111766347Y-89758080D01*
X111614651Y-89836376D01*
X111608929Y-89841368D01*
X111608927Y-89841369D01*
X111525311Y-89914312D01*
X111486010Y-89948596D01*
X111387852Y-90088262D01*
X111385093Y-90095337D01*
X111385092Y-90095340D01*
X111345458Y-90196997D01*
X111325841Y-90247311D01*
X111324849Y-90254844D01*
X111324849Y-90254845D01*
X111306650Y-90393083D01*
X111303559Y-90416560D01*
X97405300Y-90416560D01*
X97405300Y-74594669D01*
X98017001Y-74594669D01*
X98017371Y-74601490D01*
X98022895Y-74652352D01*
X98026521Y-74667604D01*
X98071676Y-74788054D01*
X98080214Y-74803649D01*
X98156715Y-74905724D01*
X98169276Y-74918285D01*
X98271351Y-74994786D01*
X98286946Y-75003324D01*
X98407394Y-75048478D01*
X98422649Y-75052105D01*
X98473514Y-75057631D01*
X98480328Y-75058000D01*
X98643818Y-75058000D01*
X98711939Y-75078002D01*
X98758432Y-75131658D01*
X98768536Y-75201932D01*
X98739042Y-75266512D01*
X98708242Y-75292284D01*
X98697992Y-75298382D01*
X98697988Y-75298385D01*
X98693023Y-75301339D01*
X98533385Y-75441337D01*
X98529818Y-75445862D01*
X98529813Y-75445867D01*
X98436607Y-75564099D01*
X98401933Y-75608083D01*
X98399245Y-75613192D01*
X98305759Y-75790880D01*
X98305757Y-75790885D01*
X98303070Y-75795992D01*
X98240105Y-75998771D01*
X98215149Y-76209628D01*
X98229036Y-76421503D01*
X98281301Y-76627299D01*
X98370195Y-76820124D01*
X98492740Y-76993521D01*
X98644832Y-77141683D01*
X98649628Y-77144888D01*
X98649631Y-77144890D01*
X98676491Y-77162837D01*
X98821377Y-77259647D01*
X98826685Y-77261928D01*
X98826686Y-77261928D01*
X99011160Y-77341184D01*
X99011163Y-77341185D01*
X99016463Y-77343462D01*
X99022092Y-77344736D01*
X99022093Y-77344736D01*
X99217087Y-77388859D01*
X99279114Y-77423402D01*
X99312618Y-77485996D01*
X99306964Y-77556767D01*
X99263945Y-77613246D01*
X99210617Y-77635932D01*
X99080395Y-77658308D01*
X99080392Y-77658309D01*
X99074705Y-77659286D01*
X98875500Y-77732776D01*
X98693023Y-77841339D01*
X98533385Y-77981337D01*
X98529818Y-77985862D01*
X98529813Y-77985867D01*
X98407879Y-78140540D01*
X98401933Y-78148083D01*
X98399245Y-78153192D01*
X98305759Y-78330880D01*
X98305757Y-78330885D01*
X98303070Y-78335992D01*
X98240105Y-78538771D01*
X98215149Y-78749628D01*
X98229036Y-78961503D01*
X98281301Y-79167299D01*
X98370195Y-79360124D01*
X98492740Y-79533521D01*
X98644832Y-79681683D01*
X98649628Y-79684888D01*
X98649631Y-79684890D01*
X98754067Y-79754672D01*
X98821377Y-79799647D01*
X98826685Y-79801928D01*
X98826686Y-79801928D01*
X99011160Y-79881184D01*
X99011163Y-79881185D01*
X99016463Y-79883462D01*
X99022092Y-79884736D01*
X99022093Y-79884736D01*
X99217087Y-79928859D01*
X99279114Y-79963402D01*
X99312618Y-80025996D01*
X99306964Y-80096767D01*
X99263945Y-80153246D01*
X99210617Y-80175932D01*
X99080395Y-80198308D01*
X99080392Y-80198309D01*
X99074705Y-80199286D01*
X98875500Y-80272776D01*
X98800064Y-80317656D01*
X98713138Y-80369372D01*
X98693023Y-80381339D01*
X98533385Y-80521337D01*
X98529818Y-80525862D01*
X98529813Y-80525867D01*
X98419345Y-80665996D01*
X98401933Y-80688083D01*
X98399245Y-80693192D01*
X98305759Y-80870880D01*
X98305757Y-80870885D01*
X98303070Y-80875992D01*
X98240105Y-81078771D01*
X98215149Y-81289628D01*
X98229036Y-81501503D01*
X98281301Y-81707299D01*
X98370195Y-81900124D01*
X98492740Y-82073521D01*
X98644832Y-82221683D01*
X98649628Y-82224888D01*
X98649631Y-82224890D01*
X98754067Y-82294672D01*
X98821377Y-82339647D01*
X98826685Y-82341928D01*
X98826686Y-82341928D01*
X99011160Y-82421184D01*
X99011163Y-82421185D01*
X99016463Y-82423462D01*
X99022092Y-82424736D01*
X99022093Y-82424736D01*
X99217087Y-82468859D01*
X99279114Y-82503402D01*
X99312618Y-82565996D01*
X99306964Y-82636767D01*
X99263945Y-82693246D01*
X99210617Y-82715932D01*
X99080395Y-82738308D01*
X99080392Y-82738309D01*
X99074705Y-82739286D01*
X98875500Y-82812776D01*
X98693023Y-82921339D01*
X98533385Y-83061337D01*
X98529818Y-83065862D01*
X98529813Y-83065867D01*
X98405507Y-83223549D01*
X98401933Y-83228083D01*
X98399245Y-83233192D01*
X98305759Y-83410880D01*
X98305757Y-83410885D01*
X98303070Y-83415992D01*
X98240105Y-83618771D01*
X98215149Y-83829628D01*
X98229036Y-84041503D01*
X98281301Y-84247299D01*
X98370195Y-84440124D01*
X98492740Y-84613521D01*
X98564223Y-84683157D01*
X98582623Y-84701081D01*
X98644832Y-84761683D01*
X98649628Y-84764888D01*
X98649631Y-84764890D01*
X98754067Y-84834672D01*
X98821377Y-84879647D01*
X98826685Y-84881928D01*
X98826686Y-84881928D01*
X99011160Y-84961184D01*
X99011163Y-84961185D01*
X99016463Y-84963462D01*
X99022092Y-84964736D01*
X99022093Y-84964736D01*
X99217087Y-85008859D01*
X99279114Y-85043402D01*
X99312618Y-85105996D01*
X99306964Y-85176767D01*
X99263945Y-85233246D01*
X99210617Y-85255932D01*
X99080395Y-85278308D01*
X99080392Y-85278309D01*
X99074705Y-85279286D01*
X98875500Y-85352776D01*
X98693023Y-85461339D01*
X98533385Y-85601337D01*
X98529818Y-85605862D01*
X98529813Y-85605867D01*
X98410970Y-85756619D01*
X98401933Y-85768083D01*
X98399245Y-85773192D01*
X98305759Y-85950880D01*
X98305757Y-85950885D01*
X98303070Y-85955992D01*
X98240105Y-86158771D01*
X98215149Y-86369628D01*
X98229036Y-86581503D01*
X98281301Y-86787299D01*
X98370195Y-86980124D01*
X98492740Y-87153521D01*
X98565202Y-87224111D01*
X98629567Y-87286812D01*
X98644832Y-87301683D01*
X98649628Y-87304888D01*
X98649631Y-87304890D01*
X98791273Y-87399532D01*
X98821377Y-87419647D01*
X98826685Y-87421928D01*
X98826686Y-87421928D01*
X99011160Y-87501184D01*
X99011163Y-87501185D01*
X99016463Y-87503462D01*
X99022092Y-87504736D01*
X99022093Y-87504736D01*
X99217921Y-87549048D01*
X99217924Y-87549048D01*
X99223557Y-87550323D01*
X99229328Y-87550550D01*
X99229330Y-87550550D01*
X99294086Y-87553094D01*
X99435723Y-87558659D01*
X99541065Y-87543385D01*
X99640141Y-87529020D01*
X99640146Y-87529019D01*
X99645855Y-87528191D01*
X99651319Y-87526336D01*
X99651324Y-87526335D01*
X99841448Y-87461796D01*
X99846916Y-87459940D01*
X100032172Y-87356192D01*
X100195420Y-87220420D01*
X100304510Y-87089254D01*
X100327501Y-87061610D01*
X100331192Y-87057172D01*
X100426243Y-86887447D01*
X100476978Y-86837786D01*
X100546510Y-86823438D01*
X100612760Y-86848960D01*
X100652919Y-86901610D01*
X100696770Y-87009603D01*
X100701413Y-87018794D01*
X100812694Y-87200388D01*
X100818777Y-87208699D01*
X100958213Y-87369667D01*
X100965580Y-87376883D01*
X101129434Y-87512916D01*
X101137881Y-87518831D01*
X101321756Y-87626279D01*
X101331042Y-87630729D01*
X101530001Y-87706703D01*
X101539899Y-87709579D01*
X101643250Y-87730606D01*
X101657299Y-87729410D01*
X101661000Y-87719065D01*
X101661000Y-87718517D01*
X102169000Y-87718517D01*
X102173064Y-87732359D01*
X102186478Y-87734393D01*
X102193184Y-87733534D01*
X102203262Y-87731392D01*
X102407255Y-87670191D01*
X102416842Y-87666433D01*
X102608095Y-87572739D01*
X102616945Y-87567464D01*
X102790328Y-87443792D01*
X102798200Y-87437139D01*
X102949052Y-87286812D01*
X102955730Y-87278965D01*
X103080003Y-87106020D01*
X103085313Y-87097183D01*
X103179670Y-86906267D01*
X103183469Y-86896672D01*
X103245377Y-86692910D01*
X103247555Y-86682837D01*
X103248986Y-86671962D01*
X103246775Y-86657778D01*
X103233617Y-86654000D01*
X102187115Y-86654000D01*
X102171876Y-86658475D01*
X102170671Y-86659865D01*
X102169000Y-86667548D01*
X102169000Y-87718517D01*
X101661000Y-87718517D01*
X101661000Y-86272000D01*
X101681002Y-86203879D01*
X101734658Y-86157386D01*
X101787000Y-86146000D01*
X103233344Y-86146000D01*
X103246875Y-86142027D01*
X103248180Y-86132947D01*
X103206214Y-85965875D01*
X103202894Y-85956124D01*
X103117972Y-85760814D01*
X103113105Y-85751739D01*
X102997426Y-85572926D01*
X102991136Y-85564757D01*
X102847806Y-85407240D01*
X102840273Y-85400215D01*
X102673139Y-85268222D01*
X102664552Y-85262517D01*
X102478117Y-85159599D01*
X102468704Y-85155368D01*
X102423197Y-85139253D01*
X102365660Y-85097658D01*
X102339745Y-85031560D01*
X102353679Y-84961945D01*
X102403690Y-84910546D01*
X102572172Y-84816192D01*
X102735420Y-84680420D01*
X102811951Y-84588402D01*
X102867501Y-84521610D01*
X102871192Y-84517172D01*
X102974940Y-84331916D01*
X103011091Y-84225420D01*
X103041335Y-84136324D01*
X103041336Y-84136319D01*
X103043191Y-84130855D01*
X103044019Y-84125146D01*
X103044020Y-84125141D01*
X103067646Y-83962193D01*
X103073659Y-83920723D01*
X103075249Y-83860000D01*
X103058963Y-83682758D01*
X103056350Y-83654315D01*
X103056349Y-83654312D01*
X103055821Y-83648561D01*
X103051989Y-83634972D01*
X102999754Y-83449764D01*
X102998186Y-83444204D01*
X102904275Y-83253772D01*
X102783892Y-83092560D01*
X104203059Y-83092560D01*
X104212209Y-83175436D01*
X104220392Y-83249555D01*
X104221792Y-83262239D01*
X104224401Y-83269370D01*
X104224402Y-83269372D01*
X104275391Y-83408704D01*
X104280458Y-83422551D01*
X104375670Y-83564242D01*
X104381282Y-83569349D01*
X104381285Y-83569352D01*
X104496311Y-83674018D01*
X104496315Y-83674021D01*
X104501932Y-83679132D01*
X104508609Y-83682757D01*
X104508610Y-83682758D01*
X104531233Y-83695041D01*
X104651955Y-83760588D01*
X104817077Y-83803907D01*
X104904092Y-83805274D01*
X104980166Y-83806469D01*
X104980169Y-83806469D01*
X104987765Y-83806588D01*
X105079407Y-83785599D01*
X105150272Y-83789888D01*
X105207570Y-83831810D01*
X105233108Y-83898054D01*
X105224928Y-83954189D01*
X105193135Y-84035735D01*
X105189120Y-84046032D01*
X105188128Y-84053565D01*
X105188128Y-84053566D01*
X105174311Y-84158521D01*
X105166838Y-84215281D01*
X105168365Y-84229111D01*
X105171944Y-84261528D01*
X105159538Y-84331432D01*
X105111309Y-84383532D01*
X105104494Y-84387321D01*
X104991366Y-84445710D01*
X104991363Y-84445712D01*
X104984615Y-84449195D01*
X104978893Y-84454187D01*
X104978891Y-84454188D01*
X104864636Y-84553859D01*
X104855974Y-84561415D01*
X104757816Y-84701081D01*
X104755057Y-84708156D01*
X104755056Y-84708159D01*
X104705731Y-84834672D01*
X104695805Y-84860130D01*
X104694813Y-84867663D01*
X104694813Y-84867664D01*
X104675345Y-85015543D01*
X104673523Y-85029379D01*
X104681061Y-85097658D01*
X104688466Y-85164726D01*
X104692256Y-85199058D01*
X104694865Y-85206189D01*
X104694866Y-85206191D01*
X104741691Y-85334144D01*
X104750922Y-85359370D01*
X104846134Y-85501061D01*
X104851746Y-85506168D01*
X104851749Y-85506171D01*
X104966775Y-85610837D01*
X104966779Y-85610840D01*
X104972396Y-85615951D01*
X104979073Y-85619576D01*
X104979074Y-85619577D01*
X104986561Y-85623642D01*
X105122419Y-85697407D01*
X105287541Y-85740726D01*
X105458229Y-85743407D01*
X105458185Y-85746218D01*
X105515085Y-85756619D01*
X105566936Y-85805117D01*
X105576753Y-85825862D01*
X105587446Y-85855084D01*
X105587448Y-85855088D01*
X105590058Y-85862220D01*
X105685270Y-86003911D01*
X105690882Y-86009018D01*
X105690885Y-86009021D01*
X105805911Y-86113687D01*
X105805915Y-86113690D01*
X105811532Y-86118801D01*
X105818209Y-86122426D01*
X105818210Y-86122427D01*
X105836035Y-86132105D01*
X105961555Y-86200257D01*
X106126677Y-86243576D01*
X106213692Y-86244943D01*
X106289766Y-86246138D01*
X106289769Y-86246138D01*
X106297365Y-86246257D01*
X106304769Y-86244561D01*
X106304771Y-86244561D01*
X106377791Y-86227837D01*
X106463767Y-86208146D01*
X106616274Y-86131443D01*
X106622045Y-86126514D01*
X106622048Y-86126512D01*
X106740310Y-86025506D01*
X106740311Y-86025505D01*
X106746082Y-86020576D01*
X106772383Y-85983974D01*
X106828378Y-85940326D01*
X106874706Y-85931500D01*
X112646631Y-85931500D01*
X112714752Y-85951502D01*
X112735727Y-85968405D01*
X112946319Y-86178998D01*
X113148804Y-86381483D01*
X113164158Y-86400494D01*
X113165124Y-86401556D01*
X113170773Y-86410304D01*
X113178948Y-86416748D01*
X113178950Y-86416751D01*
X113197316Y-86431229D01*
X113201794Y-86435208D01*
X113201854Y-86435137D01*
X113205811Y-86438490D01*
X113209492Y-86442171D01*
X113213724Y-86445195D01*
X113213726Y-86445197D01*
X113225301Y-86453469D01*
X113230046Y-86457032D01*
X113270514Y-86488934D01*
X113279199Y-86491984D01*
X113286686Y-86497334D01*
X113336091Y-86512109D01*
X113341686Y-86513927D01*
X113390346Y-86531016D01*
X113395935Y-86531500D01*
X113398648Y-86531500D01*
X113401313Y-86531615D01*
X113401376Y-86531634D01*
X113401369Y-86531808D01*
X113402115Y-86531855D01*
X113408368Y-86533725D01*
X113458227Y-86531766D01*
X113462522Y-86531597D01*
X113467469Y-86531500D01*
X117639787Y-86531500D01*
X117707908Y-86551502D01*
X117728883Y-86568405D01*
X118531596Y-87371119D01*
X118565621Y-87433431D01*
X118568500Y-87460214D01*
X118568500Y-88645865D01*
X118565914Y-88670164D01*
X118565846Y-88671602D01*
X118563655Y-88681780D01*
X118564879Y-88692120D01*
X118567627Y-88715342D01*
X118567980Y-88721322D01*
X118568072Y-88721314D01*
X118568500Y-88726492D01*
X118568500Y-88731692D01*
X118569354Y-88736821D01*
X118569354Y-88736824D01*
X118571686Y-88750835D01*
X118572523Y-88756714D01*
X118578582Y-88807907D01*
X118582567Y-88816206D01*
X118584078Y-88825283D01*
X118608558Y-88870651D01*
X118611239Y-88875914D01*
X118630127Y-88915250D01*
X118630130Y-88915254D01*
X118633560Y-88922398D01*
X118637170Y-88926692D01*
X118639102Y-88928624D01*
X118640889Y-88930573D01*
X118640918Y-88930626D01*
X118640788Y-88930745D01*
X118641289Y-88931313D01*
X118644388Y-88937057D01*
X118652033Y-88944124D01*
X118684209Y-88973867D01*
X118687775Y-88977297D01*
X118970554Y-89260076D01*
X118985918Y-89279099D01*
X118986882Y-89280158D01*
X118992529Y-89288904D01*
X119000708Y-89295352D01*
X119000710Y-89295354D01*
X119019077Y-89309834D01*
X119023550Y-89313809D01*
X119023611Y-89313737D01*
X119027568Y-89317090D01*
X119031249Y-89320771D01*
X119035481Y-89323795D01*
X119047039Y-89332055D01*
X119051785Y-89335618D01*
X119092270Y-89367534D01*
X119100955Y-89370584D01*
X119108443Y-89375935D01*
X119157850Y-89390710D01*
X119163437Y-89392526D01*
X119212102Y-89409616D01*
X119217691Y-89410100D01*
X119220402Y-89410100D01*
X119223071Y-89410215D01*
X119223132Y-89410234D01*
X119223125Y-89410408D01*
X119223872Y-89410455D01*
X119230125Y-89412325D01*
X119284289Y-89410197D01*
X119289235Y-89410100D01*
X119863821Y-89410100D01*
X119931942Y-89430102D01*
X119948620Y-89442906D01*
X119960316Y-89453548D01*
X119985974Y-89476895D01*
X120022896Y-89537534D01*
X120021173Y-89608509D01*
X119990269Y-89659183D01*
X119918520Y-89730932D01*
X119899504Y-89746291D01*
X119898444Y-89747255D01*
X119889696Y-89752904D01*
X119883252Y-89761079D01*
X119883249Y-89761081D01*
X119868771Y-89779447D01*
X119864794Y-89783922D01*
X119864865Y-89783983D01*
X119861512Y-89787940D01*
X119857829Y-89791623D01*
X119854803Y-89795858D01*
X119854801Y-89795860D01*
X119846547Y-89807411D01*
X119842984Y-89812157D01*
X119811066Y-89852645D01*
X119808015Y-89861332D01*
X119802666Y-89868818D01*
X119799683Y-89878794D01*
X119799682Y-89878795D01*
X119792351Y-89903308D01*
X119789061Y-89914312D01*
X119787902Y-89918186D01*
X119786072Y-89923818D01*
X119768984Y-89972477D01*
X119768500Y-89978066D01*
X119768500Y-89980777D01*
X119768385Y-89983444D01*
X119768366Y-89983507D01*
X119768192Y-89983500D01*
X119768145Y-89984246D01*
X119766275Y-89990499D01*
X119768234Y-90040358D01*
X119768403Y-90044653D01*
X119768500Y-90049600D01*
X119768500Y-92600656D01*
X119748498Y-92668777D01*
X119713322Y-92704868D01*
X119707399Y-92708893D01*
X119700651Y-92712376D01*
X119694930Y-92717366D01*
X119694928Y-92717368D01*
X119577737Y-92819600D01*
X119572010Y-92824596D01*
X119473852Y-92964262D01*
X119471093Y-92971337D01*
X119471092Y-92971340D01*
X119423539Y-93093308D01*
X119411841Y-93123311D01*
X119410849Y-93130844D01*
X119410849Y-93130845D01*
X119391193Y-93280149D01*
X119389559Y-93292560D01*
X119390393Y-93300110D01*
X119405687Y-93438642D01*
X119408292Y-93462239D01*
X119410901Y-93469370D01*
X119410902Y-93469372D01*
X119461916Y-93608772D01*
X119466958Y-93622551D01*
X119562170Y-93764242D01*
X119567782Y-93769349D01*
X119567785Y-93769352D01*
X119643786Y-93838507D01*
X119680708Y-93899147D01*
X119678985Y-93970123D01*
X119639163Y-94028899D01*
X119573885Y-94056816D01*
X119558986Y-94057700D01*
X118061848Y-94057700D01*
X117993727Y-94037698D01*
X117978034Y-94025781D01*
X117855481Y-93916590D01*
X117847523Y-93912376D01*
X117711322Y-93840262D01*
X117711321Y-93840261D01*
X117704613Y-93836710D01*
X117539047Y-93795122D01*
X117531449Y-93795082D01*
X117531447Y-93795082D01*
X117457658Y-93794696D01*
X117368339Y-93794229D01*
X117360960Y-93796001D01*
X117360956Y-93796001D01*
X117209726Y-93832308D01*
X117209722Y-93832309D01*
X117202347Y-93834080D01*
X117050651Y-93912376D01*
X117044929Y-93917368D01*
X117044927Y-93917369D01*
X116946123Y-94003561D01*
X116922010Y-94024596D01*
X116823852Y-94164262D01*
X116821093Y-94171337D01*
X116821092Y-94171340D01*
X116766478Y-94311419D01*
X116761841Y-94323311D01*
X116760849Y-94330844D01*
X116760849Y-94330845D01*
X116742730Y-94468477D01*
X116739559Y-94492560D01*
X116741095Y-94506469D01*
X116752254Y-94607545D01*
X116758292Y-94662239D01*
X116760901Y-94669370D01*
X116760902Y-94669372D01*
X116805002Y-94789879D01*
X116816958Y-94822551D01*
X116912170Y-94964242D01*
X116917782Y-94969349D01*
X116917785Y-94969352D01*
X117032811Y-95074018D01*
X117032815Y-95074021D01*
X117038432Y-95079132D01*
X117045109Y-95082757D01*
X117045110Y-95082758D01*
X117068000Y-95095186D01*
X117188455Y-95160588D01*
X117353577Y-95203907D01*
X117440592Y-95205274D01*
X117516666Y-95206469D01*
X117516669Y-95206469D01*
X117524265Y-95206588D01*
X117531669Y-95204892D01*
X117531671Y-95204892D01*
X117596784Y-95189979D01*
X117690667Y-95168477D01*
X117843174Y-95091774D01*
X117848945Y-95086845D01*
X117848948Y-95086843D01*
X117914352Y-95030982D01*
X117972982Y-94980907D01*
X117977411Y-94974743D01*
X117977414Y-94974740D01*
X117980260Y-94970778D01*
X118036253Y-94927128D01*
X118082585Y-94918300D01*
X119772390Y-94918300D01*
X119840511Y-94938302D01*
X119857464Y-94953018D01*
X119858170Y-94952242D01*
X119978811Y-95062018D01*
X119978815Y-95062021D01*
X119984432Y-95067132D01*
X119991109Y-95070757D01*
X119991110Y-95070758D01*
X120013211Y-95082758D01*
X120134455Y-95148588D01*
X120299577Y-95191907D01*
X120386592Y-95193274D01*
X120462666Y-95194469D01*
X120462669Y-95194469D01*
X120470265Y-95194588D01*
X120477669Y-95192892D01*
X120477671Y-95192892D01*
X120560109Y-95174011D01*
X120636667Y-95156477D01*
X120789174Y-95079774D01*
X120794945Y-95074845D01*
X120794948Y-95074843D01*
X120913210Y-94973837D01*
X120913211Y-94973836D01*
X120918982Y-94968907D01*
X121018598Y-94830276D01*
X121021431Y-94823229D01*
X121079436Y-94678939D01*
X121079437Y-94678937D01*
X121082271Y-94671886D01*
X121106324Y-94502879D01*
X121106480Y-94488000D01*
X121104117Y-94468477D01*
X121086884Y-94326070D01*
X121086884Y-94326069D01*
X121085971Y-94318527D01*
X121037554Y-94190394D01*
X121028315Y-94165942D01*
X121028314Y-94165940D01*
X121025630Y-94158837D01*
X121021331Y-94152582D01*
X121021329Y-94152578D01*
X120933241Y-94024410D01*
X120933240Y-94024408D01*
X120928939Y-94018151D01*
X120922705Y-94012596D01*
X120814949Y-93916590D01*
X120801481Y-93904590D01*
X120735445Y-93869626D01*
X120684602Y-93820073D01*
X120668620Y-93750899D01*
X120692081Y-93684745D01*
X120718167Y-93648442D01*
X120722598Y-93642276D01*
X120730222Y-93623311D01*
X120783436Y-93490939D01*
X120783437Y-93490937D01*
X120786271Y-93483886D01*
X120798913Y-93395058D01*
X120809743Y-93318962D01*
X120809743Y-93318961D01*
X120810324Y-93314879D01*
X120810480Y-93300000D01*
X120800244Y-93215416D01*
X120790884Y-93138070D01*
X120790884Y-93138069D01*
X120789971Y-93130527D01*
X120755315Y-93038812D01*
X120732315Y-92977942D01*
X120732314Y-92977940D01*
X120729630Y-92970837D01*
X120725331Y-92964582D01*
X120725329Y-92964578D01*
X120637241Y-92836410D01*
X120637240Y-92836408D01*
X120632939Y-92830151D01*
X120626705Y-92824596D01*
X120573681Y-92777354D01*
X120536125Y-92717104D01*
X120531500Y-92683278D01*
X120531500Y-90249188D01*
X120551502Y-90181067D01*
X120568405Y-90160093D01*
X120817831Y-89910667D01*
X120880143Y-89876641D01*
X120950958Y-89881706D01*
X121007794Y-89924253D01*
X121020510Y-89945221D01*
X121033560Y-89972398D01*
X121037170Y-89976692D01*
X121039102Y-89978624D01*
X121040889Y-89980573D01*
X121040918Y-89980626D01*
X121040788Y-89980745D01*
X121041289Y-89981313D01*
X121044388Y-89987057D01*
X121052033Y-89994124D01*
X121084195Y-90023854D01*
X121087762Y-90027284D01*
X121664641Y-90604164D01*
X121698666Y-90666476D01*
X121700467Y-90709705D01*
X121690770Y-90783365D01*
X121689559Y-90792560D01*
X121696375Y-90854300D01*
X121702507Y-90909837D01*
X121708292Y-90962239D01*
X121710901Y-90969370D01*
X121710902Y-90969372D01*
X121756573Y-91094172D01*
X121766958Y-91122551D01*
X121862170Y-91264242D01*
X121867782Y-91269349D01*
X121867785Y-91269352D01*
X121982811Y-91374018D01*
X121982815Y-91374021D01*
X121988432Y-91379132D01*
X122138455Y-91460588D01*
X122303577Y-91503907D01*
X122387319Y-91505222D01*
X122466664Y-91506469D01*
X122466667Y-91506469D01*
X122474265Y-91506588D01*
X122476871Y-91505991D01*
X122544643Y-91518385D01*
X122592557Y-91560647D01*
X122662170Y-91664242D01*
X122667782Y-91669349D01*
X122667785Y-91669352D01*
X122782811Y-91774018D01*
X122782815Y-91774021D01*
X122788432Y-91779132D01*
X122795109Y-91782757D01*
X122795110Y-91782758D01*
X122832933Y-91803294D01*
X122883254Y-91853376D01*
X122898511Y-91922714D01*
X122897733Y-91930471D01*
X122891056Y-91981192D01*
X122889559Y-91992560D01*
X122898926Y-92077400D01*
X122907385Y-92154020D01*
X122908292Y-92162239D01*
X122942529Y-92255796D01*
X122947156Y-92326640D01*
X122912746Y-92388741D01*
X122907043Y-92394035D01*
X122872010Y-92424596D01*
X122773852Y-92564262D01*
X122771093Y-92571337D01*
X122771092Y-92571340D01*
X122714910Y-92715440D01*
X122711841Y-92723311D01*
X122710849Y-92730844D01*
X122710849Y-92730845D01*
X122693505Y-92862588D01*
X122689559Y-92892560D01*
X122694075Y-92933465D01*
X122705706Y-93038812D01*
X122708292Y-93062239D01*
X122710901Y-93069370D01*
X122710902Y-93069372D01*
X122723036Y-93102530D01*
X122766958Y-93222551D01*
X122805063Y-93279257D01*
X122826454Y-93346952D01*
X122807850Y-93415468D01*
X122803580Y-93421963D01*
X122773852Y-93464262D01*
X122771093Y-93471337D01*
X122771092Y-93471340D01*
X122714919Y-93615417D01*
X122711841Y-93623311D01*
X122710849Y-93630844D01*
X122710849Y-93630845D01*
X122691672Y-93776513D01*
X122689559Y-93792560D01*
X122698067Y-93869626D01*
X122703810Y-93921639D01*
X122708292Y-93962239D01*
X122710901Y-93969370D01*
X122710902Y-93969372D01*
X122731544Y-94025777D01*
X122766958Y-94122551D01*
X122862170Y-94264242D01*
X122867782Y-94269349D01*
X122867785Y-94269352D01*
X122982811Y-94374018D01*
X122982815Y-94374021D01*
X122988432Y-94379132D01*
X122995109Y-94382757D01*
X122995110Y-94382758D01*
X123018000Y-94395186D01*
X123138455Y-94460588D01*
X123303577Y-94503907D01*
X123390592Y-94505274D01*
X123466666Y-94506469D01*
X123466669Y-94506469D01*
X123474265Y-94506588D01*
X123481669Y-94504892D01*
X123481671Y-94504892D01*
X123573357Y-94483893D01*
X123640667Y-94468477D01*
X123793174Y-94391774D01*
X123798945Y-94386845D01*
X123798948Y-94386843D01*
X123917210Y-94285837D01*
X123917211Y-94285836D01*
X123922982Y-94280907D01*
X124022598Y-94142276D01*
X124027993Y-94128855D01*
X124083436Y-93990939D01*
X124083437Y-93990937D01*
X124086271Y-93983886D01*
X124110324Y-93814879D01*
X124110480Y-93800000D01*
X124098201Y-93698535D01*
X124109874Y-93628506D01*
X124134193Y-93594304D01*
X124764876Y-92963621D01*
X124783899Y-92948257D01*
X124784958Y-92947293D01*
X124793704Y-92941646D01*
X124800152Y-92933467D01*
X124800154Y-92933465D01*
X124814634Y-92915098D01*
X124818609Y-92910625D01*
X124818537Y-92910564D01*
X124821890Y-92906607D01*
X124825571Y-92902926D01*
X124836855Y-92887135D01*
X124840419Y-92882389D01*
X124865887Y-92850083D01*
X124872334Y-92841905D01*
X124875384Y-92833220D01*
X124880735Y-92825732D01*
X124895515Y-92776309D01*
X124897327Y-92770735D01*
X124914416Y-92722073D01*
X124914900Y-92716484D01*
X124914900Y-92713773D01*
X124915015Y-92711106D01*
X124915034Y-92711043D01*
X124915208Y-92711050D01*
X124915255Y-92710304D01*
X124917125Y-92704051D01*
X124914997Y-92649887D01*
X124914900Y-92644941D01*
X124914900Y-90994628D01*
X125875149Y-90994628D01*
X125889036Y-91206503D01*
X125941301Y-91412299D01*
X126030195Y-91605124D01*
X126152740Y-91778521D01*
X126304832Y-91926683D01*
X126309628Y-91929888D01*
X126309631Y-91929890D01*
X126414723Y-92000110D01*
X126481377Y-92044647D01*
X126486685Y-92046928D01*
X126486686Y-92046928D01*
X126671160Y-92126184D01*
X126671163Y-92126185D01*
X126676463Y-92128462D01*
X126682092Y-92129736D01*
X126682093Y-92129736D01*
X126877921Y-92174048D01*
X126877924Y-92174048D01*
X126883557Y-92175323D01*
X126889328Y-92175550D01*
X126889330Y-92175550D01*
X126954086Y-92178094D01*
X127095723Y-92183659D01*
X127200789Y-92168425D01*
X127300141Y-92154020D01*
X127300146Y-92154019D01*
X127305855Y-92153191D01*
X127311319Y-92151336D01*
X127311324Y-92151335D01*
X127501448Y-92086796D01*
X127506916Y-92084940D01*
X127692172Y-91981192D01*
X127733944Y-91946451D01*
X127850982Y-91849111D01*
X127855420Y-91845420D01*
X127991192Y-91682172D01*
X128094940Y-91496916D01*
X128125565Y-91406699D01*
X128161335Y-91301324D01*
X128161336Y-91301319D01*
X128163191Y-91295855D01*
X128164019Y-91290146D01*
X128164020Y-91290141D01*
X128169004Y-91255764D01*
X128198574Y-91191218D01*
X128258346Y-91152906D01*
X128329342Y-91152990D01*
X128389023Y-91191445D01*
X128418439Y-91256061D01*
X128419700Y-91273844D01*
X128419700Y-91920358D01*
X128420834Y-91929890D01*
X128421685Y-91937040D01*
X128422867Y-91946978D01*
X128439769Y-91985029D01*
X128460867Y-92032527D01*
X128469036Y-92050919D01*
X128500292Y-92082120D01*
X128541295Y-92123052D01*
X128541297Y-92123053D01*
X128549528Y-92131270D01*
X128653549Y-92177258D01*
X128679642Y-92180300D01*
X130470358Y-92180300D01*
X130481252Y-92179004D01*
X130487593Y-92178250D01*
X130487596Y-92178249D01*
X130496978Y-92177133D01*
X130600919Y-92130964D01*
X130646862Y-92084940D01*
X130673052Y-92058705D01*
X130673053Y-92058703D01*
X130681270Y-92050472D01*
X130727258Y-91946451D01*
X130730300Y-91920358D01*
X130730300Y-90129642D01*
X130729004Y-90118748D01*
X130728250Y-90112407D01*
X130728249Y-90112404D01*
X130727133Y-90103022D01*
X130680964Y-89999081D01*
X130635955Y-89954151D01*
X130608705Y-89926948D01*
X130608703Y-89926947D01*
X130600472Y-89918730D01*
X130496451Y-89872742D01*
X130470358Y-89869700D01*
X129823844Y-89869700D01*
X129755723Y-89849698D01*
X129709230Y-89796042D01*
X129699126Y-89725768D01*
X129728620Y-89661188D01*
X129788346Y-89622804D01*
X129805764Y-89619004D01*
X129840141Y-89614020D01*
X129840146Y-89614019D01*
X129845855Y-89613191D01*
X129851319Y-89611336D01*
X129851324Y-89611335D01*
X130041448Y-89546796D01*
X130046916Y-89544940D01*
X130232172Y-89441192D01*
X130395420Y-89305420D01*
X130531192Y-89142172D01*
X130634940Y-88956916D01*
X130661883Y-88877545D01*
X130701335Y-88761324D01*
X130701336Y-88761319D01*
X130703191Y-88755855D01*
X130704019Y-88750146D01*
X130704020Y-88750141D01*
X130726069Y-88598070D01*
X130733659Y-88545723D01*
X130735249Y-88485000D01*
X130720092Y-88320041D01*
X130716350Y-88279315D01*
X130716349Y-88279312D01*
X130715821Y-88273561D01*
X130658186Y-88069204D01*
X130564275Y-87878772D01*
X130461015Y-87740490D01*
X130440686Y-87713266D01*
X130440685Y-87713265D01*
X130437233Y-87708642D01*
X130342514Y-87621085D01*
X130285555Y-87568432D01*
X130285552Y-87568430D01*
X130281315Y-87564513D01*
X130101742Y-87451211D01*
X130082040Y-87443351D01*
X130026182Y-87399532D01*
X130002881Y-87332468D01*
X130019536Y-87263452D01*
X130073298Y-87213170D01*
X130268095Y-87117739D01*
X130276945Y-87112464D01*
X130450328Y-86988792D01*
X130458200Y-86982139D01*
X130609052Y-86831812D01*
X130615730Y-86823965D01*
X130740003Y-86651020D01*
X130745313Y-86642183D01*
X130839670Y-86451267D01*
X130843469Y-86441672D01*
X130905377Y-86237910D01*
X130907555Y-86227837D01*
X130908986Y-86216962D01*
X130906775Y-86202778D01*
X130893617Y-86199000D01*
X129447000Y-86199000D01*
X129378879Y-86178998D01*
X129332386Y-86125342D01*
X129321000Y-86073000D01*
X129321000Y-85817000D01*
X129341002Y-85748879D01*
X129394658Y-85702386D01*
X129447000Y-85691000D01*
X130893344Y-85691000D01*
X130906875Y-85687027D01*
X130908180Y-85677947D01*
X130866214Y-85510875D01*
X130862894Y-85501124D01*
X130777972Y-85305814D01*
X130773105Y-85296739D01*
X130657426Y-85117926D01*
X130651136Y-85109757D01*
X130507806Y-84952240D01*
X130500273Y-84945215D01*
X130333139Y-84813222D01*
X130324552Y-84807517D01*
X130138117Y-84704599D01*
X130128704Y-84700368D01*
X130083197Y-84684253D01*
X130025660Y-84642658D01*
X129999745Y-84576560D01*
X130013679Y-84506945D01*
X130063690Y-84455546D01*
X130232172Y-84361192D01*
X130267955Y-84331432D01*
X130390982Y-84229111D01*
X130395420Y-84225420D01*
X130531192Y-84062172D01*
X130634940Y-83876916D01*
X130671750Y-83768477D01*
X130701335Y-83681324D01*
X130701336Y-83681319D01*
X130703191Y-83675855D01*
X130704019Y-83670146D01*
X130704020Y-83670141D01*
X130733126Y-83469397D01*
X130733659Y-83465723D01*
X130735249Y-83405000D01*
X130722787Y-83269372D01*
X130716350Y-83199315D01*
X130716349Y-83199312D01*
X130715821Y-83193561D01*
X130708022Y-83165906D01*
X130670793Y-83033906D01*
X130658186Y-82989204D01*
X130564275Y-82798772D01*
X130437233Y-82628642D01*
X130301749Y-82503402D01*
X130285555Y-82488432D01*
X130285552Y-82488430D01*
X130281315Y-82484513D01*
X130101742Y-82371211D01*
X130068068Y-82357776D01*
X130041096Y-82347015D01*
X129904529Y-82292530D01*
X129898861Y-82291403D01*
X129898859Y-82291402D01*
X129728567Y-82257529D01*
X129665657Y-82224622D01*
X129630525Y-82162927D01*
X129634325Y-82092032D01*
X129675851Y-82034446D01*
X129735066Y-82009255D01*
X129845855Y-81993191D01*
X129851319Y-81991336D01*
X129851324Y-81991335D01*
X130041448Y-81926796D01*
X130046916Y-81924940D01*
X130232172Y-81821192D01*
X130395420Y-81685420D01*
X130531192Y-81522172D01*
X130634940Y-81336916D01*
X130665565Y-81246699D01*
X130701335Y-81141324D01*
X130701336Y-81141319D01*
X130703191Y-81135855D01*
X130704019Y-81130146D01*
X130704020Y-81130141D01*
X130733126Y-80929397D01*
X130733659Y-80925723D01*
X130735249Y-80865000D01*
X130721735Y-80717927D01*
X130716350Y-80659315D01*
X130716349Y-80659312D01*
X130715821Y-80653561D01*
X130658186Y-80449204D01*
X130564275Y-80258772D01*
X130437233Y-80088642D01*
X130301749Y-79963402D01*
X130285555Y-79948432D01*
X130285552Y-79948430D01*
X130281315Y-79944513D01*
X130101742Y-79831211D01*
X130068068Y-79817776D01*
X130041096Y-79807015D01*
X129904529Y-79752530D01*
X129898861Y-79751403D01*
X129898859Y-79751402D01*
X129701946Y-79712234D01*
X129701944Y-79712234D01*
X129696279Y-79711107D01*
X129690504Y-79711031D01*
X129690500Y-79711031D01*
X129584283Y-79709641D01*
X129483968Y-79708328D01*
X129478271Y-79709307D01*
X129478270Y-79709307D01*
X129280395Y-79743308D01*
X129280392Y-79743309D01*
X129274705Y-79744286D01*
X129075500Y-79817776D01*
X128985468Y-79871340D01*
X128926647Y-79906335D01*
X128893023Y-79926339D01*
X128733385Y-80066337D01*
X128729818Y-80070862D01*
X128729813Y-80070867D01*
X128605507Y-80228549D01*
X128601933Y-80233083D01*
X128599245Y-80238192D01*
X128505759Y-80415880D01*
X128505757Y-80415885D01*
X128503070Y-80420992D01*
X128440105Y-80623771D01*
X128431078Y-80700041D01*
X128430690Y-80703321D01*
X128402820Y-80768619D01*
X128344072Y-80808483D01*
X128273097Y-80810258D01*
X128212430Y-80773379D01*
X128181333Y-80709555D01*
X128180092Y-80700041D01*
X128176350Y-80659315D01*
X128176349Y-80659312D01*
X128175821Y-80653561D01*
X128118186Y-80449204D01*
X128024275Y-80258772D01*
X127897233Y-80088642D01*
X127761749Y-79963402D01*
X127745555Y-79948432D01*
X127745552Y-79948430D01*
X127741315Y-79944513D01*
X127561742Y-79831211D01*
X127528068Y-79817776D01*
X127501096Y-79807015D01*
X127364529Y-79752530D01*
X127358861Y-79751403D01*
X127358859Y-79751402D01*
X127161946Y-79712234D01*
X127161944Y-79712234D01*
X127156279Y-79711107D01*
X127150504Y-79711031D01*
X127150500Y-79711031D01*
X127044283Y-79709641D01*
X126943968Y-79708328D01*
X126938271Y-79709307D01*
X126938270Y-79709307D01*
X126740395Y-79743308D01*
X126740392Y-79743309D01*
X126734705Y-79744286D01*
X126535500Y-79817776D01*
X126445468Y-79871340D01*
X126386647Y-79906335D01*
X126353023Y-79926339D01*
X126193385Y-80066337D01*
X126189818Y-80070862D01*
X126189813Y-80070867D01*
X126065507Y-80228549D01*
X126061933Y-80233083D01*
X126059245Y-80238192D01*
X125965759Y-80415880D01*
X125965757Y-80415885D01*
X125963070Y-80420992D01*
X125900105Y-80623771D01*
X125875149Y-80834628D01*
X125889036Y-81046503D01*
X125941301Y-81252299D01*
X126030195Y-81445124D01*
X126152740Y-81618521D01*
X126304832Y-81766683D01*
X126309628Y-81769888D01*
X126309631Y-81769890D01*
X126386410Y-81821192D01*
X126481377Y-81884647D01*
X126486685Y-81886928D01*
X126486686Y-81886928D01*
X126671160Y-81966184D01*
X126671163Y-81966185D01*
X126676463Y-81968462D01*
X126682092Y-81969736D01*
X126682093Y-81969736D01*
X126877087Y-82013859D01*
X126939114Y-82048402D01*
X126972618Y-82110996D01*
X126966964Y-82181767D01*
X126923945Y-82238246D01*
X126870617Y-82260932D01*
X126740395Y-82283308D01*
X126740392Y-82283309D01*
X126734705Y-82284286D01*
X126535500Y-82357776D01*
X126428921Y-82421184D01*
X126386647Y-82446335D01*
X126353023Y-82466339D01*
X126193385Y-82606337D01*
X126189818Y-82610862D01*
X126189813Y-82610867D01*
X126073787Y-82758046D01*
X126061933Y-82773083D01*
X126059245Y-82778192D01*
X125965759Y-82955880D01*
X125965757Y-82955885D01*
X125963070Y-82960992D01*
X125900105Y-83163771D01*
X125875149Y-83374628D01*
X125889036Y-83586503D01*
X125941301Y-83792299D01*
X126030195Y-83985124D01*
X126152740Y-84158521D01*
X126304832Y-84306683D01*
X126309628Y-84309888D01*
X126309631Y-84309890D01*
X126419844Y-84383532D01*
X126481377Y-84424647D01*
X126486685Y-84426928D01*
X126486686Y-84426928D01*
X126671160Y-84506184D01*
X126671163Y-84506185D01*
X126676463Y-84508462D01*
X126682092Y-84509736D01*
X126682093Y-84509736D01*
X126877087Y-84553859D01*
X126939114Y-84588402D01*
X126972618Y-84650996D01*
X126966964Y-84721767D01*
X126923945Y-84778246D01*
X126870617Y-84800932D01*
X126740395Y-84823308D01*
X126740392Y-84823309D01*
X126734705Y-84824286D01*
X126535500Y-84897776D01*
X126455763Y-84945215D01*
X126386647Y-84986335D01*
X126353023Y-85006339D01*
X126193385Y-85146337D01*
X126189818Y-85150862D01*
X126189813Y-85150867D01*
X126067663Y-85305814D01*
X126061933Y-85313083D01*
X126059245Y-85318192D01*
X125965759Y-85495880D01*
X125965757Y-85495885D01*
X125963070Y-85500992D01*
X125900105Y-85703771D01*
X125875149Y-85914628D01*
X125889036Y-86126503D01*
X125941301Y-86332299D01*
X126030195Y-86525124D01*
X126152740Y-86698521D01*
X126225202Y-86769111D01*
X126289567Y-86831812D01*
X126304832Y-86846683D01*
X126309628Y-86849888D01*
X126309631Y-86849890D01*
X126380886Y-86897501D01*
X126481377Y-86964647D01*
X126486685Y-86966928D01*
X126486686Y-86966928D01*
X126671160Y-87046184D01*
X126671163Y-87046185D01*
X126676463Y-87048462D01*
X126682092Y-87049736D01*
X126682093Y-87049736D01*
X126877087Y-87093859D01*
X126939114Y-87128402D01*
X126972618Y-87190996D01*
X126966964Y-87261767D01*
X126923945Y-87318246D01*
X126870617Y-87340932D01*
X126740395Y-87363308D01*
X126740392Y-87363309D01*
X126734705Y-87364286D01*
X126535500Y-87437776D01*
X126428921Y-87501184D01*
X126386647Y-87526335D01*
X126353023Y-87546339D01*
X126193385Y-87686337D01*
X126189818Y-87690862D01*
X126189813Y-87690867D01*
X126075015Y-87836488D01*
X126061933Y-87853083D01*
X126059245Y-87858192D01*
X125965759Y-88035880D01*
X125965757Y-88035885D01*
X125963070Y-88040992D01*
X125900105Y-88243771D01*
X125875149Y-88454628D01*
X125889036Y-88666503D01*
X125941301Y-88872299D01*
X126030195Y-89065124D01*
X126152740Y-89238521D01*
X126225202Y-89309111D01*
X126286781Y-89369098D01*
X126304832Y-89386683D01*
X126309628Y-89389888D01*
X126309631Y-89389890D01*
X126369813Y-89430102D01*
X126481377Y-89504647D01*
X126486685Y-89506928D01*
X126486686Y-89506928D01*
X126671160Y-89586184D01*
X126671163Y-89586185D01*
X126676463Y-89588462D01*
X126682092Y-89589736D01*
X126682093Y-89589736D01*
X126877087Y-89633859D01*
X126939114Y-89668402D01*
X126972618Y-89730996D01*
X126966964Y-89801767D01*
X126923945Y-89858246D01*
X126870617Y-89880932D01*
X126740395Y-89903308D01*
X126740392Y-89903309D01*
X126734705Y-89904286D01*
X126535500Y-89977776D01*
X126353023Y-90086339D01*
X126193385Y-90226337D01*
X126189818Y-90230862D01*
X126189813Y-90230867D01*
X126165215Y-90262070D01*
X126061933Y-90393083D01*
X126059245Y-90398192D01*
X125965759Y-90575880D01*
X125965757Y-90575885D01*
X125963070Y-90580992D01*
X125900105Y-90783771D01*
X125875149Y-90994628D01*
X124914900Y-90994628D01*
X124914900Y-90805404D01*
X124917486Y-90781105D01*
X124917554Y-90779667D01*
X124919745Y-90769489D01*
X124915773Y-90735925D01*
X124915420Y-90729948D01*
X124915328Y-90729956D01*
X124914900Y-90724780D01*
X124914900Y-90719577D01*
X124911709Y-90700405D01*
X124910876Y-90694552D01*
X124907554Y-90666476D01*
X124904818Y-90643361D01*
X124900833Y-90635062D01*
X124899322Y-90625986D01*
X124874848Y-90580628D01*
X124872155Y-90575342D01*
X124853272Y-90536017D01*
X124853270Y-90536014D01*
X124849840Y-90528871D01*
X124846230Y-90524577D01*
X124844300Y-90522647D01*
X124842511Y-90520696D01*
X124842482Y-90520643D01*
X124842612Y-90520524D01*
X124842111Y-90519956D01*
X124839012Y-90514212D01*
X124799191Y-90477402D01*
X124795626Y-90473973D01*
X122987605Y-88665951D01*
X122953579Y-88603639D01*
X122950700Y-88576856D01*
X122950700Y-87905976D01*
X122953287Y-87881660D01*
X122953354Y-87880237D01*
X122955546Y-87870056D01*
X122951573Y-87836488D01*
X122951221Y-87830514D01*
X122951128Y-87830522D01*
X122950700Y-87825344D01*
X122950700Y-87820144D01*
X122949846Y-87815012D01*
X122947514Y-87801001D01*
X122946677Y-87795122D01*
X122941842Y-87754269D01*
X122941842Y-87754268D01*
X122940618Y-87743929D01*
X122936633Y-87735630D01*
X122935122Y-87726553D01*
X122910642Y-87681185D01*
X122907961Y-87675922D01*
X122889069Y-87636579D01*
X122885640Y-87629438D01*
X122882031Y-87625144D01*
X122880105Y-87623218D01*
X122878309Y-87621260D01*
X122878279Y-87621203D01*
X122878408Y-87621085D01*
X122877910Y-87620520D01*
X122874812Y-87614779D01*
X122835004Y-87577981D01*
X122831439Y-87574552D01*
X119041808Y-83784921D01*
X119026449Y-83765905D01*
X119025483Y-83764844D01*
X119019835Y-83756096D01*
X118993292Y-83735171D01*
X118988817Y-83731194D01*
X118988756Y-83731265D01*
X118984799Y-83727912D01*
X118981116Y-83724229D01*
X118965325Y-83712945D01*
X118960579Y-83709382D01*
X118928271Y-83683912D01*
X118928270Y-83683911D01*
X118920094Y-83677466D01*
X118911407Y-83674415D01*
X118903921Y-83669066D01*
X118893945Y-83666083D01*
X118893944Y-83666082D01*
X118862562Y-83656697D01*
X118854550Y-83654301D01*
X118848921Y-83652472D01*
X118800262Y-83635384D01*
X118794673Y-83634900D01*
X118791962Y-83634900D01*
X118789295Y-83634785D01*
X118789232Y-83634766D01*
X118789239Y-83634592D01*
X118788493Y-83634545D01*
X118782240Y-83632675D01*
X118733456Y-83634592D01*
X118728086Y-83634803D01*
X118723139Y-83634900D01*
X114610213Y-83634900D01*
X114542092Y-83614898D01*
X114521117Y-83597995D01*
X114328123Y-83405000D01*
X114108040Y-83184917D01*
X114092686Y-83165906D01*
X114091720Y-83164844D01*
X114086071Y-83156096D01*
X114077896Y-83149652D01*
X114077894Y-83149649D01*
X114059528Y-83135171D01*
X114055053Y-83131194D01*
X114054992Y-83131265D01*
X114051035Y-83127912D01*
X114047352Y-83124229D01*
X114031561Y-83112945D01*
X114026815Y-83109382D01*
X113994507Y-83083912D01*
X113994506Y-83083911D01*
X113986330Y-83077466D01*
X113977643Y-83074415D01*
X113970157Y-83069066D01*
X113960181Y-83066083D01*
X113960180Y-83066082D01*
X113920789Y-83054302D01*
X113915157Y-83052472D01*
X113866498Y-83035384D01*
X113860909Y-83034900D01*
X113858198Y-83034900D01*
X113855531Y-83034785D01*
X113855468Y-83034766D01*
X113855475Y-83034592D01*
X113854729Y-83034545D01*
X113848476Y-83032675D01*
X113799692Y-83034592D01*
X113794322Y-83034803D01*
X113789375Y-83034900D01*
X108762987Y-83034900D01*
X108694866Y-83014898D01*
X108648373Y-82961242D01*
X108638269Y-82890968D01*
X108667763Y-82826388D01*
X108682418Y-82812026D01*
X108715982Y-82784111D01*
X108720420Y-82780420D01*
X108842807Y-82633266D01*
X108852501Y-82621610D01*
X108856192Y-82617172D01*
X108959940Y-82431916D01*
X109010386Y-82283308D01*
X109026335Y-82236324D01*
X109026336Y-82236319D01*
X109028191Y-82230855D01*
X109029019Y-82225146D01*
X109029020Y-82225141D01*
X109050420Y-82077548D01*
X109058659Y-82020723D01*
X109060249Y-81960000D01*
X109040821Y-81748561D01*
X109027605Y-81701699D01*
X108996343Y-81590855D01*
X108983186Y-81544204D01*
X108889275Y-81353772D01*
X108762233Y-81183642D01*
X108648784Y-81078771D01*
X108610555Y-81043432D01*
X108610552Y-81043430D01*
X108606315Y-81039513D01*
X108426742Y-80926211D01*
X108416223Y-80922014D01*
X108314707Y-80881513D01*
X108229529Y-80847530D01*
X108223861Y-80846403D01*
X108223859Y-80846402D01*
X108053567Y-80812529D01*
X107990657Y-80779622D01*
X107955525Y-80717927D01*
X107959325Y-80647032D01*
X108000851Y-80589446D01*
X108060066Y-80564255D01*
X108170855Y-80548191D01*
X108176319Y-80546336D01*
X108176324Y-80546335D01*
X108366448Y-80481796D01*
X108371916Y-80479940D01*
X108557172Y-80376192D01*
X108720420Y-80240420D01*
X108842807Y-80093266D01*
X108852501Y-80081610D01*
X108856192Y-80077172D01*
X108959940Y-79891916D01*
X109010386Y-79743308D01*
X109026335Y-79696324D01*
X109026336Y-79696319D01*
X109028191Y-79690855D01*
X109029019Y-79685146D01*
X109029020Y-79685141D01*
X109050541Y-79536710D01*
X109058659Y-79480723D01*
X109060249Y-79420000D01*
X109045760Y-79262312D01*
X109041350Y-79214315D01*
X109041349Y-79214312D01*
X109040821Y-79208561D01*
X109034477Y-79186065D01*
X108995136Y-79046575D01*
X108983186Y-79004204D01*
X108889275Y-78813772D01*
X108795640Y-78688379D01*
X108765686Y-78648266D01*
X108765685Y-78648265D01*
X108762233Y-78643642D01*
X108654993Y-78544510D01*
X108610555Y-78503432D01*
X108610552Y-78503430D01*
X108606315Y-78499513D01*
X108426742Y-78386211D01*
X108407040Y-78378351D01*
X108351182Y-78334532D01*
X108327881Y-78267468D01*
X108344536Y-78198452D01*
X108398298Y-78148170D01*
X108593095Y-78052739D01*
X108601945Y-78047464D01*
X108775328Y-77923792D01*
X108783200Y-77917139D01*
X108934052Y-77766812D01*
X108940730Y-77758965D01*
X109065003Y-77586020D01*
X109070313Y-77577183D01*
X109164670Y-77386267D01*
X109168469Y-77376672D01*
X109230377Y-77172910D01*
X109232555Y-77162837D01*
X109233986Y-77151962D01*
X109231775Y-77137778D01*
X109218617Y-77134000D01*
X106583225Y-77134000D01*
X106569694Y-77137973D01*
X106568257Y-77147966D01*
X106598565Y-77282446D01*
X106601645Y-77292275D01*
X106681770Y-77489603D01*
X106686413Y-77498794D01*
X106797694Y-77680388D01*
X106803777Y-77688699D01*
X106943213Y-77849667D01*
X106950580Y-77856883D01*
X107114434Y-77992916D01*
X107122881Y-77998831D01*
X107306756Y-78106279D01*
X107316042Y-78110729D01*
X107394111Y-78140540D01*
X107450614Y-78183527D01*
X107474907Y-78250238D01*
X107459277Y-78319493D01*
X107403883Y-78371528D01*
X107400500Y-78372776D01*
X107395528Y-78375734D01*
X107272560Y-78448893D01*
X107218023Y-78481339D01*
X107058385Y-78621337D01*
X107054818Y-78625862D01*
X107054813Y-78625867D01*
X106938780Y-78773055D01*
X106926933Y-78788083D01*
X106924245Y-78793192D01*
X106830759Y-78970880D01*
X106830757Y-78970885D01*
X106828070Y-78975992D01*
X106765105Y-79178771D01*
X106740149Y-79389628D01*
X106754036Y-79601503D01*
X106806301Y-79807299D01*
X106895195Y-80000124D01*
X107017740Y-80173521D01*
X107169832Y-80321683D01*
X107174628Y-80324888D01*
X107174631Y-80324890D01*
X107310807Y-80415880D01*
X107346377Y-80439647D01*
X107351685Y-80441928D01*
X107351686Y-80441928D01*
X107536160Y-80521184D01*
X107536163Y-80521185D01*
X107541463Y-80523462D01*
X107547092Y-80524736D01*
X107547093Y-80524736D01*
X107742087Y-80568859D01*
X107804114Y-80603402D01*
X107837618Y-80665996D01*
X107831964Y-80736767D01*
X107788945Y-80793246D01*
X107735617Y-80815932D01*
X107605395Y-80838308D01*
X107605392Y-80838309D01*
X107599705Y-80839286D01*
X107400500Y-80912776D01*
X107218023Y-81021339D01*
X107058385Y-81161337D01*
X107054818Y-81165862D01*
X107054813Y-81165867D01*
X106976460Y-81265258D01*
X106926933Y-81328083D01*
X106924244Y-81333193D01*
X106924240Y-81333200D01*
X106841130Y-81491166D01*
X106791711Y-81542139D01*
X106722579Y-81558302D01*
X106655682Y-81534523D01*
X106640527Y-81521594D01*
X106265305Y-81146372D01*
X106231279Y-81084060D01*
X106228400Y-81057277D01*
X106228400Y-79337767D01*
X106230986Y-79313468D01*
X106231054Y-79312030D01*
X106233245Y-79301852D01*
X106229273Y-79268290D01*
X106228921Y-79262312D01*
X106228828Y-79262320D01*
X106228400Y-79257142D01*
X106228400Y-79251940D01*
X106225212Y-79232786D01*
X106224377Y-79226921D01*
X106219542Y-79186065D01*
X106219542Y-79186064D01*
X106218318Y-79175725D01*
X106214333Y-79167426D01*
X106212822Y-79158349D01*
X106188342Y-79112981D01*
X106185661Y-79107718D01*
X106166773Y-79068382D01*
X106166770Y-79068378D01*
X106163340Y-79061234D01*
X106159730Y-79056940D01*
X106157798Y-79055008D01*
X106156011Y-79053059D01*
X106155982Y-79053006D01*
X106156112Y-79052887D01*
X106155611Y-79052319D01*
X106152512Y-79046575D01*
X106112690Y-79009764D01*
X106109138Y-79006348D01*
X105917050Y-78814259D01*
X105883025Y-78751947D01*
X105881403Y-78707411D01*
X105891377Y-78637329D01*
X105891377Y-78637326D01*
X105891958Y-78633245D01*
X105892114Y-78618366D01*
X105875993Y-78485149D01*
X105872518Y-78456436D01*
X105872518Y-78456435D01*
X105871605Y-78448893D01*
X105827012Y-78330880D01*
X105813949Y-78296308D01*
X105813948Y-78296306D01*
X105811264Y-78289203D01*
X105806965Y-78282948D01*
X105806963Y-78282944D01*
X105718875Y-78154776D01*
X105718874Y-78154774D01*
X105714573Y-78148517D01*
X105708339Y-78142962D01*
X105607074Y-78052739D01*
X105587115Y-78034956D01*
X105579157Y-78030742D01*
X105442956Y-77958628D01*
X105442955Y-77958627D01*
X105436247Y-77955076D01*
X105270681Y-77913488D01*
X105263083Y-77913448D01*
X105263081Y-77913448D01*
X105189292Y-77913062D01*
X105099973Y-77912595D01*
X105092594Y-77914367D01*
X105092590Y-77914367D01*
X104941360Y-77950674D01*
X104941356Y-77950675D01*
X104933981Y-77952446D01*
X104927236Y-77955927D01*
X104927237Y-77955927D01*
X104801476Y-78020837D01*
X104782285Y-78030742D01*
X104776563Y-78035734D01*
X104776561Y-78035735D01*
X104659371Y-78137966D01*
X104653644Y-78142962D01*
X104555486Y-78282628D01*
X104552727Y-78289703D01*
X104552726Y-78289706D01*
X104497545Y-78431239D01*
X104493475Y-78441677D01*
X104492483Y-78449210D01*
X104492483Y-78449211D01*
X104472914Y-78597855D01*
X104471193Y-78610926D01*
X104479396Y-78685229D01*
X104488727Y-78769741D01*
X104489926Y-78780605D01*
X104492535Y-78787736D01*
X104492536Y-78787738D01*
X104519264Y-78860774D01*
X104548592Y-78940917D01*
X104643804Y-79082608D01*
X104649416Y-79087715D01*
X104649419Y-79087718D01*
X104764445Y-79192384D01*
X104764449Y-79192387D01*
X104770066Y-79197498D01*
X104776743Y-79201123D01*
X104776744Y-79201124D01*
X104882691Y-79258649D01*
X104933013Y-79308732D01*
X104948269Y-79378070D01*
X104923616Y-79444649D01*
X104866882Y-79487331D01*
X104838216Y-79494262D01*
X104831839Y-79494229D01*
X104824459Y-79496001D01*
X104824457Y-79496001D01*
X104673226Y-79532308D01*
X104673222Y-79532309D01*
X104665847Y-79534080D01*
X104514151Y-79612376D01*
X104508429Y-79617368D01*
X104508427Y-79617369D01*
X104434702Y-79681683D01*
X104385510Y-79724596D01*
X104287352Y-79864262D01*
X104284593Y-79871337D01*
X104284592Y-79871340D01*
X104232543Y-80004840D01*
X104225341Y-80023311D01*
X104224349Y-80030844D01*
X104224349Y-80030845D01*
X104205566Y-80173521D01*
X104203059Y-80192560D01*
X104209858Y-80254144D01*
X104217669Y-80324890D01*
X104221792Y-80362239D01*
X104224401Y-80369370D01*
X104224402Y-80369372D01*
X104265544Y-80481796D01*
X104280458Y-80522551D01*
X104284691Y-80528851D01*
X104284696Y-80528860D01*
X104351606Y-80628433D01*
X104372998Y-80696130D01*
X104354393Y-80764646D01*
X104350111Y-80771158D01*
X104287352Y-80860456D01*
X104284593Y-80867531D01*
X104284592Y-80867534D01*
X104245737Y-80967193D01*
X104225341Y-81019505D01*
X104224349Y-81027038D01*
X104224349Y-81027039D01*
X104204248Y-81179726D01*
X104203059Y-81188754D01*
X104203893Y-81196304D01*
X104218813Y-81331448D01*
X104221792Y-81358433D01*
X104224401Y-81365564D01*
X104224402Y-81365566D01*
X104272038Y-81495735D01*
X104280458Y-81518745D01*
X104284693Y-81525048D01*
X104284697Y-81525055D01*
X104336391Y-81601983D01*
X104357784Y-81669680D01*
X104339180Y-81738196D01*
X104334900Y-81744704D01*
X104287352Y-81812359D01*
X104284593Y-81819434D01*
X104284592Y-81819437D01*
X104228345Y-81963704D01*
X104225341Y-81971408D01*
X104224349Y-81978941D01*
X104224349Y-81978942D01*
X104209461Y-82092032D01*
X104203059Y-82140657D01*
X104212329Y-82224622D01*
X104220063Y-82294672D01*
X104221792Y-82310336D01*
X104224401Y-82317467D01*
X104224402Y-82317469D01*
X104271561Y-82446335D01*
X104280458Y-82470648D01*
X104284693Y-82476951D01*
X104284697Y-82476958D01*
X104336391Y-82553886D01*
X104357784Y-82621583D01*
X104339180Y-82690099D01*
X104334900Y-82696607D01*
X104287352Y-82764262D01*
X104284593Y-82771337D01*
X104284592Y-82771340D01*
X104228117Y-82916192D01*
X104225341Y-82923311D01*
X104224349Y-82930844D01*
X104224349Y-82930845D01*
X104204198Y-83083912D01*
X104203059Y-83092560D01*
X102783892Y-83092560D01*
X102777233Y-83083642D01*
X102681085Y-82994764D01*
X102625555Y-82943432D01*
X102625552Y-82943430D01*
X102621315Y-82939513D01*
X102441742Y-82826211D01*
X102408068Y-82812776D01*
X102321383Y-82778192D01*
X102244529Y-82747530D01*
X102238861Y-82746403D01*
X102238859Y-82746402D01*
X102068567Y-82712529D01*
X102005657Y-82679622D01*
X101970525Y-82617927D01*
X101974325Y-82547032D01*
X102015851Y-82489446D01*
X102075066Y-82464255D01*
X102185855Y-82448191D01*
X102191319Y-82446336D01*
X102191324Y-82446335D01*
X102381448Y-82381796D01*
X102386916Y-82379940D01*
X102572172Y-82276192D01*
X102735420Y-82140420D01*
X102844510Y-82009254D01*
X102867501Y-81981610D01*
X102871192Y-81977172D01*
X102974940Y-81791916D01*
X103017035Y-81667909D01*
X103041335Y-81596324D01*
X103041336Y-81596319D01*
X103043191Y-81590855D01*
X103044019Y-81585146D01*
X103044020Y-81585141D01*
X103073126Y-81384397D01*
X103073659Y-81380723D01*
X103075249Y-81320000D01*
X103059295Y-81146372D01*
X103056350Y-81114315D01*
X103056349Y-81114312D01*
X103055821Y-81108561D01*
X102998186Y-80904204D01*
X102904275Y-80713772D01*
X102777233Y-80543642D01*
X102681085Y-80454764D01*
X102625555Y-80403432D01*
X102625552Y-80403430D01*
X102621315Y-80399513D01*
X102441742Y-80286211D01*
X102408068Y-80272776D01*
X102321383Y-80238192D01*
X102244529Y-80207530D01*
X102238861Y-80206403D01*
X102238859Y-80206402D01*
X102068567Y-80172529D01*
X102005657Y-80139622D01*
X101970525Y-80077927D01*
X101974325Y-80007032D01*
X102015851Y-79949446D01*
X102075066Y-79924255D01*
X102185855Y-79908191D01*
X102191319Y-79906336D01*
X102191324Y-79906335D01*
X102381448Y-79841796D01*
X102386916Y-79839940D01*
X102572172Y-79736192D01*
X102735420Y-79600420D01*
X102871192Y-79437172D01*
X102974940Y-79251916D01*
X103002640Y-79170314D01*
X103041335Y-79056324D01*
X103041336Y-79056319D01*
X103043191Y-79050855D01*
X103044019Y-79045146D01*
X103044020Y-79045141D01*
X103070257Y-78864186D01*
X103073659Y-78840723D01*
X103075249Y-78780000D01*
X103062140Y-78637329D01*
X103056350Y-78574315D01*
X103056349Y-78574312D01*
X103055821Y-78568561D01*
X102998186Y-78364204D01*
X102904275Y-78173772D01*
X102777233Y-78003642D01*
X102621315Y-77859513D01*
X102441742Y-77746211D01*
X102414066Y-77735169D01*
X102300599Y-77689900D01*
X102244529Y-77667530D01*
X102238861Y-77666403D01*
X102238859Y-77666402D01*
X102068567Y-77632529D01*
X102005657Y-77599622D01*
X101970525Y-77537927D01*
X101974325Y-77467032D01*
X102015851Y-77409446D01*
X102075066Y-77384255D01*
X102185855Y-77368191D01*
X102191319Y-77366336D01*
X102191324Y-77366335D01*
X102381448Y-77301796D01*
X102386916Y-77299940D01*
X102572172Y-77196192D01*
X102735420Y-77060420D01*
X102834940Y-76940760D01*
X118743159Y-76940760D01*
X118748984Y-76993521D01*
X118760327Y-77096260D01*
X118761892Y-77110439D01*
X118764501Y-77117570D01*
X118764502Y-77117572D01*
X118816495Y-77259647D01*
X118820558Y-77270751D01*
X118915770Y-77412442D01*
X118921382Y-77417549D01*
X118921385Y-77417552D01*
X119019405Y-77506743D01*
X119042032Y-77527332D01*
X119045468Y-77529197D01*
X119088436Y-77583728D01*
X119095252Y-77654397D01*
X119062779Y-77717532D01*
X119054335Y-77725618D01*
X119012198Y-77762376D01*
X118976410Y-77793596D01*
X118878252Y-77933262D01*
X118875493Y-77940337D01*
X118875492Y-77940340D01*
X118831670Y-78052739D01*
X118816241Y-78092311D01*
X118815249Y-78099844D01*
X118815249Y-78099845D01*
X118795450Y-78250238D01*
X118793959Y-78261560D01*
X118802786Y-78341513D01*
X118806238Y-78372776D01*
X118812692Y-78431239D01*
X118815301Y-78438370D01*
X118815302Y-78438372D01*
X118865051Y-78574315D01*
X118871358Y-78591551D01*
X118966570Y-78733242D01*
X118972182Y-78738349D01*
X118972185Y-78738352D01*
X119087211Y-78843018D01*
X119087215Y-78843021D01*
X119092832Y-78848132D01*
X119099509Y-78851757D01*
X119099510Y-78851758D01*
X119122400Y-78864186D01*
X119242855Y-78929588D01*
X119407977Y-78972907D01*
X119494992Y-78974274D01*
X119571066Y-78975469D01*
X119571069Y-78975469D01*
X119578665Y-78975588D01*
X119586069Y-78973892D01*
X119586071Y-78973892D01*
X119702522Y-78947221D01*
X119745067Y-78937477D01*
X119897574Y-78860774D01*
X119903345Y-78855845D01*
X119903348Y-78855843D01*
X120021610Y-78754837D01*
X120021611Y-78754836D01*
X120027382Y-78749907D01*
X120046370Y-78723483D01*
X120061108Y-78702973D01*
X120117102Y-78659326D01*
X120163430Y-78650500D01*
X123235003Y-78650500D01*
X123303124Y-78670502D01*
X123339585Y-78706224D01*
X123412170Y-78814242D01*
X123417782Y-78819349D01*
X123417785Y-78819352D01*
X123532811Y-78924018D01*
X123532815Y-78924021D01*
X123538432Y-78929132D01*
X123545109Y-78932757D01*
X123545110Y-78932758D01*
X123568000Y-78945186D01*
X123688455Y-79010588D01*
X123853577Y-79053907D01*
X123940592Y-79055274D01*
X124016666Y-79056469D01*
X124016669Y-79056469D01*
X124024265Y-79056588D01*
X124031669Y-79054892D01*
X124031671Y-79054892D01*
X124098840Y-79039508D01*
X124190667Y-79018477D01*
X124343174Y-78941774D01*
X124348945Y-78936845D01*
X124348948Y-78936843D01*
X124467210Y-78835837D01*
X124467211Y-78835836D01*
X124472982Y-78830907D01*
X124572598Y-78692276D01*
X124576078Y-78683619D01*
X124633436Y-78540939D01*
X124633437Y-78540937D01*
X124636271Y-78533886D01*
X124660324Y-78364879D01*
X124660480Y-78350000D01*
X124653982Y-78296308D01*
X124640884Y-78188070D01*
X124640884Y-78188069D01*
X124639971Y-78180527D01*
X124591685Y-78052739D01*
X124582315Y-78027942D01*
X124582314Y-78027940D01*
X124579630Y-78020837D01*
X124575331Y-78014582D01*
X124575329Y-78014578D01*
X124487241Y-77886410D01*
X124487240Y-77886408D01*
X124482939Y-77880151D01*
X124459776Y-77859513D01*
X124361152Y-77771643D01*
X124355481Y-77766590D01*
X124347523Y-77762376D01*
X124211322Y-77690262D01*
X124211321Y-77690261D01*
X124204613Y-77686710D01*
X124039047Y-77645122D01*
X124031449Y-77645082D01*
X124031447Y-77645082D01*
X123957658Y-77644696D01*
X123868339Y-77644229D01*
X123860960Y-77646001D01*
X123860956Y-77646001D01*
X123709726Y-77682308D01*
X123709722Y-77682309D01*
X123702347Y-77684080D01*
X123691071Y-77689900D01*
X123557400Y-77758892D01*
X123557396Y-77758894D01*
X123550651Y-77762376D01*
X123548084Y-77764615D01*
X123478897Y-77785900D01*
X123270857Y-77785900D01*
X123202736Y-77765898D01*
X123156243Y-77712242D01*
X123146139Y-77641968D01*
X123175633Y-77577388D01*
X123214243Y-77547335D01*
X123278363Y-77515086D01*
X123285147Y-77511674D01*
X123290918Y-77506745D01*
X123290921Y-77506743D01*
X123409183Y-77405737D01*
X123409184Y-77405736D01*
X123414955Y-77400807D01*
X123514571Y-77262176D01*
X123578244Y-77103786D01*
X123602297Y-76934779D01*
X123602453Y-76919900D01*
X123590949Y-76824840D01*
X123582857Y-76757970D01*
X123582857Y-76757969D01*
X123581944Y-76750427D01*
X123537401Y-76632545D01*
X123524288Y-76597842D01*
X123524287Y-76597840D01*
X123521603Y-76590737D01*
X123517304Y-76584482D01*
X123517302Y-76584478D01*
X123429214Y-76456310D01*
X123429213Y-76456308D01*
X123424912Y-76450051D01*
X123418678Y-76444496D01*
X123361183Y-76393271D01*
X123297454Y-76336490D01*
X123289496Y-76332276D01*
X123153295Y-76260162D01*
X123153294Y-76260161D01*
X123146586Y-76256610D01*
X122981020Y-76215022D01*
X122973422Y-76214982D01*
X122973420Y-76214982D01*
X122899631Y-76214596D01*
X122810312Y-76214129D01*
X122802933Y-76215901D01*
X122802929Y-76215901D01*
X122651699Y-76252208D01*
X122651695Y-76252209D01*
X122644320Y-76253980D01*
X122492624Y-76332276D01*
X122486902Y-76337268D01*
X122486900Y-76337269D01*
X122383919Y-76427105D01*
X122363983Y-76444496D01*
X122351434Y-76462352D01*
X122295900Y-76506582D01*
X122248348Y-76515900D01*
X120075317Y-76515900D01*
X120007196Y-76495898D01*
X119986639Y-76478239D01*
X119986539Y-76478351D01*
X119961801Y-76456310D01*
X119859081Y-76364790D01*
X119851123Y-76360576D01*
X119714922Y-76288462D01*
X119714921Y-76288461D01*
X119708213Y-76284910D01*
X119542647Y-76243322D01*
X119535049Y-76243282D01*
X119535047Y-76243282D01*
X119461258Y-76242896D01*
X119371939Y-76242429D01*
X119364560Y-76244201D01*
X119364556Y-76244201D01*
X119213326Y-76280508D01*
X119213322Y-76280509D01*
X119205947Y-76282280D01*
X119054251Y-76360576D01*
X119048529Y-76365568D01*
X119048527Y-76365569D01*
X118977987Y-76427105D01*
X118925610Y-76472796D01*
X118827452Y-76612462D01*
X118824693Y-76619537D01*
X118824692Y-76619540D01*
X118776433Y-76743319D01*
X118765441Y-76771511D01*
X118764449Y-76779044D01*
X118764449Y-76779045D01*
X118759732Y-76814879D01*
X118743159Y-76940760D01*
X102834940Y-76940760D01*
X102871192Y-76897172D01*
X102974940Y-76711916D01*
X103005565Y-76621699D01*
X103008116Y-76614183D01*
X106564389Y-76614183D01*
X106565912Y-76622607D01*
X106578292Y-76626000D01*
X109218344Y-76626000D01*
X109231875Y-76622027D01*
X109233180Y-76612947D01*
X109191214Y-76445875D01*
X109187894Y-76436124D01*
X109102972Y-76240814D01*
X109098105Y-76231739D01*
X108982426Y-76052926D01*
X108976136Y-76044757D01*
X108832806Y-75887240D01*
X108825273Y-75880215D01*
X108658139Y-75748222D01*
X108649552Y-75742517D01*
X108463117Y-75639599D01*
X108453704Y-75635368D01*
X108408197Y-75619253D01*
X108350660Y-75577658D01*
X108324745Y-75511560D01*
X108338679Y-75441945D01*
X108388690Y-75390546D01*
X108557172Y-75296192D01*
X108720420Y-75160420D01*
X108856192Y-74997172D01*
X108959940Y-74811916D01*
X109008927Y-74667606D01*
X109026335Y-74616324D01*
X109026336Y-74616319D01*
X109028191Y-74610855D01*
X109029019Y-74605146D01*
X109029020Y-74605141D01*
X109050420Y-74457548D01*
X109058659Y-74400723D01*
X109060249Y-74340000D01*
X109040821Y-74128561D01*
X108983186Y-73924204D01*
X108889275Y-73733772D01*
X108762233Y-73563642D01*
X108648784Y-73458771D01*
X108610555Y-73423432D01*
X108610552Y-73423430D01*
X108606315Y-73419513D01*
X108426742Y-73306211D01*
X108393068Y-73292776D01*
X108358601Y-73279025D01*
X108229529Y-73227530D01*
X108223861Y-73226403D01*
X108223859Y-73226402D01*
X108115653Y-73204879D01*
X108052743Y-73171972D01*
X108017611Y-73110277D01*
X108021411Y-73039382D01*
X108062936Y-72981796D01*
X108129003Y-72955802D01*
X108140234Y-72955300D01*
X108795358Y-72955300D01*
X108806252Y-72954004D01*
X108812593Y-72953250D01*
X108812596Y-72953249D01*
X108821978Y-72952133D01*
X108925919Y-72905964D01*
X108965998Y-72865814D01*
X108998052Y-72833705D01*
X108998053Y-72833703D01*
X109006270Y-72825472D01*
X109052258Y-72721451D01*
X109055300Y-72695358D01*
X109055300Y-70904642D01*
X109053827Y-70892264D01*
X109053250Y-70887407D01*
X109053249Y-70887404D01*
X109052133Y-70878022D01*
X109005964Y-70774081D01*
X108965814Y-70734002D01*
X108933705Y-70701948D01*
X108933703Y-70701947D01*
X108925472Y-70693730D01*
X108821451Y-70647742D01*
X108795358Y-70644700D01*
X107004642Y-70644700D01*
X106993748Y-70645996D01*
X106987407Y-70646750D01*
X106987404Y-70646751D01*
X106978022Y-70647867D01*
X106913621Y-70676473D01*
X106893821Y-70685268D01*
X106874081Y-70694036D01*
X106834002Y-70734186D01*
X106801948Y-70766295D01*
X106801947Y-70766297D01*
X106793730Y-70774528D01*
X106747742Y-70878549D01*
X106744700Y-70904642D01*
X106744700Y-72695358D01*
X106745996Y-72706252D01*
X106746685Y-72712040D01*
X106747867Y-72721978D01*
X106794036Y-72825919D01*
X106834186Y-72865998D01*
X106866295Y-72898052D01*
X106866297Y-72898053D01*
X106874528Y-72906270D01*
X106978549Y-72952258D01*
X107004642Y-72955300D01*
X107658713Y-72955300D01*
X107726834Y-72975302D01*
X107773327Y-73028958D01*
X107783431Y-73099232D01*
X107753937Y-73163812D01*
X107694211Y-73202196D01*
X107680051Y-73205480D01*
X107605395Y-73218308D01*
X107605392Y-73218309D01*
X107599705Y-73219286D01*
X107400500Y-73292776D01*
X107218023Y-73401339D01*
X107058385Y-73541337D01*
X107054818Y-73545862D01*
X107054813Y-73545867D01*
X106957248Y-73669628D01*
X106926933Y-73708083D01*
X106924245Y-73713192D01*
X106830759Y-73890880D01*
X106830757Y-73890885D01*
X106828070Y-73895992D01*
X106765105Y-74098771D01*
X106740149Y-74309628D01*
X106754036Y-74521503D01*
X106806301Y-74727299D01*
X106895195Y-74920124D01*
X107017740Y-75093521D01*
X107090202Y-75164111D01*
X107165327Y-75237294D01*
X107169832Y-75241683D01*
X107174628Y-75244888D01*
X107174631Y-75244890D01*
X107320144Y-75342118D01*
X107346377Y-75359647D01*
X107351680Y-75361926D01*
X107351685Y-75361928D01*
X107379293Y-75373789D01*
X107399862Y-75382626D01*
X107454554Y-75427892D01*
X107476092Y-75495543D01*
X107457635Y-75564099D01*
X107405045Y-75611794D01*
X107389271Y-75618157D01*
X107376873Y-75622210D01*
X107367359Y-75626209D01*
X107178463Y-75724542D01*
X107169738Y-75730036D01*
X106999433Y-75857905D01*
X106991726Y-75864748D01*
X106844590Y-76018717D01*
X106838104Y-76026727D01*
X106718098Y-76202649D01*
X106713000Y-76211623D01*
X106623338Y-76404783D01*
X106619775Y-76414470D01*
X106564389Y-76614183D01*
X103008116Y-76614183D01*
X103041335Y-76516324D01*
X103041336Y-76516319D01*
X103043191Y-76510855D01*
X103044019Y-76505146D01*
X103044020Y-76505141D01*
X103073126Y-76304397D01*
X103073659Y-76300723D01*
X103075249Y-76240000D01*
X103055821Y-76028561D01*
X102998186Y-75824204D01*
X102904275Y-75633772D01*
X102777233Y-75463642D01*
X102621315Y-75319513D01*
X102441742Y-75206211D01*
X102408068Y-75192776D01*
X102326967Y-75160420D01*
X102244529Y-75127530D01*
X102238861Y-75126403D01*
X102238859Y-75126402D01*
X102068567Y-75092529D01*
X102005657Y-75059622D01*
X101970525Y-74997927D01*
X101974325Y-74927032D01*
X102015851Y-74869446D01*
X102075066Y-74844255D01*
X102185855Y-74828191D01*
X102191319Y-74826336D01*
X102191324Y-74826335D01*
X102381448Y-74761796D01*
X102386916Y-74759940D01*
X102572172Y-74656192D01*
X102735420Y-74520420D01*
X102871192Y-74357172D01*
X102974940Y-74171916D01*
X103043191Y-73970855D01*
X103044019Y-73965146D01*
X103044020Y-73965141D01*
X103073126Y-73764397D01*
X103073659Y-73760723D01*
X103075249Y-73700000D01*
X103055821Y-73488561D01*
X103043818Y-73446000D01*
X103001436Y-73295729D01*
X102998186Y-73284204D01*
X102904275Y-73093772D01*
X102777233Y-72923642D01*
X102649242Y-72805328D01*
X102625555Y-72783432D01*
X102625552Y-72783430D01*
X102621315Y-72779513D01*
X102441742Y-72666211D01*
X102408068Y-72652776D01*
X102305727Y-72611946D01*
X102244529Y-72587530D01*
X102238861Y-72586403D01*
X102238859Y-72586402D01*
X102041946Y-72547234D01*
X102041944Y-72547234D01*
X102036279Y-72546107D01*
X102030504Y-72546031D01*
X102030500Y-72546031D01*
X101924283Y-72544641D01*
X101823968Y-72543328D01*
X101818271Y-72544307D01*
X101818270Y-72544307D01*
X101620395Y-72578308D01*
X101620392Y-72578309D01*
X101614705Y-72579286D01*
X101415500Y-72652776D01*
X101233023Y-72761339D01*
X101073385Y-72901337D01*
X101069818Y-72905862D01*
X101069813Y-72905867D01*
X100957949Y-73047767D01*
X100900068Y-73088880D01*
X100829148Y-73092174D01*
X100767705Y-73056602D01*
X100735248Y-72993459D01*
X100732999Y-72969761D01*
X100732999Y-72805331D01*
X100732629Y-72798510D01*
X100727105Y-72747648D01*
X100723479Y-72732396D01*
X100678324Y-72611946D01*
X100669786Y-72596351D01*
X100593285Y-72494276D01*
X100580724Y-72481715D01*
X100478649Y-72405214D01*
X100463054Y-72396676D01*
X100342606Y-72351522D01*
X100327351Y-72347895D01*
X100276486Y-72342369D01*
X100269672Y-72342000D01*
X99647115Y-72342000D01*
X99631876Y-72346475D01*
X99630671Y-72347865D01*
X99629000Y-72355548D01*
X99629000Y-73828000D01*
X99608998Y-73896121D01*
X99555342Y-73942614D01*
X99503000Y-73954000D01*
X98035116Y-73954000D01*
X98019877Y-73958475D01*
X98018672Y-73959865D01*
X98017001Y-73967548D01*
X98017001Y-74594669D01*
X97405300Y-74594669D01*
X97405300Y-73427885D01*
X98017000Y-73427885D01*
X98021475Y-73443124D01*
X98022865Y-73444329D01*
X98030548Y-73446000D01*
X99102885Y-73446000D01*
X99118124Y-73441525D01*
X99119329Y-73440135D01*
X99121000Y-73432452D01*
X99121000Y-72360116D01*
X99116525Y-72344877D01*
X99115135Y-72343672D01*
X99107452Y-72342001D01*
X98480331Y-72342001D01*
X98473510Y-72342371D01*
X98422648Y-72347895D01*
X98407396Y-72351521D01*
X98286946Y-72396676D01*
X98271351Y-72405214D01*
X98169276Y-72481715D01*
X98156715Y-72494276D01*
X98080214Y-72596351D01*
X98071676Y-72611946D01*
X98026522Y-72732394D01*
X98022895Y-72747649D01*
X98017369Y-72798514D01*
X98017000Y-72805328D01*
X98017000Y-73427885D01*
X97405300Y-73427885D01*
X97405300Y-69950000D01*
X98089736Y-69950000D01*
X98109561Y-70201901D01*
X98110715Y-70206708D01*
X98110716Y-70206714D01*
X98143385Y-70342787D01*
X98168548Y-70447599D01*
X98170441Y-70452170D01*
X98170442Y-70452172D01*
X98251450Y-70647742D01*
X98265244Y-70681045D01*
X98397269Y-70896489D01*
X98561371Y-71088629D01*
X98753511Y-71252731D01*
X98968955Y-71384756D01*
X98973525Y-71386649D01*
X98973527Y-71386650D01*
X99151248Y-71460264D01*
X99202401Y-71481452D01*
X99288115Y-71502030D01*
X99443286Y-71539284D01*
X99443292Y-71539285D01*
X99448099Y-71540439D01*
X99700000Y-71560264D01*
X99951901Y-71540439D01*
X99956708Y-71539285D01*
X99956714Y-71539284D01*
X100111885Y-71502030D01*
X100197599Y-71481452D01*
X100248752Y-71460264D01*
X100426473Y-71386650D01*
X100426475Y-71386649D01*
X100431045Y-71384756D01*
X100646489Y-71252731D01*
X100838629Y-71088629D01*
X101002731Y-70896489D01*
X101134756Y-70681045D01*
X101148551Y-70647742D01*
X101229558Y-70452172D01*
X101229559Y-70452170D01*
X101231452Y-70447599D01*
X101256615Y-70342787D01*
X101289284Y-70206714D01*
X101289285Y-70206708D01*
X101290439Y-70201901D01*
X101310264Y-69950000D01*
X101302394Y-69850000D01*
X132989736Y-69850000D01*
X133009561Y-70101901D01*
X133010715Y-70106708D01*
X133010716Y-70106714D01*
X133032384Y-70196967D01*
X133068548Y-70347599D01*
X133165244Y-70581045D01*
X133297269Y-70796489D01*
X133300486Y-70800256D01*
X133300487Y-70800257D01*
X133432097Y-70954354D01*
X133461371Y-70988629D01*
X133653511Y-71152731D01*
X133868955Y-71284756D01*
X133873525Y-71286649D01*
X133873527Y-71286650D01*
X134097828Y-71379558D01*
X134102401Y-71381452D01*
X134188115Y-71402030D01*
X134343286Y-71439284D01*
X134343292Y-71439285D01*
X134348099Y-71440439D01*
X134600000Y-71460264D01*
X134851901Y-71440439D01*
X134856708Y-71439285D01*
X134856714Y-71439284D01*
X135011885Y-71402030D01*
X135097599Y-71381452D01*
X135102172Y-71379558D01*
X135326473Y-71286650D01*
X135326475Y-71286649D01*
X135331045Y-71284756D01*
X135546489Y-71152731D01*
X135738629Y-70988629D01*
X135767903Y-70954354D01*
X135899513Y-70800257D01*
X135899514Y-70800256D01*
X135902731Y-70796489D01*
X136034756Y-70581045D01*
X136131452Y-70347599D01*
X136167616Y-70196967D01*
X136189284Y-70106714D01*
X136189285Y-70106708D01*
X136190439Y-70101901D01*
X136210264Y-69850000D01*
X136190439Y-69598099D01*
X136189285Y-69593292D01*
X136189284Y-69593286D01*
X136132607Y-69357213D01*
X136131452Y-69352401D01*
X136034756Y-69118955D01*
X135902731Y-68903511D01*
X135738629Y-68711371D01*
X135546489Y-68547269D01*
X135331045Y-68415244D01*
X135326475Y-68413351D01*
X135326473Y-68413350D01*
X135102172Y-68320442D01*
X135102170Y-68320441D01*
X135097599Y-68318548D01*
X135011885Y-68297970D01*
X134856714Y-68260716D01*
X134856708Y-68260715D01*
X134851901Y-68259561D01*
X134600000Y-68239736D01*
X134348099Y-68259561D01*
X134343292Y-68260715D01*
X134343286Y-68260716D01*
X134188115Y-68297970D01*
X134102401Y-68318548D01*
X134097830Y-68320441D01*
X134097828Y-68320442D01*
X133873527Y-68413350D01*
X133873525Y-68413351D01*
X133868955Y-68415244D01*
X133653511Y-68547269D01*
X133461371Y-68711371D01*
X133297269Y-68903511D01*
X133165244Y-69118955D01*
X133068548Y-69352401D01*
X133067393Y-69357213D01*
X133010716Y-69593286D01*
X133010715Y-69593292D01*
X133009561Y-69598099D01*
X132989736Y-69850000D01*
X101302394Y-69850000D01*
X101290439Y-69698099D01*
X101289285Y-69693292D01*
X101289284Y-69693286D01*
X101232607Y-69457213D01*
X101231452Y-69452401D01*
X101134756Y-69218955D01*
X101002731Y-69003511D01*
X100917324Y-68903511D01*
X100841842Y-68815133D01*
X100838629Y-68811371D01*
X100646489Y-68647269D01*
X100431045Y-68515244D01*
X100426475Y-68513351D01*
X100426473Y-68513350D01*
X100202172Y-68420442D01*
X100202170Y-68420441D01*
X100197599Y-68418548D01*
X100111885Y-68397970D01*
X99956714Y-68360716D01*
X99956708Y-68360715D01*
X99951901Y-68359561D01*
X99700000Y-68339736D01*
X99448099Y-68359561D01*
X99443292Y-68360715D01*
X99443286Y-68360716D01*
X99288115Y-68397970D01*
X99202401Y-68418548D01*
X99197830Y-68420441D01*
X99197828Y-68420442D01*
X98973527Y-68513350D01*
X98973525Y-68513351D01*
X98968955Y-68515244D01*
X98753511Y-68647269D01*
X98561371Y-68811371D01*
X98558158Y-68815133D01*
X98482677Y-68903511D01*
X98397269Y-69003511D01*
X98265244Y-69218955D01*
X98168548Y-69452401D01*
X98167393Y-69457213D01*
X98110716Y-69693286D01*
X98110715Y-69693292D01*
X98109561Y-69698099D01*
X98089736Y-69950000D01*
X97405300Y-69950000D01*
X97405300Y-67881300D01*
X97425302Y-67813179D01*
X97478958Y-67766686D01*
X97531300Y-67755300D01*
X136668700Y-67755300D01*
X136736821Y-67775302D01*
G37*
%TD.AperFunction*%
%TD*%
M02*
